<?xml version="1.0" encoding="UTF-8" standalone="no"?>
<!-- Created with Inkscape (http://www.inkscape.org/) -->

<svg
   width="410mm"
   height="297mm"
   viewBox="0 0 410 297"
   version="1.1"
   id="svg6598"
   xml:space="preserve"
   sodipodi:docname="ftk_draw.svg"
   inkscape:version="1.2.1 (9c6d41e410, 2022-07-14)"
   xmlns:inkscape="http://www.inkscape.org/namespaces/inkscape"
   xmlns:sodipodi="http://sodipodi.sourceforge.net/DTD/sodipodi-0.dtd"
   xmlns="http://www.w3.org/2000/svg"
   xmlns:svg="http://www.w3.org/2000/svg"><sodipodi:namedview
     id="namedview6600"
     pagecolor="#ffffff"
     bordercolor="#000000"
     borderopacity="0.25"
     inkscape:showpageshadow="2"
     inkscape:pageopacity="0.0"
     inkscape:pagecheckerboard="0"
     inkscape:deskcolor="#d1d1d1"
     inkscape:document-units="mm"
     showgrid="false"
     inkscape:zoom="0.4204826"
     inkscape:cx="713.4659"
     inkscape:cy="271.11704"
     inkscape:window-width="1366"
     inkscape:window-height="697"
     inkscape:window-x="-8"
     inkscape:window-y="-8"
     inkscape:window-maximized="1"
     inkscape:current-layer="layer2" /><defs
     id="defs6595"><inkscape:path-effect
       effect="bspline"
       id="path-effect9006"
       is_visible="true"
       lpeversion="1"
       weight="33.333333"
       steps="2"
       helper_size="0"
       apply_no_weight="true"
       apply_with_weight="true"
       only_selected="false" /><inkscape:path-effect
       effect="bspline"
       id="path-effect8928"
       is_visible="true"
       lpeversion="1"
       weight="33.333333"
       steps="2"
       helper_size="0"
       apply_no_weight="true"
       apply_with_weight="true"
       only_selected="false" /><inkscape:path-effect
       effect="bspline"
       id="path-effect8924"
       is_visible="true"
       lpeversion="1"
       weight="33.333333"
       steps="2"
       helper_size="0"
       apply_no_weight="true"
       apply_with_weight="true"
       only_selected="false" /><inkscape:path-effect
       effect="bspline"
       id="path-effect8920"
       is_visible="true"
       lpeversion="1"
       weight="33.333333"
       steps="2"
       helper_size="0"
       apply_no_weight="true"
       apply_with_weight="true"
       only_selected="false" /><inkscape:path-effect
       effect="bspline"
       id="path-effect8916"
       is_visible="true"
       lpeversion="1"
       weight="33.333333"
       steps="2"
       helper_size="0"
       apply_no_weight="true"
       apply_with_weight="true"
       only_selected="false" /><inkscape:path-effect
       effect="bspline"
       id="path-effect8912"
       is_visible="true"
       lpeversion="1"
       weight="33.333333"
       steps="2"
       helper_size="0"
       apply_no_weight="true"
       apply_with_weight="true"
       only_selected="false" /><inkscape:path-effect
       effect="bspline"
       id="path-effect8908"
       is_visible="true"
       lpeversion="1"
       weight="33.333333"
       steps="2"
       helper_size="0"
       apply_no_weight="true"
       apply_with_weight="true"
       only_selected="false" /><inkscape:path-effect
       effect="bspline"
       id="path-effect7833"
       is_visible="true"
       lpeversion="1"
       weight="33.333333"
       steps="2"
       helper_size="0"
       apply_no_weight="true"
       apply_with_weight="true"
       only_selected="false" /><inkscape:path-effect
       effect="bspline"
       id="path-effect7829"
       is_visible="true"
       lpeversion="1"
       weight="33.333333"
       steps="2"
       helper_size="0"
       apply_no_weight="true"
       apply_with_weight="true"
       only_selected="false" /></defs><g
     inkscape:label="Layer 1"
     inkscape:groupmode="layer"
     id="layer1"
     style="display:inline" /><g
     inkscape:groupmode="layer"
     id="layer2"
     inkscape:label="Layer 2"
     style="display:inline"><g
       id="g9022"
       style="stroke:#000000;fill:#000000"
       transform="translate(-9.788635,-56.062182)"><path
         style="opacity:1;fill:#000000;fill-opacity:1;stroke:#000000;stroke-width:0.448;stroke-linecap:round;stroke-linejoin:round;stroke-dasharray:none;paint-order:fill markers stroke"
         d="m 94.962493,141.6572 c -0.366956,-0.55044 -1.101063,-1.6516 -1.573071,-2.88387 -0.472009,-1.23228 -0.681751,-2.5956 -0.62936,-3.72306 0.05239,-1.12746 0.367,-2.01884 0.996255,-3.14629 0.629256,-1.12745 1.573093,-2.49078 2.438297,-3.85413 0.865204,-1.36335 1.651735,-2.72667 2.412071,-4.01138 0.760336,-1.28471 1.494435,-2.49073 1.730475,-3.46069 0.23604,-0.96996 -0.0261,-1.70406 -0.524188,-2.20231 -0.49805,-0.49824 -1.232145,-0.76042 -2.359609,-0.70806 -1.127463,0.0524 -2.64809,0.41941 -4.693111,0.70782 -2.04502,0.28842 -4.614354,0.49816 -7.419708,0.41953 -2.805355,-0.0786 -5.846608,-0.44568 -8.547122,-0.62923 -2.700514,-0.18354 -5.060108,-0.18354 -7.236291,0.13106 -2.176183,0.3146 -4.168727,0.94382 -5.820537,1.67794 -1.65181,0.73413 -2.962692,1.57309 -3.827958,2.38594 -0.865265,0.81284 -1.284748,1.59937 -1.599362,2.54329 -0.314614,0.94392 -0.524357,2.04507 -0.576759,3.14629 -0.0524,1.10121 0.05247,2.20235 0.236029,3.22489 0.18356,1.02253 0.445737,1.96637 1.101251,3.32973 0.655514,1.36337 1.70422,3.14617 3.067594,5.32231 1.363374,2.17613 3.041305,4.74546 4.666879,6.89536 1.625573,2.1499 3.19863,3.88026 4.142429,5.13877 0.943798,1.2585 1.25841,2.04503 1.363198,2.72666 0.104788,0.68162 -8.2e-5,1.25841 -0.262228,1.704 -0.262145,0.44559 -0.681627,0.76021 -0.970076,1.20603 -0.28845,0.44582 -0.445757,1.02261 -0.524386,1.31092 -0.07863,0.28831 1.966392,2.33333 2.726891,2.5169 0.760499,0.18357 2.281126,0.55062 3.30361,1.02265 1.022484,0.47204 1.546844,1.04883 1.88758,1.80918 0.340736,0.76035 0.498042,1.70419 0.865153,2.77915 0.367111,1.07496 0.943903,2.28098 1.835411,3.30345 0.891507,1.02246 2.097519,1.86143 3.382219,2.35949 1.284701,0.49806 2.648022,0.65536 3.722846,0.41937 1.074824,-0.236 1.861359,-0.86523 2.333253,-1.65167 0.471895,-0.78643 0.629202,-1.73027 0.550611,-2.72652 -0.07859,-0.99625 -0.393204,-2.04496 -0.891293,-3.01505 -0.498089,-0.9701 -1.17975,-1.8615 -1.074913,-2.49091 0.104836,-0.62942 0.996237,-0.99647 1.913889,-1.36353 0.917651,-0.36706 1.86149,-0.7341 2.648065,-0.99628 0.786574,-0.26218 1.4158,-0.41949 1.966433,-0.28825 0.550632,0.13125 1.02255,0.55073 1.704206,1.33731 0.681657,0.78658 1.573059,1.94016 2.805374,2.96262 1.23232,1.02246 2.80538,1.91386 4.43093,2.70039 1.62555,0.78653 3.30348,1.46819 5.08633,2.01875 1.78285,0.55056 3.67053,0.97004 5.03591,1.05573 1.36537,0.0857 2.30503,-0.19069 3.0915,-0.6626 0.78647,-0.4719 1.46812,-1.15356 1.96625,-1.96626 0.49812,-0.8127 0.81274,-1.75652 1.0225,-2.72657 0.20976,-0.97005 0.31463,-1.96632 0.34088,-2.73974 0.0262,-0.77342 -0.0262,-1.32399 -0.19655,-1.87456 -0.17035,-0.55058 -0.45874,-1.10115 -0.86506,-1.52072 -0.40631,-0.41956 -0.93067,-0.70796 -1.5993,-0.74739 -0.66864,-0.0394 -1.48139,0.17031 -2.32043,0.52426 -0.83905,0.35395 -1.70423,0.85208 -2.21556,1.311 -0.51133,0.45892 -0.66863,0.8784 -0.82594,1.28478 -0.15732,0.40639 -0.31462,0.79965 -0.5505,1.07485 -0.23589,0.2752 -0.5505,0.4325 -1.00922,0.43257 -0.45872,7e-5 -1.06173,-0.15724 -1.6585,-0.45405 -0.59676,-0.29682 -1.2123,-0.75178 -1.78911,-1.18438 -0.57681,-0.4326 -1.12738,-0.85209 -1.36352,-1.21916 -0.23613,-0.36707 -0.15748,-0.68169 0.23591,-0.93088 0.3934,-0.2492 1.10128,-0.43272 2.00578,-0.78667 0.90451,-0.35396 2.00565,-0.87831 2.96259,-1.42889 0.95695,-0.55058 1.7697,-1.12737 2.66122,-1.46821 0.89152,-0.34083 1.86157,-0.4457 2.80548,-0.26207 0.94391,0.18362 1.86153,0.65554 2.70049,1.24551 0.83897,0.58996 1.59929,1.29784 2.22848,2.11064 0.62918,0.8128 1.12732,1.73042 1.54681,2.5432 0.41949,0.81277 0.76032,1.52065 1.1405,2.24166 0.38018,0.721 0.79966,1.4551 1.44208,2.09739 0.64242,0.64229 1.5076,1.19286 2.43837,1.76967 0.93076,0.5768 1.92702,1.17981 3.26417,1.7828 1.33715,0.60299 3.01508,1.20599 4.87658,1.58611 1.8615,0.38012 3.90648,0.53743 5.3222,0.45873 1.41571,-0.0787 2.20225,-0.39331 2.79208,-0.81275 0.58983,-0.41945 0.98309,-0.9438 1.27149,-1.74339 0.2884,-0.79958 0.47193,-1.8745 0.60301,-2.5693 0.13109,-0.69479 0.20974,-1.00942 0.36706,-1.31101 0.15733,-0.30159 0.39331,-0.59001 0.62928,-0.87841 0.18353,0.91764 0.36711,1.83558 0.62933,2.74012 0.26221,0.90455 0.60304,1.79595 1.14059,2.66114 0.53754,0.86519 1.27163,1.70415 2.28108,2.33331 1.00945,0.62915 2.29412,1.04863 3.59191,1.24522 1.29778,0.19659 2.60867,0.17039 3.94579,0.0393 1.33712,-0.1311 2.70044,-0.36705 3.91959,-0.60302 1.21914,-0.23597 2.29407,-0.47194 3.22488,-0.5772 0.93081,-0.10526 1.76975,-0.0782 2.67424,-0.19619 0.9045,-0.11801 1.90077,-0.38019 2.71345,-0.81277 0.81268,-0.43259 1.4419,-1.03559 2.13669,-1.75659 0.69478,-0.721 1.45509,-1.55997 2.08432,-2.37271 0.62922,-0.81274 1.12736,-1.59928 1.45509,-2.34644 0.32773,-0.74717 0.48504,-1.45504 0.56371,-1.80908 0.0787,-0.35405 -1.3371,-1.76983 -1.7958,-1.75672 -0.45871,0.0131 -1.37633,0.0393 -2.1367,0.14421 -0.76038,0.10486 -1.36339,0.28838 -1.78282,0.27542 -0.41944,-0.013 -0.6554,-0.2227 -0.87836,-0.77326 -0.22297,-0.55056 -0.4327,-1.44196 -0.55073,-2.83157 -0.11802,-1.38961 -0.14425,-3.27728 -0.19669,-5.19122 -0.0524,-1.91395 -0.1311,-3.85406 -0.24907,-5.46649 -0.11797,-1.61242 -0.27527,-2.89708 -0.35395,-3.85407 -0.0787,-0.95699 -0.0787,-1.58621 0.0656,-1.97964 0.14425,-0.39343 0.43264,-0.55074 0.87847,-0.56379 0.44582,-0.0131 1.04882,0.11804 1.91403,0.24911 0.86521,0.13108 1.99257,0.26217 3.31659,0.35392 1.32403,0.0918 2.84466,0.14419 4.31286,0.0393 1.4682,-0.1049 2.88395,-0.36707 3.9458,-0.56371 1.06184,-0.19664 1.76972,-0.32773 2.39902,-0.26209 0.62929,0.0656 1.17986,0.32782 1.603,0.92975 0.42314,0.60193 0.70403,1.49569 0.95309,2.5051 0.24905,1.00941 0.45879,2.11055 0.56364,3.46078 0.10484,1.35024 0.10484,2.94952 0.10484,4.6144 0,1.66487 0,3.39523 -0.0524,4.81101 -0.0524,1.41578 -0.15732,2.51693 -0.3933,3.89338 -0.23597,1.37645 -0.60302,3.02817 -1.12532,4.63579 -0.52231,1.60762 -1.20811,3.19024 -1.95533,4.5929 -0.74723,1.40266 -1.55998,2.63489 -2.00568,3.5395 -0.44571,0.90462 -0.52436,1.48141 -0.18334,2.01887 0.34101,0.53747 1.10132,1.03561 2.00582,1.2059 0.9045,0.1703 1.9532,0.013 3.06741,-0.45894 1.11421,-0.47194 2.29399,-1.25847 3.2378,-2.41201 0.94381,-1.15354 1.65169,-2.67417 2.38581,-4.78473 0.73411,-2.11056 1.49443,-4.81098 1.97948,-7.49834 0.48506,-2.68736 0.6948,-5.36157 0.79969,-8.00963 0.10488,-2.64805 0.10488,-5.26982 -0.0524,-7.47215 -0.15728,-2.20233 -0.4719,-3.98513 -0.65544,-5.26984 -0.18355,-1.28472 -0.23598,-2.07124 0.11801,-2.66133 0.35399,-0.59008 1.11431,-0.98335 2.00575,-1.40284 0.89144,-0.4195 1.91393,-0.8652 2.94957,-1.2978 1.03563,-0.4326 2.08434,-0.85209 2.87088,-1.17982 0.78655,-0.32773 1.31091,-0.56369 1.67803,-0.57664 0.36713,-0.0129 0.57687,0.1968 0.68162,0.66873 0.10474,0.47194 0.10474,1.20603 0.10474,2.32032 0,1.11429 0,2.6087 -0.0393,4.39155 -0.0393,1.78286 -0.11799,3.85406 -0.1442,5.62381 -0.0262,1.76974 3e-5,3.23794 -0.18352,4.83723 -0.18355,1.59929 -0.57681,3.32966 -1.07497,5.13872 -0.49815,1.80906 -1.10116,3.69674 -1.69108,5.37471 -0.58992,1.67797 -1.1667,3.14616 -1.64807,4.51065 -0.48137,1.3645 -0.88198,2.67315 -1.05235,3.55152 -0.17038,0.87838 -0.11794,1.35029 0.32791,1.69102 0.44586,0.34074 1.28483,0.55048 2.26796,0.5242 0.98314,-0.0263 2.1105,-0.28846 3.0805,-0.73417 0.97001,-0.44571 1.78275,-1.07493 2.4775,-1.99251 0.69474,-0.91758 1.27153,-2.1236 1.7959,-3.56559 0.52437,-1.44198 0.99629,-3.11991 1.49444,-4.85033 0.49815,-1.73042 1.02251,-3.51323 1.31092,-4.57505 0.2884,-1.06182 0.34084,-1.40265 0.51138,-1.59941 0.17055,-0.19677 0.45895,-0.2492 0.73419,0.0787 0.27525,0.32791 0.53743,1.03579 0.68158,1.95342 0.14415,0.91763 0.17038,2.04499 0.27528,3.53945 0.10489,1.49446 0.28841,3.35592 0.58997,4.83728 0.30157,1.48135 0.72105,2.58249 1.19299,3.76233 0.47193,1.17983 0.99629,2.43828 1.66494,3.42143 0.66864,0.98314 1.48139,1.69101 2.31379,1.97271 0.8324,0.28171 1.68427,0.13756 2.53636,-0.007 0,0 0,0 0,0 0.55624,-0.56369 1.08209,-1.09658 1.46345,-1.76702 0.38136,-0.67043 0.56328,-1.44157 0.78634,-1.45273 0.22305,-0.0112 0.59139,0.69827 1.18315,1.4792 0.59177,0.78094 1.26923,1.47282 2.23771,1.93558 0.96849,0.46276 2.33932,0.70951 3.40113,0.77501 1.06181,0.0655 1.87455,-0.0394 2.6217,-0.32777 0.74714,-0.28841 1.4288,-0.76033 2.12359,-1.25848 0.69478,-0.49815 1.40266,-1.0225 1.95325,-1.41578 0.5506,-0.39328 0.94386,-0.65546 1.311,-0.81276 0.36714,-0.15731 0.70796,-0.20975 1.17995,-0.0786 0.47198,0.13119 1.07499,0.44581 1.74355,0.66861 0.66857,0.2228 1.40266,0.35388 2.16298,0.43252 0.76033,0.0786 1.54686,0.10488 2.33328,-0.23597 0.78643,-0.34086 1.57296,-1.04873 1.9138,-2.00556 0.34084,-0.95683 0.23597,-2.16284 0.15731,-3.0936 -0.0787,-0.93075 -0.13109,-1.58619 0.0918,-2.05829 0.22289,-0.47209 0.72103,-0.76049 1.23239,-0.6948 0.51136,0.0657 1.03571,0.48517 1.54693,1.07513 0.51122,0.58995 1.00935,1.35026 1.54682,2.25481 0.53746,0.90454 1.11426,1.95325 1.71729,3.0151 0.60303,1.06185 1.23225,2.13677 1.7829,2.81838 0.55065,0.68162 1.02257,0.97002 1.74357,1.12724 0.72099,0.15723 1.69104,0.18346 2.56925,-0.0656 0.87822,-0.2491 1.66475,-0.77345 2.13662,-1.2846 0.47187,-0.51116 0.62918,-1.0093 0.66854,-1.67782 0.0394,-0.66851 -0.0393,-1.50747 -0.31449,-2.25469 -0.2752,-0.74723 -0.74711,-1.40266 -1.46168,-2.3125 -0.71457,-0.90983 -1.69749,-2.10527 -2.43164,-3.15399 -0.73414,-1.04873 -1.23228,-1.96635 -1.50765,-2.8578 -0.27537,-0.89145 -0.32781,-1.75663 -0.0788,-2.55641 0.24905,-0.79978 0.79962,-1.53387 1.35024,-2.13693 0.55062,-0.60305 1.10118,-1.07497 1.66498,-1.33715 0.56381,-0.26219 1.1406,-0.31462 1.71742,-0.0261 0.57682,0.28855 1.15361,0.91777 1.66482,1.69124 0.51121,0.77347 0.95691,1.69109 1.40261,2.75294 0.44569,1.06185 0.89139,2.26787 1.2191,3.29039 0.32771,1.02252 0.53744,1.86148 0.77343,2.63493 0.23599,0.77345 0.49817,1.48133 0.56364,2.28094 0.0655,0.79962 -0.0656,1.69102 -0.31471,2.84461 -0.24908,1.1536 -0.61613,2.56936 -0.85209,3.55255 -0.23596,0.9832 -0.34084,1.53378 -0.28832,2.11064 0.0525,0.57687 0.26226,1.17987 0.90472,1.69104 0.64246,0.51116 1.71738,0.93064 2.9496,1.03543 1.23223,0.1048 2.62177,-0.10495 3.88022,-0.41958 1.25845,-0.31464 2.38581,-0.73412 3.15916,-1.52058 0.77334,-0.78646 1.19282,-1.94002 1.20601,-3.04112 0.0132,-1.10109 -0.38008,-2.1498 -0.70783,-3.18543 -0.32775,-1.03563 -0.58992,-2.05812 -0.64241,-3.15935 -0.0525,-1.10122 0.10481,-2.28102 0.36698,-3.38223 0.26217,-1.1012 0.62922,-2.12369 1.02252,-2.85789 0.39331,-0.73419 0.81279,-1.17989 1.21931,-1.41587 0.40652,-0.23598 0.79977,-0.26221 1.16675,0.32786 0.36698,0.59008 0.70781,1.7961 0.94375,2.96281 0.23594,1.16671 0.36702,2.29407 0.53747,3.25105 0.17045,0.95699 0.38019,1.74352 0.77351,2.64806 0.39333,0.90454 0.97012,1.92703 1.67808,2.75286 0.70796,0.82583 1.54692,1.45505 2.77921,2.08425 1.23229,0.6292 2.85778,1.25842 4.37839,1.40253 1.5206,0.14411 2.93636,-0.19671 4.14239,-0.56378 1.20602,-0.36706 2.20228,-0.76033 3.01508,-1.03562 0.8128,-0.27529 1.44203,-0.43259 2.11066,-0.39319 0.66862,0.0394 1.37652,0.27537 2.25484,0.59 0.87832,0.31463 1.92703,0.7079 3.02966,0.9702 1.10262,0.26231 2.25327,0.39306 3.61663,0.47171 1.36335,0.0786 2.9364,0.10488 4.57506,0.1311 1.63866,0.0262 3.34281,0.0524 5.23052,-0.0787 1.8877,-0.13112 3.95891,-0.41951 6.03012,-1.04877 2.07121,-0.62926 4.14239,-1.59931 5.9383,-2.87088 1.7959,-1.27157 3.31652,-2.84463 4.37835,-4.60119 1.06182,-1.75657 1.66483,-3.69667 1.99258,-5.68923 0.32775,-1.99257 0.38018,-4.03755 0.27533,-5.88593 -0.10485,-1.84838 -0.36702,-3.50009 -0.86504,-4.54888 -0.49803,-1.04879 -1.23212,-1.49448 -2.18913,-1.67811 -0.95702,-0.18363 -2.1368,-0.10498 -3.31674,0.39317 -1.17993,0.49814 -2.35973,1.41576 -3.35607,2.38588 -0.99633,0.97012 -1.80908,1.9926 -2.66118,3.1069 -0.8521,1.11429 -1.74351,2.32031 -2.30721,3.18556 -0.56371,0.86524 -0.79966,1.38959 -0.81265,1.8354 -0.013,0.4458 0.19675,0.81286 0.65564,1.10115 0.4589,0.28829 1.16677,0.49803 1.87463,0.5504 0.70785,0.0524 1.41573,-0.0525 2.07119,-0.15737 0.65546,-0.10487 1.25844,-0.20974 1.59922,-0.0916 0.34077,0.11815 0.41942,0.45898 0.41937,0.90466 -5e-5,0.44567 -0.0787,0.99624 -0.24913,1.76966 -0.17043,0.77343 -0.43261,1.76971 -0.81277,2.5824 -0.38016,0.8127 -0.87829,1.44192 -1.78275,1.99246 -0.90445,0.55055 -2.21534,1.02247 -3.69663,1.28467 -1.4813,0.26221 -3.13301,0.31465 -4.44391,0.26224 -1.3109,-0.0524 -2.28095,-0.20972 -2.93647,-0.58976 -0.65553,-0.38004 -0.99635,-0.98304 -0.89159,-2.14985 0.10476,-1.1668 0.65534,-2.89717 1.33702,-5.07331 0.68168,-2.17613 1.49443,-4.7979 3.02821,-8.73071 1.53379,-3.93281 3.78851,-9.17634 5.54515,-13.22708 1.75663,-4.05075 3.01508,-6.90848 4.29979,-9.59588 1.2847,-2.6874 2.59559,-5.20431 3.43458,-6.9347 0.83899,-1.73039 1.20604,-2.67423 1.23241,-3.2903 0.0264,-0.61608 -0.28824,-0.90447 -0.74704,-1.08811 -0.45881,-0.18363 -1.06182,-0.26229 -2.22863,0.0261 -1.16681,0.28836 -2.89719,0.9438 -5.12578,1.927 -2.22858,0.98319 -4.95522,2.29408 -6.62002,2.96265 -1.66479,0.66858 -2.2678,0.69478 -2.64803,0.51141 -0.38022,-0.18338 -0.53753,-0.57664 -0.65556,-1.08792 -0.11803,-0.51127 -0.19668,-1.14049 -0.41942,-1.63866 -0.22275,-0.49816 -0.58979,-0.86521 -0.98306,-1.06198 -0.39328,-0.19677 -0.81274,-0.223 -1.61248,-0.0395 -0.79974,0.18349 -1.97952,0.57675 -2.8909,1.1848 -0.91138,0.60805 -1.57953,1.46328 -2.15635,2.52518 -0.57682,1.0619 -1.07497,2.34658 -1.4158,3.60511 -0.34083,1.25854 -0.52435,2.49077 -0.44558,3.38225 0.0788,0.89147 0.41961,1.44203 1.04892,1.86141 0.62931,0.41939 1.54691,0.70777 2.67419,0.43241 1.12729,-0.27537 2.46438,-1.11432 3.65734,-1.82222 1.19295,-0.70791 2.24165,-1.2847 3.23796,-1.80908 0.9963,-0.52437 1.94015,-0.9963 2.66123,-1.23223 0.72109,-0.23594 1.27166,-0.23594 1.7174,-0.13097 0.44574,0.10496 0.81277,0.3147 0.89124,0.72108 0.0785,0.40637 -0.13127,1.00937 -0.57698,2.01877 -0.44572,1.00939 -1.12738,2.42516 -2.04503,4.22112 -0.91765,1.79597 -2.07122,3.97203 -3.09374,6.13507 -1.02252,2.16305 -1.91392,4.3129 -2.60871,6.04332 -0.69478,1.73042 -1.19293,3.04131 -1.75663,4.64064 -0.56369,1.59934 -1.19292,3.48701 -1.71729,5.06012 -0.52437,1.5731 -0.94384,2.83155 -1.324,3.68359 -0.38015,0.85203 -0.72098,1.29774 -1.37629,1.1143 -0.65531,-0.18343 -1.62537,-0.99619 -2.43824,-2.55615 -0.81287,-1.55997 -1.46831,-3.86713 -1.84851,-6.51522 -0.38021,-2.64809 -0.48508,-5.6369 -0.44576,-9.04532 0.0393,-3.40842 0.22284,-7.2362 0.32773,-9.9498 0.10488,-2.7136 0.13111,-4.31288 -0.11785,-5.45336 -0.24895,-1.14048 -0.77331,-1.82214 -1.55984,-2.17624 -0.78652,-0.3541 -1.83525,-0.38033 -2.77921,-0.15751 -0.94395,0.22283 -1.78291,0.69475 -2.51709,1.33715 -0.73417,0.6424 -1.3634,1.45515 -1.70423,2.49089 -0.34082,1.03574 -0.39325,2.29418 -0.40636,3.74932 -0.0131,1.45513 0.0131,3.10685 0.0655,4.69307 0.0524,1.58622 0.13109,3.10685 0.26222,4.22115 0.13113,1.11429 0.31465,1.82218 0.17043,2.33326 -0.14421,0.51108 -0.61613,0.82569 -1.07485,0.74719 -0.45873,-0.0785 -0.90443,-0.55041 -1.3895,-1.17965 -0.48507,-0.62923 -1.00943,-1.41575 -1.67795,-1.8616 -0.66853,-0.44585 -1.48128,-0.55072 -2.21544,-0.53765 -0.73415,0.0131 -1.38961,0.14416 -2.04516,0.48502 -0.65555,0.34085 -1.31098,0.89141 -1.84285,1.52394 -0.53187,0.63252 -0.96265,1.38638 -1.56557,1.88446 -0.60293,0.49808 -1.38946,0.76026 -2.41194,0.97002 -1.02249,0.20976 -2.28095,0.36707 -3.23801,0.66858 -0.95705,0.30151 -1.61248,0.7472 -2.03203,1.35034 -0.41954,0.60315 -0.60307,1.36345 -0.69482,2.04518 -0.0917,0.68172 -0.0917,1.28472 -0.1442,1.71726 -0.0525,0.43254 -0.15734,0.69472 -0.40623,0.74715 -0.24889,0.0524 -0.64216,-0.10488 -1.15347,-0.64227 -0.51132,-0.53739 -1.14054,-1.45502 -1.8222,-2.34646 -0.68167,-0.89143 -1.41577,-1.75662 -2.30716,-2.33352 -0.8914,-0.5769 -1.9401,-0.86529 -2.97579,-0.91779 -1.03568,-0.0525 -2.05816,0.13103 -2.87101,0.43254 -0.81285,0.30152 -1.41587,0.721 -2.1237,1.03561 -0.70783,0.31461 -1.52057,0.52435 -1.90188,0.31467 -0.38132,-0.20969 -0.3268,-0.89119 -0.1695,-1.73021 0.1573,-0.83902 0.41948,-1.86151 1.68858,-4.71423 1.2691,-2.85272 3.55505,-7.55599 5.41656,-10.99062 1.86152,-3.43464 3.30349,-5.61071 4.56197,-7.56398 1.25848,-1.95326 2.33341,-3.68364 2.88401,-4.86337 0.55061,-1.17973 0.57685,-1.80896 0.22306,-2.24164 -0.35379,-0.43268 -1.08788,-0.66863 -2.17603,-0.56383 -1.08815,0.1048 -2.53012,0.5505 -3.84112,1.35019 -1.311,0.7997 -2.4908,1.95328 -3.61821,3.46088 -1.12742,1.50761 -2.20235,3.36907 -2.96269,4.85043 -0.76034,1.48137 -1.20604,2.58251 -2.03192,4.26048 -0.82588,1.67797 -2.0319,3.93269 -2.94953,5.50577 -0.91764,1.57308 -1.54687,2.46448 -2.01863,2.7923 -0.47176,0.32781 -0.78638,0.0918 -0.95695,-0.87823 -0.17057,-0.97007 -0.1968,-2.67422 -0.15749,-4.70616 0.0393,-2.03194 0.14419,-4.39153 0.43257,-6.4235 0.28839,-2.03197 0.76031,-3.73612 1.07493,-4.96837 0.31463,-1.23225 0.47193,-1.99256 0.32785,-2.6873 -0.14407,-0.69474 -0.58977,-1.32396 -1.20589,-1.62564 -0.61611,-0.30167 -1.40264,-0.27547 -2.18926,-0.0789 -0.78663,0.19661 -1.57316,0.56366 -2.32042,1.03561 -0.74727,0.47194 -1.45515,1.04873 -1.91315,1.72726 -0.45799,0.67852 -0.66947,1.47158 -1.02342,3.38556 -0.35394,1.91398 -0.85207,4.95524 -1.12735,7.11828 -0.27528,2.16303 -0.32772,3.44769 -0.34082,4.79794 -0.0131,1.35025 0.0131,2.76601 0.18362,3.98519 0.17047,1.21918 0.48509,2.24167 0.86524,3.86722 0.38015,1.62555 0.82584,3.85405 1.23224,5.6238 0.4064,1.76975 0.77345,3.08063 0.95694,4.09002 0.18348,1.00938 0.18348,1.7697 0.0262,2.37262 -0.15734,0.60292 -0.47195,1.07483 -0.93062,1.02249 -0.45866,-0.0523 -1.06167,-0.62913 -1.58613,-1.74339 -0.52446,-1.11426 -0.97017,-2.76598 -1.46831,-4.50951 -0.49815,-1.74353 -1.04872,-3.57877 -1.59921,-4.6931 -0.55048,-1.11432 -1.10105,-1.50759 -1.8745,-1.78297 -0.77345,-0.27538 -1.76972,-0.43268 -2.80536,-0.55068 -1.03564,-0.11799 -2.11056,-0.19665 -3.15928,-0.43256 -1.04873,-0.23592 -2.07122,-0.62918 -3.38215,-1.21908 -1.31093,-0.58991 -2.91021,-1.37644 -4.16875,-1.65183 -1.25855,-0.27539 -2.17617,-0.0394 -2.93421,0.35387 -0.75804,0.39329 -1.35626,0.94386 -1.90581,2.00581 -0.54956,1.06196 -1.05031,2.635 -1.54595,3.06318 -0.49564,0.42819 -0.98638,-0.2887 -1.9837,-0.76077 -0.99732,-0.47206 -2.5013,-0.69903 -3.46303,-0.86494 -0.96173,-0.16591 -1.38121,-0.27078 -1.60423,-0.84749 -0.22302,-0.57671 -0.24925,-1.62542 -0.19683,-2.77906 0.0524,-1.15363 0.1835,-2.41208 0.24906,-4.22114 0.0656,-1.80907 0.0656,-4.16866 -0.0786,-5.92527 -0.14417,-1.75661 -0.43256,-2.91018 -0.73404,-3.82783 -0.30148,-0.91764 -0.61609,-1.59929 -1.10107,-1.9665 -0.48497,-0.3672 -1.14041,-0.41964 -2.08439,-0.0657 -0.94397,0.35392 -2.1762,1.11423 -3.592,1.94011 -1.41579,0.82588 -3.01507,1.71728 -4.74547,2.56938 -1.7304,0.8521 -3.59186,1.66485 -4.94207,2.16301 -1.35021,0.49816 -2.18918,0.68169 -2.80536,0.0788 -0.61619,-0.60286 -1.00945,-1.99241 -1.24545,-3.21159 -0.236,-1.21917 -0.31466,-2.26788 -0.20249,-3.0449 0.11217,-0.77702 0.43835,-1.32065 0.93654,-1.84507 0.4982,-0.52443 1.17986,-1.04877 1.55999,-1.55991 0.38013,-0.51113 0.45878,-1.00928 0.27538,-1.55982 -0.18341,-0.55055 -0.62911,-1.15356 -1.48118,-1.53386 -0.85207,-0.38029 -2.11051,-0.5376 -3.56566,-0.59005 -1.45515,-0.0525 -3.10687,-2e-5 -4.66689,0.18349 -1.56002,0.18351 -3.02822,0.49812 -4.06394,0.95697 -1.03573,0.45884 -1.63873,1.06185 -1.9927,1.59943 -0.35397,0.53757 -0.45884,1.00949 -0.20959,1.46833 0.24925,0.45883 0.85225,0.90453 1.4815,1.19286 0.62925,0.28832 1.28469,0.41941 1.75662,0.58991 0.47192,0.17049 0.76032,0.38023 0.96995,0.77356 0.20963,0.39332 0.34072,0.97012 0.47179,1.88775 0.13108,0.91764 0.26217,2.17609 0.38015,3.22483 0.11799,1.04874 0.22286,1.88771 0.24905,2.53003 0.0262,0.64232 -0.0263,1.08802 -0.28837,1.42872 -0.26213,0.3407 -0.73404,0.57665 -1.58608,0.76019 -0.85204,0.18355 -2.08427,0.31463 -3.68359,0.38019 -1.59932,0.0656 -3.56564,0.0656 -5.47957,-0.15726 -1.91392,-0.22282 -3.77538,-0.66852 -5.03387,-1.15348 -1.2585,-0.48496 -1.91393,-1.0093 -2.26797,-1.3501 -0.35405,-0.34081 -0.40648,-0.49811 -0.28856,-0.77355 0.11791,-0.27544 0.4063,-0.6687 0.97003,-1.21932 0.56373,-0.55062 1.4027,-1.25851 2.04502,-1.91393 0.64232,-0.65543 1.08803,-1.25844 1.27159,-1.90067 0.18356,-0.64222 0.1049,-1.32389 -0.24891,-1.84831 -0.35381,-0.52442 -0.98304,-0.89147 -1.7959,-0.89159 -0.81286,-1.1e-4 -1.80913,0.36694 -2.71372,0.89133 -0.9046,0.52438 -1.71735,1.20604 -2.34661,1.78286 -0.62925,0.57682 -1.07496,1.04874 -1.45496,1.23231 -0.38001,0.18358 -0.69462,0.0787 -1.10102,-0.1572 -0.4064,-0.23591 -0.90453,-0.60295 -1.46822,-0.93072 -0.56369,-0.32777 -1.19291,-0.61616 -2.0058,-0.72212 -0.81288,-0.10596 -1.86144,-0.0253 -2.8185,0.2762 -0.95706,0.3015 -1.84845,0.82585 -2.35977,1.40278 -0.51132,0.57693 -0.64241,1.20616 -0.53742,1.79613 0.10499,0.58997 0.44583,1.14054 0.9178,1.73044 0.47196,0.5899 1.07496,1.21912 1.63864,1.90081 0.56367,0.6817 1.08803,1.4158 1.80901,2.66119 0.72099,1.24539 1.63861,3.00197 2.41202,4.83727 0.77342,1.83529 1.40264,3.74918 1.75655,5.15185 0.35391,1.40267 0.43256,2.29407 0.43253,2.91016 -4e-5,0.61608 -0.0787,0.95692 -0.27478,1.15575 -0.1961,0.19882 -0.45912,0.24665 -0.98345,-0.0678 -0.52434,-0.31448 -1.28465,-0.99614 -2.16301,-2.03175 -0.87835,-1.03561 -1.87462,-2.42514 -2.68737,-3.44768 -0.81275,-1.02253 -1.44198,-1.67797 -2.28098,-1.95341 -0.839,-0.27544 -1.88771,-0.17057 -2.83167,0.17027 -0.94395,0.34083 -1.78292,0.91762 -2.51709,1.76979 -0.73417,0.85217 -1.3634,1.97953 -1.84844,3.12007 -0.48503,1.14054 -0.82586,2.29413 -0.95692,3.39536 -0.13105,1.10123 -0.0524,2.14994 0.0525,3.17246 0.10488,1.02253 0.23597,2.0188 0.18348,2.80527 -0.0525,0.78648 -0.28844,1.36327 -0.93069,1.822 -0.64225,0.45873 -1.69095,0.79956 -2.6742,1.2715 -0.98324,0.47194 -1.90086,1.07494 -2.47772,1.75673 -0.57686,0.68178 -0.81282,1.44209 -1.12738,1.94014 -0.31455,0.49804 -0.70782,0.734 -1.49426,0.6161 -0.78643,-0.1179 -1.96624,-0.58982 -2.85769,-1.15344 -0.89146,-0.56363 -1.49447,-1.21907 -1.76999,-1.86036 -0.27551,-0.64129 -0.2229,-1.27267 0.44579,-1.73164 0.66868,-0.45896 1.95335,-0.74735 3.22491,-1.17997 1.27155,-0.43261 2.53,-1.0094 3.53939,-1.54687 1.00938,-0.53748 1.76969,-1.03561 2.50376,-1.75658 0.73407,-0.72097 1.44195,-1.6648 1.92698,-2.75279 0.48504,-1.088 0.74721,-2.32023 0.8259,-3.4738 0.0787,-1.15357 -0.0262,-2.22849 -0.30144,-3.47385 -0.27526,-1.24537 -0.72096,-2.66113 -1.29773,-3.99827 -0.57677,-1.33714 -1.28464,-2.59559 -2.17603,-3.74923 -0.89138,-1.15364 -1.96631,-2.20234 -3.17235,-2.80547 -1.20604,-0.60314 -2.54314,-0.76045 -3.6575,-0.68183 -1.11435,0.0786 -2.00575,0.39322 -2.96279,0.99627 -0.95705,0.60305 -1.97954,1.49445 -2.83166,2.42524 -0.85213,0.93079 -1.53379,1.90084 -2.05817,2.92341 -0.52437,1.02258 -0.89142,2.0975 -1.20604,3.05448 -0.31462,0.95698 -0.5768,1.79595 -0.79965,2.66118 -0.22285,0.86523 -0.40638,1.75663 -0.72095,2.35953 -0.31457,0.6029 -0.76027,0.91751 -1.33695,0.95691 -0.57668,0.0394 -1.28456,-0.19656 -1.95314,-0.55046 -0.66858,-0.35389 -1.2978,-0.82581 -1.75673,-1.55988 -0.45892,-0.73407 -0.74732,-1.73035 -0.9571,-2.9233 -0.20978,-1.19296 -0.34086,-2.5825 -0.69474,-3.82786 -0.35388,-1.24536 -0.93068,-2.34651 -1.79583,-3.43461 -0.86516,-1.08809 -2.01874,-2.16302 -3.34276,-2.8579 -1.32402,-0.69488 -2.81843,-1.00949 -4.23432,-0.85223 -1.41589,0.15725 -2.753,0.78648 -3.82801,1.4944 -1.075,0.70793 -1.88776,1.49446 -2.58257,2.35971 -0.69481,0.86525 -1.2716,1.80908 -1.76976,3.04141 -0.49815,1.23232 -0.91763,2.75294 -1.219137,3.97212 -0.301508,1.21917 -0.485032,2.13679 -0.721003,2.85774 -0.235972,0.72095 -0.524366,1.2453 -0.812652,1.54674 -0.288286,0.30144 -0.576688,0.3801 -1.153428,0.26219 -0.57674,-0.1179 -1.441923,-0.43251 -2.333395,-0.53746 -0.891472,-0.10494 -1.809089,-7e-5 -2.621947,0.28833 -0.812857,0.2884 -1.520737,0.76031 -2.032045,1.2323 -0.511307,0.47198 -0.825919,0.9439 -0.812719,1.57327 0.0132,0.62938 0.354032,1.41591 0.826051,1.99265 0.472019,0.57674 1.075027,0.94379 1.428878,1.27158 0.35385,0.32779 0.458723,0.61619 0.406202,0.93069 -0.05252,0.3145 -0.262262,0.65533 -0.734081,0.91745 -0.47182,0.26213 -1.205913,0.44565 -2.097323,0.60297 -0.89141,0.15732 -1.940117,0.28841 -2.792177,0.13122 -0.852061,-0.1572 -1.507508,-0.60291 -2.608724,-1.80892 -1.101216,-1.20601 -2.648062,-3.17234 -5.099514,-6.77739 -2.451453,-3.60505 -5.807318,-8.84859 -7.865477,-12.24386 -2.058159,-3.39527 -2.818475,-4.94212 -3.3691,-6.41035 -0.550625,-1.46823 -0.891455,-2.85777 -0.983278,-3.86725 -0.09182,-1.00947 0.06548,-1.63869 0.498186,-2.08452 0.432706,-0.44584 1.140584,-0.70801 2.097628,-0.79974 0.957044,-0.0917 2.163058,-0.0131 3.644404,0.0787 1.481346,0.0918 3.237933,0.19663 5.427183,0.36706 2.18925,0.17042 4.81102,0.40638 6.724951,0.52435 1.913931,0.11797 3.119947,0.11797 3.94585,0.18356 0.825903,0.0656 1.271605,0.19669 1.507418,0.55073 0.235814,0.35404 0.262033,0.93083 0.05225,1.61242 -0.209781,0.68159 -0.655481,1.46812 -1.318623,2.69017 -0.663141,1.22205 -1.565409,2.92044 -2.273305,4.55912 -0.707896,1.63869 -1.232251,3.23797 -1.468181,4.52273 -0.235931,1.28476 -0.183496,2.25481 0.118113,3.15937 0.301609,0.90455 0.852178,1.74351 1.56013,2.46447 0.707953,0.72096 1.573132,1.32397 2.63496,1.59915 1.061828,0.27518 2.320276,0.22275 3.342702,-0.0526 1.022427,-0.27531 1.808958,-0.77345 2.28083,-1.35014 0.471872,-0.57668 0.629178,-1.23212 0.707855,-1.55995 0.07868,-0.32782 0.07861,-0.32777 -0.288341,-0.8782 z"
         id="path7831"
         sodipodi:nodetypes="ccccccccccccccccccccccccccccccccccccccccccccccccccccccccccccccccccccccccccccccccccccccccccccccccccccccccccccccccccccccccccccccccccccccccccccccccccccccccccccccccccccccccccccccccccccccccccccccccccccccccccccccccccccccccccccccccccccccccccccccccccccccccccccccccccccccccccccccccccccccccccccccccccccccccccccccccccccccccccccccccccccccccccccccccccccccccccccccccccccccccccccccccccccccccccccccccccccccccccccccccccccccccccccccccccccccccccccccccccccccccccccccccccccccccccccccccccccccccccccccccccccccccccccccc" /><path
         style="opacity:1;fill:#000000;fill-opacity:1;stroke:#000000;stroke-width:0.448;stroke-linecap:round;stroke-linejoin:round;stroke-dasharray:none;paint-order:fill markers stroke"
         d="m 275.25198,146.29767 c 0.47677,0.13469 0.95386,0.26948 1.5634,0.29564 0.60953,0.0262 1.47691,-0.0699 2.24344,-0.23495 0.76652,-0.16503 2.0531,-0.53263 2.95759,-0.92591 0.90448,-0.39327 1.61235,-0.86518 2.21533,-1.40263 0.60299,-0.53744 1.10113,-1.14045 1.29785,-1.5598 0.19672,-0.41935 0.0918,-0.65531 -0.13092,-0.83893 -0.22277,-0.18363 -0.56361,-0.31472 -0.97001,-0.40653 -0.4064,-0.0918 -0.87833,-0.14424 -1.29788,-0.51116 -0.41954,-0.36692 -0.78659,-1.04859 -0.99641,-1.66473 -0.20982,-0.61615 -0.26226,-1.16673 -0.47189,-1.62556 -0.20963,-0.45883 -0.57668,-0.82589 -1.14036,-1.10127 -0.56367,-0.27539 -1.32398,-0.45891 -1.94024,-0.40653 -0.61625,0.0524 -1.08816,0.34077 -1.41595,0.79971 -0.3278,0.45893 -0.51132,1.08816 -0.73416,1.5469 -0.22284,0.45875 -0.48501,0.74714 -0.81262,0.90444 -0.3276,0.1573 -0.72087,0.18353 -1.17969,0.19666 -0.45882,0.0131 -0.98317,0.0131 -1.49442,1e-5 -0.51125,-0.0131 -1.00938,-0.0393 -1.33724,0.0131 -0.32786,0.0524 -0.48516,0.1835 -0.65562,0.39329 -0.17046,0.2098 -0.35397,0.49819 -0.43258,0.76049 -0.0786,0.2623 -0.0524,0.49825 0.10501,0.86532 0.15739,0.36708 0.44579,0.86522 0.83908,1.45513 0.39329,0.5899 0.89144,1.27157 1.35684,1.77623 0.46541,0.50465 0.8977,0.83214 1.33028,1.15985 0,0 1.10117,0.51126 1.10117,0.51126 z"
         id="path8926"
         sodipodi:nodetypes="cccccccccccccccccccccccccc" /></g><g
       id="g9014"
       style="fill:#ffffff;fill-opacity:1;stroke:#000000"
       transform="translate(-9.788635,-56.062182)"><path
         style="opacity:1;fill:#ffffff;fill-opacity:1;stroke:#000000;stroke-width:0.448;stroke-linecap:round;stroke-linejoin:round;stroke-dasharray:none;paint-order:fill markers stroke"
         d="m 105.04258,152.30804 c 0.29679,0.60249 0.9642,1.01035 1.68718,1.14928 0.72298,0.13893 1.50161,0.009 2.28946,-0.28748 0.78786,-0.29663 1.58502,-0.7601 2.08551,-1.40886 0.5005,-0.64876 0.70442,-1.483 0.68595,-2.32647 -0.0185,-0.84348 -0.25948,-1.69626 -0.5283,-2.59541 -0.26881,-0.89916 -0.56543,-1.84463 -0.91764,-2.68817 -0.3522,-0.84353 -0.76006,-1.58508 -1.15859,-2.07643 -0.39852,-0.49135 -0.78783,-0.73235 -1.1217,-0.68608 -0.33387,0.0463 -0.61195,0.37996 -0.93641,1.04744 -0.32445,0.66747 -0.69523,1.66856 -1.01966,2.65211 -0.32444,0.98354 -0.60252,1.94945 -0.79717,2.78374 -0.19465,0.83428 -0.30589,1.53686 -0.39858,2.28676 -0.0927,0.7499 -0.16685,1.54707 0.12995,2.14957 z"
         id="path8906" /><path
         style="opacity:1;fill:#ffffff;fill-opacity:1;stroke:#000000;stroke-width:0.448;stroke-linecap:round;stroke-linejoin:round;stroke-dasharray:none;paint-order:fill markers stroke"
         d="m 134.33586,154.26145 c 0.49156,-0.0197 1.09458,-0.0984 1.63195,-0.37363 0.53736,-0.27528 1.00928,-0.7472 1.40909,-1.36982 0.3998,-0.62263 0.72752,-1.39606 0.8652,-2.11698 0.13768,-0.72093 0.0853,-1.38948 -0.0917,-2.20879 -0.17694,-0.81932 -0.47844,-1.78937 -0.81926,-2.73979 -0.34083,-0.95041 -0.72099,-1.88114 -1.04865,-2.4973 -0.32767,-0.61615 -0.60296,-0.91766 -0.85857,-1.08819 -0.25561,-0.17053 -0.49157,-0.20985 -0.77356,-0.0722 -0.28199,0.13762 -0.60971,0.45223 -0.98336,1.05531 -0.37364,0.60309 -0.79312,1.49449 -1.13396,2.40147 -0.34084,0.90697 -0.60302,1.8294 -0.81932,2.71428 -0.21629,0.88489 -0.38671,1.73216 -0.49813,2.45734 -0.11142,0.72518 -0.16385,1.32818 -0.13757,1.8067 0.0263,0.47852 0.13115,0.83246 0.30167,1.10116 0.17052,0.2687 0.40648,0.45222 0.70144,0.58323 0.29496,0.13101 0.6489,0.20966 1.01595,0.26864 0.36706,0.059 0.74721,0.0983 1.23877,0.0786 z"
         id="path8910" /><path
         style="opacity:1;fill:#ffffff;fill-opacity:1;stroke:#000000;stroke-width:0.448;stroke-linecap:round;stroke-linejoin:round;stroke-dasharray:none;paint-order:fill markers stroke"
         d="m 160.86214,156.85048 c -0.61613,0.0393 -1.29781,0.0918 -1.94013,-0.0917 -0.64232,-0.18341 -1.24533,-0.6029 -1.63867,-0.96991 -0.39333,-0.367 -0.57686,-0.68162 -0.95698,-0.85219 -0.38012,-0.17058 -0.95691,-0.19681 -1.27167,0.28834 -0.31477,0.48516 -0.36721,1.48144 -0.24917,2.43844 0.11804,0.957 0.40644,1.87462 0.64239,2.72672 0.23595,0.8521 0.41948,1.63863 0.6948,2.53006 0.27532,0.89143 0.64237,1.88771 1.16682,2.648 0.52446,0.76028 1.20612,1.28464 1.96645,1.54671 0.76032,0.26207 1.59928,0.26207 2.42516,0.23584 0.82587,-0.0262 1.63862,-0.0787 2.04488,-0.26205 0.40626,-0.18339 0.40626,-0.55044 0.35384,-1.25833 -0.0524,-0.7079 -0.1573,-1.78282 -0.24907,-2.93644 -0.0918,-1.15361 -0.17043,-2.38584 -0.38012,-3.42145 -0.2097,-1.03561 -0.55052,-1.87458 -0.99618,-2.28112 -0.44565,-0.40654 -0.99622,-0.38031 -1.61235,-0.34097 z"
         id="path8914" /><path
         style="opacity:1;fill:#ffffff;fill-opacity:1;stroke:#000000;stroke-width:0.448;stroke-linecap:round;stroke-linejoin:round;stroke-dasharray:none;paint-order:fill markers stroke"
         d="m 238.2984,168.12435 c 0.58981,-0.51119 1.05471,-1.29773 1.26098,-1.97931 0.20627,-0.68158 0.15383,-1.25837 -0.27865,-1.92696 -0.43249,-0.66859 -1.24523,-1.4289 -1.95312,-2.00573 -0.70788,-0.57683 -1.31089,-0.9701 -1.91395,-1.12752 -0.60307,-0.15742 -1.20608,-0.0788 -1.6126,0.38016 -0.40652,0.45894 -0.61626,1.29791 -0.69488,2.17627 -0.0786,0.87836 -0.0262,1.79598 0.14429,2.62189 0.17047,0.8259 0.45886,1.56 0.98333,2.0187 0.52446,0.4587 1.28479,0.64222 2.02234,0.61593 0.73755,-0.0263 1.45245,-0.26224 2.04226,-0.77343 z"
         id="path8918" /><path
         style="opacity:1;fill:#ffffff;fill-opacity:1;stroke:#000000;stroke-width:0.448;stroke-linecap:round;stroke-linejoin:round;stroke-dasharray:none;paint-order:fill markers stroke"
         d="m 299.57325,169.31745 c 0.76005,0.0555 1.31622,-0.0928 1.77959,-0.44496 0.46336,-0.35219 0.83414,-0.90836 0.79714,-1.85373 -0.037,-0.94538 -0.48194,-2.28017 -0.98248,-3.54084 -0.50055,-1.26067 -1.05671,-2.44714 -1.70554,-3.50389 -0.64884,-1.05675 -1.39038,-1.98368 -2.18753,-2.6697 -0.79714,-0.68601 -1.64992,-1.13094 -2.3174,-1.27936 -0.66749,-0.14843 -1.14951,-1.2e-4 -1.44623,0.50059 -0.29673,0.5007 -0.40796,1.35348 -0.27812,2.41027 0.12984,1.05678 0.50061,2.31741 0.8714,3.57808 0.37079,1.26067 0.74156,2.5213 1.20511,3.55949 0.46354,1.0382 1.01969,1.8539 1.77985,2.39143 0.76016,0.53752 1.72417,0.79707 2.48421,0.85262 z"
         id="path8922" /><path
         style="opacity:1;fill:#ffffff;fill-opacity:1;stroke:#000000;stroke-width:0.448;stroke-linecap:round;stroke-linejoin:round;stroke-dasharray:none;paint-order:fill markers stroke"
         d="m 223.61516,152.59298 c 0.0787,0.66872 0.23598,2.00581 0.48511,3.1131 0.24913,1.10729 0.58998,1.98466 0.74722,2.65928 0.15724,0.67462 0.13101,1.14654 0.35403,1.47421 0.22301,0.32766 0.69494,0.51119 1.32405,0.35379 0.62912,-0.1574 1.41565,-0.65554 2.11039,-1.35028 0.69473,-0.69474 1.29774,-1.58614 2.07129,-2.17611 0.77355,-0.58997 1.71738,-0.87836 2.58263,-1.06187 0.86524,-0.18352 1.65177,-0.26217 2.54319,-0.38016 0.89142,-0.11799 1.8877,-0.2753 2.41194,-0.52425 0.52423,-0.24895 0.57667,-0.58978 0.52429,-1.07477 -0.0524,-0.48499 -0.20969,-1.11422 -0.55046,-1.80902 -0.34078,-0.6948 -0.86513,-1.4551 -1.42878,-2.04506 -0.56365,-0.58996 -1.16666,-1.00945 -1.80901,-1.29792 -0.64236,-0.28847 -1.32433,-0.44585 -2.006,-0.60316 0.44571,0.70789 0.89162,1.4161 0.9046,2.13699 0.013,0.7209 -0.4065,1.45499 -1.15364,2.03173 -0.74713,0.57674 -1.82205,0.99622 -2.77895,1.11426 -0.95689,0.11804 -1.79585,-0.0655 -2.506,-0.36693 -0.71016,-0.30144 -1.29142,-0.72091 -1.76337,-1.07486 -0.47194,-0.35394 -0.8345,-0.64234 -1.14781,-0.91761 -0.31331,-0.27527 -0.57735,-0.53745 -0.7348,-0.34691 -0.15746,0.19055 -0.20803,0.83375 -0.23331,1.1553 -0.0253,0.32154 -0.0253,0.32154 0.0534,0.99025 z"
         id="path9004"
         sodipodi:nodetypes="sccccccccccccccccccccccs" /></g></g></svg>
