<svg xmlns:inkscape="http://www.inkscape.org/namespaces/inkscape" xmlns:sodipodi="http://sodipodi.sourceforge.net/DTD/sodipodi-0.dtd" xmlns="http://www.w3.org/2000/svg" xmlns:svg="http://www.w3.org/2000/svg" width="300mm" height="300mm" viewBox="-1 -3 300 300" id="svg4415" sodipodi:docname="logo_lottie.svg" inkscape:version="1.2.1 (9c6d41e410, 2022-07-14)" xml:space="preserve" style=""><defs id="defs4412"><filter inkscape:collect="always" style="color-interpolation-filters:sRGB" id="filter6240" x="-0.0040447569" y="-0.0038646564" width="1.0080895" height="1.0084664"><feGaussianBlur inkscape:collect="always" stdDeviation="0.4929957" id="feGaussianBlur6242"></feGaussianBlur></filter></defs><g inkscape:label="Layer 1" inkscape:groupmode="layer" id="layer1"><g id="g8496" inkscape:path-effect="#path-effect8498;#path-effect8500" class="UnoptimicedTransforms"><path style="fill: none; fill-opacity: 0.784173; stroke: rgb(0, 0, 0); stroke-width: 1; stroke-linecap: round; stroke-linejoin: bevel; paint-order: normal;" d="m 148,61.048671 c -8.53027,8.892075 -24.2832,13.339323 -22.56195,28.539822 1.59277,-42.834414 -17.92163,-27.55593 -45.63601,-64.544194 M 148,61.048671 c 8.53027,8.892075 24.2832,13.339323 22.56195,28.539822 -1.59277,-42.834414 17.92163,-27.55593 45.63601,-64.544194 M 76.162042,102.52434 c 3.435628,11.83346 -0.589408,27.69953 13.435236,33.80913 -36.299306,-22.79659 -32.824951,1.74262 -78.714917,7.24985 M 76.162042,102.52434 C 88.12794,99.582942 99.855834,88.164129 112.15923,97.255025 74.267152,77.217197 97.255907,67.956473 79.080321,25.460984 M 76.162042,185.47566 c 11.965898,2.9414 23.693792,14.36021 35.997188,5.26932 -37.892078,20.03782 -14.903323,29.29855 -33.078909,71.79404 M 76.162042,185.47566 C 79.59767,173.6422 75.572634,157.77613 89.597278,151.66653 53.297972,174.46312 56.772327,149.92391 10.882361,144.41668 M 148,226.95133 c 8.53027,-8.89208 24.2832,-13.33932 22.56195,-28.53982 -1.59277,42.83441 17.92163,27.55593 45.63601,64.54419 M 148,226.95133 c -8.53027,-8.89208 -24.2832,-13.33932 -22.56195,-28.53982 1.59277,42.83441 -17.92163,27.55593 -45.63601,64.54419 m 140.03592,-77.48004 c -3.43563,-11.83346 0.58941,-27.69953 -13.43524,-33.80913 36.29931,22.79659 32.82495,-1.74262 78.71492,-7.24985 m -65.27968,41.05898 c -11.9659,2.9414 -23.69379,14.36021 -35.99719,5.26932 37.89208,20.03782 14.90332,29.29855 33.07891,71.79404 m 2.91828,-160.01468 c -11.9659,-2.941398 -23.69379,-14.360211 -35.99719,-5.269315 37.89208,-20.037828 14.90332,-29.298552 33.07891,-71.794041 m 2.91828,77.063356 c -3.43563,11.83346 0.58941,27.69953 -13.43524,33.80913 36.29931,-22.79659 32.82495,1.74262 78.71492,7.24985" id="path8481" sodipodi:nodetypes="ccc" inkscape:original-d="m 148,61.048671 c -8.53027,8.892075 -24.2832,13.339323 -22.56195,28.539822 1.59277,-42.834414 -17.92163,-27.55593 -45.63601,-64.544194" class="jLQqdvgU_0"></path><path style="fill: none; fill-opacity: 0.784173; stroke: rgb(0, 0, 0); stroke-width: 1; stroke-linecap: round; stroke-linejoin: bevel; paint-order: normal;" d="m 148,31.845132 c -3.82932,6.725362 -7.08552,12.221647 -14.90192,17.414241 -12.99934,8.635721 -11.86629,18.67934 -2.55367,25.888772 C 123.39999,57.248544 142.66822,54.372356 148,41.555844 146.16787,61.63738 133.67372,56.198299 137.66374,69.247454 M 148,31.845132 c 3.82932,6.725362 7.08552,12.221647 14.90192,17.414241 12.99934,8.635721 11.86629,18.67934 2.55367,25.888772 C 172.60001,57.248544 153.33178,54.372356 148,41.555844 c 1.83213,20.081536 14.32628,14.642455 10.33626,27.69161 M 50.871035,87.922566 c 3.909674,6.678969 7.041497,12.247064 7.630215,21.612564 0.979084,15.57562 10.243638,19.61618 21.143499,15.15593 C 60.57103,121.92851 67.714293,103.80363 59.280758,92.777922 75.755814,104.40536 64.798356,112.50607 78.094266,115.57519 M 50.871035,87.922566 c 7.738994,0.04639 14.127017,-0.02542 22.532135,-4.198321 13.978424,-6.939898 22.109928,-0.936838 23.697169,10.732843 -11.929299,-15.13705 -24.054266,0.111633 -37.819581,-1.679166 18.307186,8.454098 19.843878,-5.085695 29.149768,4.894341 M 50.871035,200.07743 c 7.738994,-0.0464 14.127017,0.0254 22.532135,4.19832 13.978424,6.9399 22.109928,0.93684 23.697169,-10.73284 -11.929299,15.13705 -24.054266,-0.11163 -37.819581,1.67917 18.307186,-8.4541 19.843878,5.08569 29.149768,-4.89434 m -37.559491,9.74969 c 3.909674,-6.67897 7.041497,-12.24706 7.630215,-21.61256 0.979084,-15.57562 10.243638,-19.61618 21.143499,-15.15593 -19.073719,2.76255 -11.930456,20.88743 -20.363991,31.91314 16.475056,-11.62744 5.517598,-19.72815 18.813508,-22.79727 M 148,256.15487 c 3.82932,-6.72536 7.08552,-12.22165 14.90192,-17.41424 12.99934,-8.63572 11.86629,-18.67934 2.55367,-25.88878 7.14442,17.89961 -12.12381,20.77579 -17.45559,33.59231 1.83213,-20.08154 14.32628,-14.64246 10.33626,-27.69161 M 148,256.15487 c -3.82932,-6.72536 -7.08552,-12.22165 -14.90192,-17.41424 -12.99934,-8.63572 -11.86629,-18.67934 -2.55367,-25.88878 -7.14442,17.89961 12.12381,20.77579 17.45559,33.59231 -1.83213,-20.08154 -14.32628,-14.64246 -10.33626,-27.69161 m 107.46522,-18.67512 c -3.90967,-6.67897 -7.04149,-12.24706 -7.63021,-21.61256 -0.97908,-15.57562 -10.24364,-19.61618 -21.1435,-15.15593 19.07372,2.76255 11.93046,20.88743 20.36399,31.91314 -16.47505,-11.62744 -5.5176,-19.72815 -18.81351,-22.79727 m 27.22323,27.65262 c -7.73899,-0.0464 -14.12701,0.0254 -22.53213,4.19832 -13.97842,6.9399 -22.10993,0.93684 -23.69717,-10.73284 11.9293,15.13705 24.05427,-0.11163 37.81958,1.67917 -18.30718,-8.4541 -19.84388,5.08569 -29.14977,-4.89434 M 245.12896,87.922566 c -7.73899,0.04639 -14.12701,-0.02542 -22.53213,-4.198321 -13.97842,-6.939898 -22.10993,-0.936838 -23.69717,10.732843 11.9293,-15.13705 24.05427,0.111633 37.81958,-1.679166 -18.30718,8.454098 -19.84388,-5.085695 -29.14977,4.894341 m 37.55949,-9.749697 c -3.90967,6.678969 -7.04149,12.247064 -7.63021,21.612564 -0.97908,15.57562 -10.24364,19.61618 -21.1435,15.15593 19.07372,-2.76255 11.93046,-20.88743 20.36399,-31.913138 -16.47505,11.627438 -5.5176,19.728148 -18.81351,22.797268" id="path8485" sodipodi:nodetypes="csccc" inkscape:original-d="m 148,31.845132 c -3.82932,6.725362 -7.08552,12.221647 -14.90192,17.414241 -12.99934,8.635721 -11.86629,18.67934 -2.55367,25.888772 C 123.39999,57.248544 142.66822,54.372356 148,41.555844 146.16787,61.63738 133.67372,56.198299 137.66374,69.247454" class="jLQqdvgU_1"></path><path style="fill: none; fill-opacity: 0.784173; stroke: rgb(0, 0, 0); stroke-width: 1; stroke-linecap: round; stroke-linejoin: bevel; paint-order: normal;" d="M 148,8.2831857 C 137.19236,30.202271 123.46475,30.18678 135.05974,47.608406 120.49086,27.438055 108.65296,55.889927 79.644343,24.876106 M 148,8.2831857 c 10.80764,21.9190853 24.53525,21.9035943 12.94026,39.3252203 14.56888,-20.170351 26.40678,8.281521 55.4154,-22.7323 M 30.465791,76.141593 c 13.578665,20.319233 6.701444,32.199947 27.58651,30.869207 -24.752476,2.53184 -6.031383,27.0097 -47.394448,36.62499 M 30.465791,76.141593 C 54.852096,77.741445 61.702485,65.84524 70.992561,84.597609 60.808965,61.895413 91.367958,65.869427 79.013512,25.240315 M 30.465791,211.85841 c 24.386305,-1.59985 31.236694,10.29635 40.52677,-8.45602 -10.183596,22.7022 20.375397,18.72818 8.020949,59.35729 M 30.465791,211.85841 C 44.044456,191.53917 37.167235,179.65846 58.052301,180.9892 33.299825,178.45736 52.020918,153.9795 10.657852,144.36421 M 148,279.71681 c 10.80764,-21.91908 24.53525,-21.90359 12.94026,-39.32522 14.56888,20.17035 26.40678,-8.28152 55.4154,22.7323 M 148,279.71681 c -10.80764,-21.91908 -24.53525,-21.90359 -12.94026,-39.32522 -14.56888,20.17035 -26.40678,-8.28152 -55.4154,22.7323 m 185.88987,-51.26548 c -13.57867,-20.31924 -6.70145,-32.19995 -27.58651,-30.86921 24.75248,-2.53184 6.03138,-27.0097 47.39445,-36.62499 m -19.80794,67.4942 c -24.38631,-1.59985 -31.2367,10.29635 -40.52677,-8.45602 10.1836,22.7022 -20.3754,18.72818 -8.02095,59.3573 M 265.53421,76.141593 c -24.38631,1.599852 -31.2367,-10.296353 -40.52677,8.456016 10.1836,-22.702196 -20.3754,-18.728182 -8.02095,-59.357291 m 48.54772,50.901275 c -13.57867,20.319233 -6.70145,32.199947 -27.58651,30.869207 24.75248,2.53184 6.03138,27.0097 47.39445,36.62499" id="path8489" sodipodi:nodetypes="ccc" inkscape:original-d="M 148,8.2831857 C 137.19236,30.202271 123.46475,30.18678 135.05974,47.608406 120.49086,27.438055 108.65296,55.889927 79.644343,24.876106" class="jLQqdvgU_2"></path></g><g id="g9046" inkscape:path-effect="#path-effect9048;#path-effect9050" class="UnoptimicedTransforms"><path style="fill: none; fill-opacity: 0.784173; stroke: rgb(0, 0, 0); stroke-width: 0.499999; stroke-linecap: round; stroke-linejoin: bevel; paint-order: normal;" d="m 136.91085,63.774485 h -7.39576 m 29.5914,0 h 7.39576 m -93.524159,49.716245 -3.69788,6.40491 m 14.7957,-25.6269 3.69788,-6.404916 m -3.70655,105.852416 3.69788,6.40492 m -14.7957,-25.6269 -3.69788,-6.40492 m 89.817609,56.13617 h 7.39576 m -29.5914,0 h -7.39576 m 93.52416,-49.71624 3.69788,-6.40491 m -14.7957,25.6269 -3.69788,6.40492 m 3.70655,-105.852423 -3.69788,-6.404916 m 14.7957,25.626899 3.69788,6.40492" id="path9007" inkscape:original-d="m 136.91085,63.774485 h -7.39576" class="jLQqdvgU_3"></path><path style="fill: none; fill-opacity: 0.784173; stroke: rgb(0, 0, 0); stroke-width: 0.499999; stroke-linecap: round; stroke-linejoin: bevel; paint-order: normal;" d="m 139.0558,59.640757 h -7.25615 m 25.16189,0 h 7.25615 m -93.747037,49.925523 -3.628075,6.28401 m 12.580945,-21.790833 3.628075,-6.28401 m -3.636745,106.150083 3.628075,6.28401 M 70.461983,178.4187 66.833908,172.13469 m 90.110292,56.22455 h 7.25615 m -25.16189,0 h -7.25615 m 93.74704,-49.92552 3.62807,-6.28401 m -12.58094,21.79083 -3.62808,6.28401 m 3.63675,-106.150076 -3.62808,-6.28401 m 12.58095,21.790836 3.62807,6.28401" id="path9009" inkscape:original-d="m 139.0558,59.640757 h -7.25615" class="jLQqdvgU_4"></path><path style="fill: none; fill-opacity: 0.784173; stroke: rgb(0, 0, 0); stroke-width: 0.499999; stroke-linecap: round; stroke-linejoin: bevel; paint-order: normal;" d="m 142.34951,56.299694 h -7.60797 m 18.92629,0 h 7.60797 m -92.051738,48.743616 -3.803985,6.5887 m 9.463145,-16.390648 3.803985,-6.588695 m -3.812655,104.090953 3.803985,6.5887 m -9.463145,-16.39065 -3.803985,-6.5887 m 88.239083,55.34734 h 7.60797 m -18.92629,0 h -7.60797 m 92.05174,-48.74362 3.80398,-6.5887 m -9.46314,16.39065 -3.80399,6.58869 m 3.81266,-104.090951 -3.80399,-6.588695 m 9.46315,16.390646 3.80398,6.5887" id="path9011" inkscape:original-d="m 142.34951,56.299694 h -7.60797" class="jLQqdvgU_5"></path><path style="fill: none; fill-opacity: 0.784173; stroke: rgb(0, 0, 0); stroke-width: 0.499999; stroke-linecap: round; stroke-linejoin: bevel; paint-order: normal;" d="m 137.449,67.632457 -8.38907,0.05866 m 29.50841,-0.05866 8.38907,0.05866 m -90.369142,47.262543 -4.143734,7.29448 M 87.147938,96.663778 91.393274,89.42796 m -4.254006,101.89325 4.245336,7.23581 m -14.805006,-25.5257 -4.143734,-7.29448 m 86.115136,54.6307 8.38907,-0.0587 m -29.50841,0.0587 -8.38907,-0.0587 m 90.36914,-47.26254 4.14374,-7.29448 m -14.70341,25.58436 -4.24533,7.23582 m 4.254,-101.893246 -4.24533,-7.235817 m 14.805,25.525703 4.14374,7.29448" id="path9031" sodipodi:nodetypes="cc" inkscape:original-d="m 137.449,67.632457 -8.38907,0.05866" class="jLQqdvgU_6"></path><path style="fill: none; fill-opacity: 0.784173; stroke: rgb(0, 0, 0); stroke-width: 0.499999; stroke-linecap: round; stroke-linejoin: bevel; paint-order: normal;" d="m 134.63309,71.152346 h -5.39716 m 32.14832,0 h 5.39716 m -88.552784,47.999914 -2.69858,4.67407 m 16.07416,-27.841258 2.69858,-4.674077 m -2.70725,100.688915 2.69858,4.67408 m -16.07416,-27.84126 -2.69858,-4.67408 m 85.845534,52.689 h 5.39716 m -32.14832,0 h -5.39716 m 88.55278,-47.99991 2.69858,-4.67407 m -16.07416,27.84126 -2.69858,4.67408 m 2.70725,-100.688921 -2.69858,-4.674077 m 16.07416,27.841258 2.69858,4.67408" id="path9033" inkscape:original-d="m 134.63309,71.152346 h -5.39716" class="jLQqdvgU_7"></path><path style="fill: none; fill-opacity: 0.784173; stroke: rgb(0, 0, 0); stroke-width: 0.499999; stroke-linecap: round; stroke-linejoin: bevel; paint-order: normal;" d="m 144.72344,52.848919 h -6.3358 m 12.90626,0 h 6.3358 m -90.207132,48.413121 -3.1679,5.48697 m 6.45313,-11.177152 3.1679,-5.486963 m -3.17657,102.328225 3.1679,5.48697 m -6.45313,-11.17715 -3.1679,-5.48696 m 87.030562,53.9151 h 6.3358 m -12.90626,0 h -6.3358 m 90.20713,-48.41312 3.1679,-5.48697 m -6.45313,11.17715 -3.1679,5.48697 m 3.17657,-102.328235 -3.1679,-5.486963 m 6.45313,11.177148 3.1679,5.48696" id="path9035" sodipodi:nodetypes="cc" inkscape:original-d="m 144.72344,52.848919 h -6.3358" class="jLQqdvgU_8"></path><path style="fill: none; fill-opacity: 0.784173; stroke: rgb(0, 0, 0); stroke-width: 0.499999; stroke-linecap: round; stroke-linejoin: bevel; paint-order: normal;" d="m 146.01407,49.563688 h -3.75455 m 7.74375,0 h 3.75455 m -88.53503,48.938022 -1.877275,3.25154 m 3.871875,-6.706289 1.877275,-3.251535 m -1.885945,101.142594 1.877275,3.25154 m -3.871875,-6.70629 -1.877275,-3.25153 m 86.649085,52.20457 h 3.75455 m -7.74375,0 h -3.75455 m 88.53503,-48.93802 1.87728,-3.25154 m -3.87188,6.70629 -1.87727,3.25153 m 1.88594,-101.142592 -1.87727,-3.251536 m 3.87187,6.706285 1.87728,3.251533" id="path9037" inkscape:original-d="m 146.01407,49.563688 h -3.75455" class="jLQqdvgU_9"></path></g><g transform="matrix(0.08464027,0,0,-0.08298928,99.979153,184.05826)" fill="#000000" stroke="none" id="g1983" style="opacity:0.887059;mix-blend-mode:normal;fill:#000000;fill-opacity:1;stroke:#000000;stroke-width:5.96582;stroke-dasharray:none;stroke-opacity:1;filter:url(#filter6240)"><path d="m 595,927 c 4,-100 8,-220 10,-267 2,-47 4,-99 4,-116 l 1,-30 175,31 c 96,17 177,33 179,36 2,2 -9,72 -24,154 -15,83 -33,186 -40,231 l -13,80 -66,13 c -36,6 -103,20 -149,30 l -82,19 z m 130,132 c 28,-6 64,-15 81,-20 17,-5 38,-9 47,-9 11,0 18,-12 22,-37 3,-21 10,-63 16,-93 32,-182 49,-285 49,-296 0,-7 -21,-15 -52,-19 -29,-4 -79,-13 -110,-20 -34,-8 -60,-9 -64,-4 -3,5 -12,2 -20,-6 -18,-17 -42,-19 -64,-5 -13,9 -13,10 0,10 9,0 11,3 4,8 -10,7 -16,131 -19,380 l -1,133 31,-6 c 16,-3 53,-11 80,-16 z" id="path1969" style="fill: rgb(0, 0, 0); fill-opacity: 1; stroke: rgb(0, 0, 0); stroke-width: 5.96582; stroke-opacity: 1;" class="jLQqdvgU_10"></path><path d="m 830,996 c 0,-2 9,-6 20,-9 11,-3 18,-1 14,4 -5,9 -34,13 -34,5 z" id="path1971" style="fill: rgb(0, 0, 0); fill-opacity: 1; stroke: rgb(0, 0, 0); stroke-width: 5.96582; stroke-opacity: 1;" class="jLQqdvgU_11"></path><path d="M 197,838 C 182,748 145,531 115,355 85,179 60,34 60,33 60,31 173,30 310,30 h 250 v 485 485 H 392 224 Z m 343,83 c 0,-25 2,-232 3,-459 L 545,50 H 312 C 128,50 80,53 87,62 c 10,18 14,36 16,85 1,22 5,39 9,36 5,-2 8,14 8,37 0,30 3,39 12,34 10,-6 10,-4 2,7 -7,10 -3,56 14,166 14,84 27,151 31,149 3,-2 7,21 8,53 2,31 15,120 29,198 l 27,142 121,3 c 179,4 176,5 176,-51 z" id="path1973" style="fill: rgb(0, 0, 0); fill-opacity: 1; stroke: rgb(0, 0, 0); stroke-width: 5.96582; stroke-opacity: 1;" class="jLQqdvgU_12"></path><path d="m 200,671 c 0,-6 4,-13 10,-16 6,-3 7,1 4,9 -7,18 -14,21 -14,7 z" id="path1975" style="fill: rgb(0, 0, 0); fill-opacity: 1; stroke: rgb(0, 0, 0); stroke-width: 5.96582; stroke-opacity: 1;" class="jLQqdvgU_13"></path><path d="m 981,644 c 0,-11 3,-14 6,-6 3,7 2,16 -1,19 -3,4 -6,-2 -5,-13 z" id="path1977" style="fill: rgb(0, 0, 0); fill-opacity: 1; stroke: rgb(0, 0, 0); stroke-width: 5.96582; stroke-opacity: 1;" class="jLQqdvgU_14"></path><path d="M 803,518 600,478 599,336 c 0,-77 -2,-177 -5,-221 l -4,-80 h 250 c 137,0 250,2 250,4 0,1 -16,106 -35,232 -19,127 -35,243 -35,259 0,17 -3,30 -7,29 -5,0 -99,-19 -210,-41 z m 183,-3 c -3,-8 -1,-15 3,-15 5,0 12,-24 16,-52 4,-29 9,-62 12,-73 10,-47 20,-130 19,-161 -1,-19 2,-35 5,-37 3,-1 8,-31 11,-67 3,-36 4,-60 2,-55 -3,6 -84,10 -215,10 -129,0 -214,4 -218,10 -4,6 -5,88 -2,183 4,111 2,174 -4,176 -5,3 -1,5 10,5 16,1 17,3 6,10 -16,11 -2,15 74,26 22,3 47,7 55,10 8,2 31,7 50,9 19,3 57,11 84,19 73,19 99,20 92,2 z" id="path1979" style="fill: rgb(0, 0, 0); fill-opacity: 1; stroke: rgb(0, 0, 0); stroke-width: 5.96582; stroke-opacity: 1;" class="jLQqdvgU_15"></path><path d="m 658,433 c 7,-3 16,-2 19,1 4,3 -2,6 -13,5 -11,0 -14,-3 -6,-6 z" id="path1981" style="fill: rgb(0, 0, 0); fill-opacity: 1; stroke: rgb(0, 0, 0); stroke-width: 5.96582; stroke-opacity: 1;" class="jLQqdvgU_16"></path></g><path style="opacity: 1; fill: rgb(0, 0, 0); fill-opacity: 1; stroke: rgb(0, 0, 0); stroke-width: 1.88976; stroke-linecap: round; stroke-linejoin: bevel; stroke-opacity: 1;" d="m 310.26966,119.17996 c 1.66004,12.107 8.96957,25.48643 11.37528,38.47808 13.6939,45.18261 12.26393,93.04531 21.77462,138.96164 10.34317,40.35316 51.79484,60.20831 82.93358,81.09136 -16.43362,-5.20436 -33.60154,-14.15989 -51.54748,-8.22132 -27.00678,7.74169 -54.24481,17.76841 -77.90181,32.93434 -4.36204,10.55354 2.94163,23.67905 2.27826,34.96761 3.10124,30.36508 7.45534,66.6801 36.45218,83.89877 3.25229,2.11176 8.46325,8.02385 1.12686,3.59621 -30.31041,-17.69536 -63.69585,-36.75296 -100.25324,-30.73935 -34.13315,4.97232 -62.91517,26.78163 -95.57098,36.89286 -28.14924,10.99391 -57.4464,18.73533 -87.204285,23.89504 10.549124,6.18635 28.916392,5.24801 42.331546,10.14193 45.483289,10.88103 85.898779,35.5878 129.939229,50.3618 27.49729,6.33844 55.82484,0.51322 80.37113,-12.79745 11.05346,-4.21865 25.89193,-15.61839 34.3013,-17.22659 -15.64163,10.14311 -29.31192,24.15048 -33.59454,42.99746 -6.27879,25.92201 -9.75042,53.18528 -10.96137,79.51904 19.84567,14.64026 44.77392,21.63815 67.67658,30.57278 18.72996,7.58348 39.85527,5.78699 57.33866,-3.7236 11.75876,-3.89939 -1.80905,4.30392 -5.50212,5.90879 -32.57683,19.2197 -69.85688,44.00717 -74.66324,85.05015 -6.52924,50.89654 -8.30105,103.03115 -26.93204,151.5087 -0.27464,2.69264 -8.19652,17.67966 -0.76965,12.60442 33.18033,-32.16069 65.99836,-65.08866 105.20371,-90.0791 25.08634,-15.86837 47.19826,-38.89332 52.79884,-69.03561 6.52054,-22.17197 3.26055,-47.85313 6.86511,-68.922 0.89412,18.56688 4.34509,38.29952 19.13248,51.3907 20.20137,20.18473 45.33865,35.73547 66.57419,53.91393 25.87121,-26.79197 65.78239,-42.11862 80.40545,-78.40156 3.64152,-7.86915 1.32519,-21.19409 4.28215,-26.565 2.57451,36.32677 0.0687,77.27633 24.43861,107.61718 27.86293,30.98659 67.74253,48.18087 96.5924,78.28822 15.54161,13.66989 28.88472,30.61568 45.87972,42.2587 -0.40001,-9.66346 -7.58747,-20.8802 -9.4707,-31.42039 -14.99201,-46.69951 -13.24728,-96.3477 -22.99818,-144.01057 -10.45603,-40.41966 -51.13706,-60.30909 -83.19327,-81.22855 16.46134,4.76539 33.48545,14.03157 51.38092,8.07435 27.53693,-7.21314 53.86148,-19.67976 79.52352,-31.19011 3.2023,-9.6406 -3.76516,-20.73217 -2.98688,-30.86628 -3.79587,-30.46496 -4.81873,-66.92415 -32.37269,-86.69683 -3.62032,-1.63697 -15.1504,-11.4079 -5.32085,-6.33014 30.20581,17.22518 63.18859,36.5292 99.46004,30.46469 36.34741,-5.70579 67.33936,-28.28187 102.05086,-39.44545 25.95654,-10.19459 53.19724,-16.97685 80.86104,-20.73463 -10.9258,-6.86005 -30.0192,-6.90538 -44.189,-11.5407 -45.69826,-9.97572 -85.58777,-36.46358 -130.07583,-50.0262 -28.19943,-5.87841 -57.08881,0.66614 -81.83118,14.79153 -10.76854,4.04825 -21.07594,13.47039 -31.3126,16.12422 11.2682,-9.84919 25.03198,-18.52938 30.77856,-33.4929 11.07484,-27.81713 10.66025,-58.91806 14.98263,-88.2005 -12.95678,-13.62318 -33.86445,-17.25175 -50.3422,-25.69779 -23.15138,-10.27145 -51.04868,-16.8313 -74.08512,-2.68494 -6.51637,3.5334 -8.08973,1.14174 -1.78339,-2.06759 30.29579,-17.51953 63.78284,-38.53548 77.02969,-72.68383 11.70335,-45.16454 7.91802,-93.09752 21.27143,-138.01536 3.35539,-14.16293 9.3309,-27.80721 12.06954,-42.0064 -9.12931,2.53078 -15.67273,14.87469 -23.50984,21.03088 -33.28023,37.40577 -78.59289,60.97294 -114.90059,94.86152 -29.26538,29.54142 -23.47658,74.89134 -28.62769,111.76214 -0.3472,-19.47114 -5.31636,-39.7051 -20.72971,-53.00752 -19.95091,-19.08305 -44.0385,-34.40725 -64.63398,-51.91984 -26.02333,26.9785 -66.81255,41.93527 -80.80722,79.00419 -3.35364,7.95961 -0.95011,19.85799 -3.85587,26.15345 -2.71888,-36.44442 -0.19296,-77.6547 -24.66892,-108.21981 -27.17119,-29.99011 -65.1367,-47.47375 -94.18705,-75.58402 -17.38774,-13.99781 -30.94457,-33.22911 -48.6966,-46.33475 z m 260.21651,241.07423 c 31.73067,5.48482 64.06853,11.2548 94.86382,19.8282 9.68553,47.95292 17.82164,96.42757 24.26713,144.89246 -36.65132,8.11095 -74.53613,15.0247 -111.1301,20.44555 -6.86057,-57.5336 -5.66395,-115.95477 -8.18215,-173.8729 0.29854,-3.43401 -0.66679,-8.306 0.18137,-11.29331 z m -89.67036,32.47867 c 26.70073,0.0459 53.39788,0.56583 80.09675,0.84272 0,101.35238 0,202.70473 0,304.05711 -52.79921,-0.93485 -105.91264,2.68848 -158.53751,-1.72462 -2.76893,-8.2593 3.6822,-21.48591 3.75008,-31.2409 15.5383,-90.02955 30.15308,-180.61818 46.90569,-270.19988 8.87873,-2.3271 18.53467,-1.30547 27.78499,-1.73443 z m 215.35192,107.47509 c 4.19433,2.58535 -1.21448,13.29431 -1.55802,4.00779 0.1041,-1.23403 0.16255,-3.49492 1.55802,-4.00779 z m 9.12285,31.55758 c 9.7432,50.09218 16.49686,101.2607 22.86588,151.88892 1.0887,5.87043 1.39015,14.16924 -7.38842,11.37661 -50.07569,2.07058 -100.21275,1.04393 -150.31617,1.34245 0.59588,-46.72605 1.24203,-93.47297 4.13515,-140.12524 43.56652,-8.16453 87.08726,-16.59515 130.70356,-24.48274 z" id="path8915" transform="matrix(0.26458333,0,0,0.26458333,-1,-3)" class="jLQqdvgU_17"></path><path style="opacity: 1; fill: rgb(0, 0, 0); fill-opacity: 1; stroke: rgb(0, 0, 0); stroke-width: 1.88976; stroke-linecap: round; stroke-linejoin: bevel; stroke-opacity: 1;" d="m 562.65679,49.31331 c -17.46502,27.628755 -38.7207,53.00895 -56.89282,80.29765 -12.51967,17.55718 -3.62571,41.99212 8.39772,56.981 15.01815,-2.89395 23.05548,-20.08293 32.31587,-30.88689 5.80467,-6.97989 10.59619,-19.68492 17.46289,-23.3504 14.17088,18.38142 24.83007,42.28657 45.52601,54.24219 10.72078,-2.62375 11.77095,-17.96251 16.07031,-26.5405 6.23973,-26.5265 -18.01802,-46.98692 -31.25708,-66.877653 -11.76409,-13.473741 -19.93717,-29.89694 -30.7459,-43.919291 l -0.72022,-0.0049 z" id="path8917" transform="matrix(0.26458333,0,0,0.26458333,-1,-3)" class="jLQqdvgU_18"></path><path style="opacity: 1; fill: rgb(0, 0, 0); fill-opacity: 1; stroke: rgb(0, 0, 0); stroke-width: 1.88976; stroke-linecap: round; stroke-linejoin: bevel; stroke-opacity: 1;" d="m 903.79808,697.59839 c 3.49642,25.12205 17.15976,48.35265 26.54051,70.45948 -23.94259,2.55472 -50.20333,0.74384 -72.06651,11.96454 -0.58872,11.08054 10.90927,20.10286 17.62834,28.19163 20.9439,19.47836 51.94033,6.26082 76.67693,4.66921 16.58691,-2.47861 33.59825,-1.18577 50.15605,-3.32185 -7.16686,-17.56599 -18.94589,-34.66224 -25.25484,-53.1876 -9.56117,-23.73144 -19.64957,-56.89995 -50.12865,-59.25556 -7.57745,-0.38207 -16.91535,-2.09836 -23.55183,0.48015 z" id="path8925" transform="matrix(0.26458333,0,0,0.26458333,-1,-3)" class="jLQqdvgU_19"></path><path style="opacity: 1; fill: rgb(0, 0, 0); fill-opacity: 1; stroke: rgb(0, 0, 0); stroke-width: 1.88976; stroke-linecap: round; stroke-linejoin: bevel; stroke-opacity: 1;" d="m 208.83562,696.40291 c -23.53083,-2.06683 -42.99221,15.1663 -50.25401,36.47176 -10.32155,25.89587 -21.2738,51.43211 -35.34978,75.53535 9.26621,4.87922 23.54805,1.1594 34.48747,3.12097 29.48639,-0.44811 62.09742,16.63456 89.49398,-0.70552 8.82084,-7.93611 19.47802,-18.09879 21.20987,-30.13673 -12.85566,-9.1689 -31.116,-8.27676 -46.34422,-10.99444 -8.79182,-0.95097 -17.71144,-0.0411 -26.45722,-1.46005 9.25023,-23.39818 25.24828,-46.71016 25.77619,-71.86074 -4.18737,0.016 -8.37517,-0.0347 -12.56228,0.0294 z" id="path8927" transform="matrix(0.26458333,0,0,0.26458333,-1,-3)" class="jLQqdvgU_20"></path><path style="opacity: 1; fill: rgb(0, 0, 0); fill-opacity: 1; stroke: rgb(0, 0, 0); stroke-width: 1.88976; stroke-linecap: round; stroke-linejoin: bevel; stroke-opacity: 1;" d="m 902.52912,292.87158 c -21.5528,-0.71338 -38.35778,18.31986 -44.82538,36.96661 7.91347,8.96503 23.44905,7.26352 34.40907,10.36731 12.76949,2.48032 25.89828,1.0139 38.66184,3.14547 -10.51715,23.08402 -25.17667,47.03259 -26.07996,72.2135 22.71192,0.0488 51.88496,-4.9014 59.5267,-30.14651 12.47355,-28.06638 23.88078,-57.01277 38.81571,-83.57543 -21.75607,-3.7744 -45.14558,-0.91474 -67.17616,-5.92339 -11.01896,-1.71656 -22.14746,-3.37263 -33.33182,-3.04756 z" id="path8929" transform="matrix(0.26458333,0,0,0.26458333,-1,-3)" class="jLQqdvgU_21"></path><path style="opacity: 1; fill: rgb(0, 0, 0); fill-opacity: 1; stroke: rgb(0, 0, 0); stroke-width: 1.88976; stroke-linecap: round; stroke-linejoin: bevel; stroke-opacity: 1;" d="m 218.5905,292.84708 c -30.97734,2.85192 -61.67316,8.21137 -92.88933,7.88327 -6.85997,1.89037 4.26865,11.17494 4.53692,15.10021 17.3937,27.11137 22.23121,61.09677 42.88519,86.16723 12.69772,12.44133 33.52412,14.34524 49.4113,11.68527 -3.49642,-25.12205 -17.15975,-48.35265 -26.54051,-70.45948 23.9426,-2.55472 50.20334,-0.74384 72.06652,-11.96454 0.60556,-11.01727 -10.91241,-20.08512 -17.36377,-28.28962 -8.45482,-8.27983 -20.66978,-10.61591 -32.10632,-10.12234 z" id="path8931" transform="matrix(0.26458333,0,0,0.26458333,-1,-3)" class="jLQqdvgU_22"></path><path style="opacity: 1; fill: rgb(0, 0, 0); fill-opacity: 1; stroke: rgb(0, 0, 0); stroke-width: 1.88976; stroke-linecap: round; stroke-linejoin: bevel; stroke-opacity: 1;" d="m 515.09259,923.6508 c -9.5679,10.3017 -15.2176,25.96002 -15.47257,40.17577 5.33428,28.44294 30.8364,47.43693 45.17119,71.35003 7.41918,7.796 10.47084,20.7983 18.90427,26.7964 16.77646,-27.0195 37.33807,-51.7349 55.45057,-77.95197 14.23115,-18.42896 5.62102,-43.88019 -7.32294,-60.17425 -13.01781,3.57509 -20.51218,18.83721 -29.48059,28.30401 -7.26303,7.67012 -11.9765,21.99289 -19.86702,26.81518 -14.54554,-18.99874 -25.76085,-43.30711 -47.12813,-55.33967 z" id="path8933" transform="matrix(0.26458333,0,0,0.26458333,-1,-3)" class="jLQqdvgU_23"></path><g id="g10608"><path style="opacity: 1; fill: rgb(230, 230, 230); fill-opacity: 1; stroke: rgb(0, 0, 0); stroke-width: 1.88976; stroke-linecap: round; stroke-linejoin: bevel; stroke-opacity: 1;" d="m 690.80959,541.85172 c -34.16551,6.3454 -68.08697,14.56608 -102.55837,19.44601 -5.43567,-0.0403 -3.02986,5.09979 -4.25782,7.88857 -6.36897,4.81799 -2.38104,15.41736 -3.90361,22.2828 -0.31691,30.3198 -0.11002,60.64244 -0.1706,90.96343 21.18084,5.29538 44.6594,2.41176 66.74266,3.58032 23.33099,0.2431 46.61455,0.84756 69.89906,2.33351 4.55353,-14.00456 -2.34719,-30.03185 -2.60528,-44.70884 -3.74746,-30.74788 -7.21725,-62.01735 -15.44802,-91.82548 -2.00246,-4.41541 -0.2186,-10.87803 -7.69802,-9.96032 z m -94.99199,27.02971 c 8.06892,1.12697 -4.13752,5.74115 -4.14696,0.99776 1.08162,-0.99699 2.75041,-1.11907 4.14696,-0.99776 z" id="path8047" transform="matrix(0.26458333,0,0,0.26458333,-1,-3)" class="jLQqdvgU_24"></path><path style="opacity: 1; fill: rgb(230, 230, 230); fill-opacity: 1; stroke: none; stroke-width: 0.499999; stroke-linecap: round; stroke-linejoin: bevel; stroke-opacity: 1;" id="path10491" d="M154.89048499999998,148.45187A2.074115,1.9496682 0,1,1 159.038715,148.45187A2.074115,1.9496682 0,1,1 154.89048499999998,148.45187" class="jLQqdvgU_25"></path></g><g id="g10557"><path style="opacity: 1; fill: rgb(230, 230, 230); fill-opacity: 1; stroke: rgb(0, 0, 0); stroke-width: 1.88976; stroke-linecap: round; stroke-linejoin: bevel; stroke-opacity: 1;" d="m 578.14539,369.41522 c 0.21831,53.81565 1.46266,108.10773 5.74061,161.53385 -4.62848,3.70876 5.59149,6.66014 8.42556,5.65746 8.2008,0.44069 13.70828,-8.25353 22.18293,-5.751 21.78103,-2.6418 44.165,-5.08395 65.05214,-11.61633 4.54032,-10.18772 -2.00523,-22.0011 -2.28367,-32.62567 -6.32193,-33.31386 -10.98966,-67.30717 -19.91658,-99.92105 -25.24351,-8.65253 -51.90325,-12.82178 -78.00921,-18.26116 z m 72.76056,23.61722 c 3.6067,-1.57343 11.04259,5.3518 3.7728,4.89181 -2.51984,0.26708 -11.77692,-5.41631 -3.7728,-4.89181 z" id="path6524" transform="matrix(0.26458333,0,0,0.26458333,-1,-3)" class="jLQqdvgU_26"></path><path style="opacity: 1; fill: rgb(230, 230, 230); fill-opacity: 1; stroke: none; stroke-width: 0.499999; stroke-linecap: round; stroke-linejoin: bevel; stroke-opacity: 1;" id="path10553" d="M169.3263172,102.24059A2.0326328,2.1985619 0,1,1 173.39158279999998,102.24059A2.0326328,2.1985619 0,1,1 169.3263172,102.24059" class="jLQqdvgU_27"></path></g><g id="g10697"><path style="opacity: 1; fill: rgb(230, 230, 230); fill-opacity: 1; stroke: rgb(0, 0, 0); stroke-width: 1.88976; stroke-linecap: round; stroke-linejoin: bevel; stroke-opacity: 1;" d="m 517.90192,401.73862 c -19.40623,0.65172 -39.49575,0.47883 -58.40038,3.02101 -5.72698,28.88949 -11.59127,57.9733 -15.34062,87.11035 1.63407,3.05333 6.88609,3.22499 6.25335,8.08951 -1.59489,1.37531 -7.48522,-1.29068 -7.62874,3.62729 -4.02793,28.87151 -12.88775,56.95183 -15.64412,86.11736 -2.71091,12.63415 -0.89979,26.58588 -3.93354,38.59275 -4.46024,7.57183 -2.06866,17.85112 -7.24764,25.35291 -1.49358,11.55419 -1.81154,23.04012 -5.72329,34.15264 13.14007,4.62753 29.40122,1.41368 43.72477,2.68037 33.44847,0.32044 66.89883,0.35205 100.34821,0.52771 2.34315,-24.92401 0.33319,-51.65546 1.00184,-77.27474 -0.37046,-69.38452 0.4612,-139.33386 -3.01123,-208.33176 -10.79306,-4.69248 -22.95141,-3.3638 -34.39861,-3.6654 z" id="path8844" transform="matrix(0.26458333,0,0,0.26458333,-1,-3)" class="jLQqdvgU_28"></path><path style="opacity: 1; fill: rgb(230, 230, 230); fill-opacity: 1; stroke: none; stroke-width: 0.499999; stroke-linecap: round; stroke-linejoin: bevel; stroke-opacity: 1;" id="rect10662" width="6.3882742" height="6.5542035" transform="rotate(7.9469127)" d="M133.27957 106.36947 L139.66784420000002 106.36947 L139.66784420000002 112.9236735 L133.27957 112.9236735 Z" class="jLQqdvgU_29"></path></g></g><style data-made-with="vivus-instant">.jLQqdvgU_0{stroke-dasharray:1466 1468;stroke-dashoffset:1467;animation:jLQqdvgU_draw_0 12300ms ease 0ms infinite,jLQqdvgU_fade 12300ms linear 0ms infinite;}.jLQqdvgU_1{stroke-dasharray:1526 1528;stroke-dashoffset:1527;animation:jLQqdvgU_draw_1 12300ms ease 0ms infinite,jLQqdvgU_fade 12300ms linear 0ms infinite;}.jLQqdvgU_2{stroke-dasharray:1307 1309;stroke-dashoffset:1308;animation:jLQqdvgU_draw_2 12300ms ease 0ms infinite,jLQqdvgU_fade 12300ms linear 0ms infinite;}.jLQqdvgU_3{stroke-dasharray:89 91;stroke-dashoffset:90;animation:jLQqdvgU_draw_3 12300ms ease 0ms infinite,jLQqdvgU_fade 12300ms linear 0ms infinite;}.jLQqdvgU_4{stroke-dasharray:88 90;stroke-dashoffset:89;animation:jLQqdvgU_draw_4 12300ms ease 0ms infinite,jLQqdvgU_fade 12300ms linear 0ms infinite;}.jLQqdvgU_5{stroke-dasharray:92 94;stroke-dashoffset:93;animation:jLQqdvgU_draw_5 12300ms ease 0ms infinite,jLQqdvgU_fade 12300ms linear 0ms infinite;}.jLQqdvgU_6{stroke-dasharray:101 103;stroke-dashoffset:102;animation:jLQqdvgU_draw_6 12300ms ease 0ms infinite,jLQqdvgU_fade 12300ms linear 0ms infinite;}.jLQqdvgU_7{stroke-dasharray:65 67;stroke-dashoffset:66;animation:jLQqdvgU_draw_7 12300ms ease 0ms infinite,jLQqdvgU_fade 12300ms linear 0ms infinite;}.jLQqdvgU_8{stroke-dasharray:77 79;stroke-dashoffset:78;animation:jLQqdvgU_draw_8 12300ms ease 0ms infinite,jLQqdvgU_fade 12300ms linear 0ms infinite;}.jLQqdvgU_9{stroke-dasharray:46 48;stroke-dashoffset:47;animation:jLQqdvgU_draw_9 12300ms ease 0ms infinite,jLQqdvgU_fade 12300ms linear 0ms infinite;}.jLQqdvgU_10{stroke-dasharray:3297 3299;stroke-dashoffset:3298;animation:jLQqdvgU_draw_10 12300ms ease 0ms infinite,jLQqdvgU_fade 12300ms linear 0ms infinite;}.jLQqdvgU_11{stroke-dasharray:81 83;stroke-dashoffset:82;animation:jLQqdvgU_draw_11 12300ms ease 0ms infinite,jLQqdvgU_fade 12300ms linear 0ms infinite;}.jLQqdvgU_12{stroke-dasharray:5404 5406;stroke-dashoffset:5405;animation:jLQqdvgU_draw_12 12300ms ease 0ms infinite,jLQqdvgU_fade 12300ms linear 0ms infinite;}.jLQqdvgU_13{stroke-dasharray:65 67;stroke-dashoffset:66;animation:jLQqdvgU_draw_13 12300ms ease 0ms infinite,jLQqdvgU_fade 12300ms linear 0ms infinite;}.jLQqdvgU_14{stroke-dasharray:55 57;stroke-dashoffset:56;animation:jLQqdvgU_draw_14 12300ms ease 0ms infinite,jLQqdvgU_fade 12300ms linear 0ms infinite;}.jLQqdvgU_15{stroke-dasharray:3589 3591;stroke-dashoffset:3590;animation:jLQqdvgU_draw_15 12300ms ease 0ms infinite,jLQqdvgU_fade 12300ms linear 0ms infinite;}.jLQqdvgU_16{stroke-dasharray:55 57;stroke-dashoffset:56;animation:jLQqdvgU_draw_16 12300ms ease 0ms infinite,jLQqdvgU_fade 12300ms linear 0ms infinite;}.jLQqdvgU_17{stroke-dasharray:7316 7318;stroke-dashoffset:7317;animation:jLQqdvgU_draw_17 12300ms ease 0ms infinite,jLQqdvgU_fade 12300ms linear 0ms infinite;}.jLQqdvgU_18{stroke-dasharray:471 473;stroke-dashoffset:472;animation:jLQqdvgU_draw_18 12300ms ease 0ms infinite,jLQqdvgU_fade 12300ms linear 0ms infinite;}.jLQqdvgU_19{stroke-dasharray:479 481;stroke-dashoffset:480;animation:jLQqdvgU_draw_19 12300ms ease 0ms infinite,jLQqdvgU_fade 12300ms linear 0ms infinite;}.jLQqdvgU_20{stroke-dasharray:479 481;stroke-dashoffset:480;animation:jLQqdvgU_draw_20 12300ms ease 0ms infinite,jLQqdvgU_fade 12300ms linear 0ms infinite;}.jLQqdvgU_21{stroke-dasharray:480 482;stroke-dashoffset:481;animation:jLQqdvgU_draw_21 12300ms ease 0ms infinite,jLQqdvgU_fade 12300ms linear 0ms infinite;}.jLQqdvgU_22{stroke-dasharray:479 481;stroke-dashoffset:480;animation:jLQqdvgU_draw_22 12300ms ease 0ms infinite,jLQqdvgU_fade 12300ms linear 0ms infinite;}.jLQqdvgU_23{stroke-dasharray:472 474;stroke-dashoffset:473;animation:jLQqdvgU_draw_23 12300ms ease 0ms infinite,jLQqdvgU_fade 12300ms linear 0ms infinite;}.jLQqdvgU_24{stroke-dasharray:536 538;stroke-dashoffset:537;animation:jLQqdvgU_draw_24 12300ms ease 0ms infinite,jLQqdvgU_fade 12300ms linear 0ms infinite;}.jLQqdvgU_25{stroke-dasharray:13 15;stroke-dashoffset:14;animation:jLQqdvgU_draw_25 12300ms ease 0ms infinite,jLQqdvgU_fade 12300ms linear 0ms infinite;}.jLQqdvgU_26{stroke-dasharray:506 508;stroke-dashoffset:507;animation:jLQqdvgU_draw_26 12300ms ease 0ms infinite,jLQqdvgU_fade 12300ms linear 0ms infinite;}.jLQqdvgU_27{stroke-dasharray:14 16;stroke-dashoffset:15;animation:jLQqdvgU_draw_27 12300ms ease 0ms infinite,jLQqdvgU_fade 12300ms linear 0ms infinite;}.jLQqdvgU_28{stroke-dasharray:821 823;stroke-dashoffset:822;animation:jLQqdvgU_draw_28 12300ms ease 0ms infinite,jLQqdvgU_fade 12300ms linear 0ms infinite;}.jLQqdvgU_29{stroke-dasharray:26 28;stroke-dashoffset:27;animation:jLQqdvgU_draw_29 12300ms ease 0ms infinite,jLQqdvgU_fade 12300ms linear 0ms infinite;}@keyframes jLQqdvgU_draw{100%{stroke-dashoffset:0;}}@keyframes jLQqdvgU_fade{0%{stroke-opacity:1;}100%{stroke-opacity:1;}100%{stroke-opacity:0;}}@keyframes jLQqdvgU_draw_0{0%{stroke-dashoffset: 1467}66.66666666666666%{ stroke-dashoffset: 0;}100%{ stroke-dashoffset: 0;}}@keyframes jLQqdvgU_draw_1{1.1494252873563218%{stroke-dashoffset: 1527}67.816091954023%{ stroke-dashoffset: 0;}100%{ stroke-dashoffset: 0;}}@keyframes jLQqdvgU_draw_2{2.2988505747126435%{stroke-dashoffset: 1308}68.96551724137932%{ stroke-dashoffset: 0;}100%{ stroke-dashoffset: 0;}}@keyframes jLQqdvgU_draw_3{3.4482758620689653%{stroke-dashoffset: 90}70.11494252873563%{ stroke-dashoffset: 0;}100%{ stroke-dashoffset: 0;}}@keyframes jLQqdvgU_draw_4{4.597701149425287%{stroke-dashoffset: 89}71.26436781609195%{ stroke-dashoffset: 0;}100%{ stroke-dashoffset: 0;}}@keyframes jLQqdvgU_draw_5{5.747126436781609%{stroke-dashoffset: 93}72.41379310344827%{ stroke-dashoffset: 0;}100%{ stroke-dashoffset: 0;}}@keyframes jLQqdvgU_draw_6{6.896551724137931%{stroke-dashoffset: 102}73.5632183908046%{ stroke-dashoffset: 0;}100%{ stroke-dashoffset: 0;}}@keyframes jLQqdvgU_draw_7{8.045977011494253%{stroke-dashoffset: 66}74.71264367816092%{ stroke-dashoffset: 0;}100%{ stroke-dashoffset: 0;}}@keyframes jLQqdvgU_draw_8{9.195402298850574%{stroke-dashoffset: 78}75.86206896551725%{ stroke-dashoffset: 0;}100%{ stroke-dashoffset: 0;}}@keyframes jLQqdvgU_draw_9{10.344827586206899%{stroke-dashoffset: 47}77.01149425287358%{ stroke-dashoffset: 0;}100%{ stroke-dashoffset: 0;}}@keyframes jLQqdvgU_draw_10{11.494252873563218%{stroke-dashoffset: 3298}78.16091954022988%{ stroke-dashoffset: 0;}100%{ stroke-dashoffset: 0;}}@keyframes jLQqdvgU_draw_11{12.643678160919542%{stroke-dashoffset: 82}79.3103448275862%{ stroke-dashoffset: 0;}100%{ stroke-dashoffset: 0;}}@keyframes jLQqdvgU_draw_12{13.793103448275861%{stroke-dashoffset: 5405}80.45977011494253%{ stroke-dashoffset: 0;}100%{ stroke-dashoffset: 0;}}@keyframes jLQqdvgU_draw_13{14.942528735632186%{stroke-dashoffset: 66}81.60919540229885%{ stroke-dashoffset: 0;}100%{ stroke-dashoffset: 0;}}@keyframes jLQqdvgU_draw_14{16.091954022988507%{stroke-dashoffset: 56}82.75862068965519%{ stroke-dashoffset: 0;}100%{ stroke-dashoffset: 0;}}@keyframes jLQqdvgU_draw_15{17.24137931034483%{stroke-dashoffset: 3590}83.9080459770115%{ stroke-dashoffset: 0;}100%{ stroke-dashoffset: 0;}}@keyframes jLQqdvgU_draw_16{18.39080459770115%{stroke-dashoffset: 56}85.0574712643678%{ stroke-dashoffset: 0;}100%{ stroke-dashoffset: 0;}}@keyframes jLQqdvgU_draw_17{19.54022988505747%{stroke-dashoffset: 7317}86.20689655172413%{ stroke-dashoffset: 0;}100%{ stroke-dashoffset: 0;}}@keyframes jLQqdvgU_draw_18{20.689655172413797%{stroke-dashoffset: 472}87.35632183908046%{ stroke-dashoffset: 0;}100%{ stroke-dashoffset: 0;}}@keyframes jLQqdvgU_draw_19{21.839080459770116%{stroke-dashoffset: 480}88.50574712643679%{ stroke-dashoffset: 0;}100%{ stroke-dashoffset: 0;}}@keyframes jLQqdvgU_draw_20{22.988505747126435%{stroke-dashoffset: 480}89.6551724137931%{ stroke-dashoffset: 0;}100%{ stroke-dashoffset: 0;}}@keyframes jLQqdvgU_draw_21{24.137931034482758%{stroke-dashoffset: 481}90.80459770114943%{ stroke-dashoffset: 0;}100%{ stroke-dashoffset: 0;}}@keyframes jLQqdvgU_draw_22{25.287356321839084%{stroke-dashoffset: 480}91.95402298850574%{ stroke-dashoffset: 0;}100%{ stroke-dashoffset: 0;}}@keyframes jLQqdvgU_draw_23{26.436781609195403%{stroke-dashoffset: 473}93.10344827586206%{ stroke-dashoffset: 0;}100%{ stroke-dashoffset: 0;}}@keyframes jLQqdvgU_draw_24{27.586206896551722%{stroke-dashoffset: 537}94.2528735632184%{ stroke-dashoffset: 0;}100%{ stroke-dashoffset: 0;}}@keyframes jLQqdvgU_draw_25{28.735632183908045%{stroke-dashoffset: 14}95.40229885057472%{ stroke-dashoffset: 0;}100%{ stroke-dashoffset: 0;}}@keyframes jLQqdvgU_draw_26{29.88505747126437%{stroke-dashoffset: 507}96.55172413793103%{ stroke-dashoffset: 0;}100%{ stroke-dashoffset: 0;}}@keyframes jLQqdvgU_draw_27{31.03448275862069%{stroke-dashoffset: 15}97.70114942528735%{ stroke-dashoffset: 0;}100%{ stroke-dashoffset: 0;}}@keyframes jLQqdvgU_draw_28{32.18390804597701%{stroke-dashoffset: 822}98.85057471264368%{ stroke-dashoffset: 0;}100%{ stroke-dashoffset: 0;}}@keyframes jLQqdvgU_draw_29{33.33333333333333%{stroke-dashoffset: 27}100%{ stroke-dashoffset: 0;}100%{ stroke-dashoffset: 0;}}</style></svg>