<?xml version="1.0" encoding="UTF-8" standalone="no"?>
<!-- Created with Inkscape (http://www.inkscape.org/) -->

<svg
   width="210mm"
   height="297mm"
   viewBox="0 0 210 297"
   version="1.1"
   id="svg15131"
   xml:space="preserve"
   sodipodi:docname="tribal_tst.svg"
   inkscape:version="1.2.1 (9c6d41e410, 2022-07-14)"
   xmlns:inkscape="http://www.inkscape.org/namespaces/inkscape"
   xmlns:sodipodi="http://sodipodi.sourceforge.net/DTD/sodipodi-0.dtd"
   xmlns="http://www.w3.org/2000/svg"
   xmlns:svg="http://www.w3.org/2000/svg"><sodipodi:namedview
     id="namedview15133"
     pagecolor="#ffffff"
     bordercolor="#000000"
     borderopacity="0.25"
     inkscape:showpageshadow="2"
     inkscape:pageopacity="0.0"
     inkscape:pagecheckerboard="0"
     inkscape:deskcolor="#d1d1d1"
     inkscape:document-units="mm"
     showgrid="false"
     inkscape:zoom="0.5946522"
     inkscape:cx="240.4767"
     inkscape:cy="607.07755"
     inkscape:window-width="1366"
     inkscape:window-height="697"
     inkscape:window-x="-8"
     inkscape:window-y="-8"
     inkscape:window-maximized="1"
     inkscape:current-layer="layer2"
     showguides="false" /><defs
     id="defs15128"><inkscape:path-effect
       effect="bspline"
       id="path-effect22666"
       is_visible="true"
       lpeversion="1"
       weight="33.333333"
       steps="2"
       helper_size="0"
       apply_no_weight="true"
       apply_with_weight="true"
       only_selected="false" /><inkscape:path-effect
       effect="bspline"
       id="path-effect22661"
       is_visible="true"
       lpeversion="1"
       weight="33.333333"
       steps="2"
       helper_size="0"
       apply_no_weight="true"
       apply_with_weight="true"
       only_selected="false" /><inkscape:path-effect
       effect="bspline"
       id="path-effect22651"
       is_visible="true"
       lpeversion="1"
       weight="33.333333"
       steps="2"
       helper_size="0"
       apply_no_weight="true"
       apply_with_weight="true"
       only_selected="false" /><inkscape:path-effect
       effect="bspline"
       id="path-effect21916"
       is_visible="true"
       lpeversion="1"
       weight="33.333333"
       steps="2"
       helper_size="0"
       apply_no_weight="true"
       apply_with_weight="true"
       only_selected="false" /><inkscape:path-effect
       effect="bspline"
       id="path-effect21912"
       is_visible="true"
       lpeversion="1"
       weight="33.333333"
       steps="2"
       helper_size="0"
       apply_no_weight="true"
       apply_with_weight="true"
       only_selected="false" /><inkscape:path-effect
       effect="bspline"
       id="path-effect18801"
       is_visible="true"
       lpeversion="1"
       weight="33.333333"
       steps="2"
       helper_size="0"
       apply_no_weight="true"
       apply_with_weight="true"
       only_selected="false" /><inkscape:path-effect
       effect="bspline"
       id="path-effect18797"
       is_visible="true"
       lpeversion="1"
       weight="33.333333"
       steps="2"
       helper_size="0"
       apply_no_weight="true"
       apply_with_weight="true"
       only_selected="false" /><inkscape:path-effect
       effect="powerstroke"
       id="path-effect2440"
       is_visible="true"
       lpeversion="1"
       offset_points="0,4.9921382"
       not_jump="false"
       sort_points="true"
       interpolator_type="CubicBezierJohan"
       interpolator_beta="0.2"
       start_linecap_type="zerowidth"
       linejoin_type="extrp_arc"
       miter_limit="4"
       scale_width="0.5"
       end_linecap_type="zerowidth" /><inkscape:path-effect
       effect="bspline"
       id="path-effect2438"
       is_visible="true"
       lpeversion="1"
       weight="33.333333"
       steps="2"
       helper_size="0"
       apply_no_weight="true"
       apply_with_weight="true"
       only_selected="false" /><inkscape:path-effect
       effect="powerstroke"
       id="path-effect2430"
       is_visible="true"
       lpeversion="1"
       offset_points="0,4.9921382"
       not_jump="false"
       sort_points="true"
       interpolator_type="CubicBezierJohan"
       interpolator_beta="0.2"
       start_linecap_type="zerowidth"
       linejoin_type="extrp_arc"
       miter_limit="4"
       scale_width="0.6"
       end_linecap_type="zerowidth" /><inkscape:path-effect
       effect="bspline"
       id="path-effect2428"
       is_visible="true"
       lpeversion="1"
       weight="33.333333"
       steps="2"
       helper_size="0"
       apply_no_weight="true"
       apply_with_weight="true"
       only_selected="false" /><inkscape:path-effect
       effect="powerstroke"
       id="path-effect2420"
       is_visible="true"
       lpeversion="1"
       offset_points="0,4.9921382"
       not_jump="false"
       sort_points="true"
       interpolator_type="CubicBezierJohan"
       interpolator_beta="0.2"
       start_linecap_type="zerowidth"
       linejoin_type="extrp_arc"
       miter_limit="4"
       scale_width="0.6"
       end_linecap_type="zerowidth" /><inkscape:path-effect
       effect="bspline"
       id="path-effect2418"
       is_visible="true"
       lpeversion="1"
       weight="33.333333"
       steps="2"
       helper_size="0"
       apply_no_weight="true"
       apply_with_weight="true"
       only_selected="false" /><inkscape:path-effect
       effect="skeletal"
       id="path-effect2414"
       is_visible="true"
       lpeversion="1"
       pattern="M 0,4.9921382 C 0,2.2364779 2.2364779,0 4.9921382,0 c 2.7556604,0 4.9921383,2.2364779 4.9921383,4.9921382 0,2.7556604 -2.2364779,4.9921383 -4.9921383,4.9921383 C 2.2364779,9.9842765 0,7.7477986 0,4.9921382 Z"
       copytype="single_stretched"
       prop_scale="0.92"
       scale_y_rel="false"
       spacing="0"
       normal_offset="0"
       tang_offset="0"
       prop_units="false"
       vertical_pattern="false"
       hide_knot="false"
       fuse_tolerance="0" /><inkscape:path-effect
       effect="bspline"
       id="path-effect2412"
       is_visible="true"
       lpeversion="1"
       weight="33.333333"
       steps="2"
       helper_size="0"
       apply_no_weight="true"
       apply_with_weight="true"
       only_selected="false" /><inkscape:path-effect
       effect="skeletal"
       id="path-effect2359"
       is_visible="true"
       lpeversion="1"
       pattern="M 0,4.9921382 C 0,2.2364779 2.2364779,0 4.9921382,0 c 2.7556604,0 4.9921383,2.2364779 4.9921383,4.9921382 0,2.7556604 -2.2364779,4.9921383 -4.9921383,4.9921383 C 2.2364779,9.9842765 0,7.7477986 0,4.9921382 Z"
       copytype="single_stretched"
       prop_scale="0.43"
       scale_y_rel="false"
       spacing="0"
       normal_offset="0"
       tang_offset="0"
       prop_units="false"
       vertical_pattern="false"
       hide_knot="false"
       fuse_tolerance="0" /><inkscape:path-effect
       effect="bspline"
       id="path-effect2357"
       is_visible="true"
       lpeversion="1"
       weight="33.333333"
       steps="2"
       helper_size="0"
       apply_no_weight="true"
       apply_with_weight="true"
       only_selected="false" /><inkscape:path-effect
       effect="skeletal"
       id="path-effect2353"
       is_visible="true"
       lpeversion="1"
       pattern="M 0,4.9921382 C 0,2.2364779 2.2364779,0 4.9921382,0 c 2.7556604,0 4.9921383,2.2364779 4.9921383,4.9921382 0,2.7556604 -2.2364779,4.9921383 -4.9921383,4.9921383 C 2.2364779,9.9842765 0,7.7477986 0,4.9921382 Z"
       copytype="single_stretched"
       prop_scale="0.71"
       scale_y_rel="false"
       spacing="0"
       normal_offset="0"
       tang_offset="0"
       prop_units="false"
       vertical_pattern="false"
       hide_knot="false"
       fuse_tolerance="0" /><inkscape:path-effect
       effect="bspline"
       id="path-effect2351"
       is_visible="true"
       lpeversion="1"
       weight="33.333333"
       steps="2"
       helper_size="0"
       apply_no_weight="true"
       apply_with_weight="true"
       only_selected="false" /><inkscape:path-effect
       effect="skeletal"
       id="path-effect2347"
       is_visible="true"
       lpeversion="1"
       pattern="M 0,4.9921382 C 0,2.2364779 2.2364779,0 4.9921382,0 c 2.7556604,0 4.9921383,2.2364779 4.9921383,4.9921382 0,2.7556604 -2.2364779,4.9921383 -4.9921383,4.9921383 C 2.2364779,9.9842765 0,7.7477986 0,4.9921382 Z"
       copytype="single_stretched"
       prop_scale="0.8"
       scale_y_rel="false"
       spacing="0"
       normal_offset="0"
       tang_offset="0"
       prop_units="false"
       vertical_pattern="false"
       hide_knot="false"
       fuse_tolerance="0" /><inkscape:path-effect
       effect="bspline"
       id="path-effect2345"
       is_visible="true"
       lpeversion="1"
       weight="33.333333"
       steps="2"
       helper_size="0"
       apply_no_weight="true"
       apply_with_weight="true"
       only_selected="false" /><inkscape:path-effect
       effect="skeletal"
       id="path-effect2341"
       is_visible="true"
       lpeversion="1"
       pattern="M 0,4.9921382 C 0,2.2364779 2.2364779,0 4.9921382,0 c 2.7556604,0 4.9921383,2.2364779 4.9921383,4.9921382 0,2.7556604 -2.2364779,4.9921383 -4.9921383,4.9921383 C 2.2364779,9.9842765 0,7.7477986 0,4.9921382 Z"
       copytype="single_stretched"
       prop_scale="0.77"
       scale_y_rel="false"
       spacing="0"
       normal_offset="0"
       tang_offset="0"
       prop_units="false"
       vertical_pattern="false"
       hide_knot="false"
       fuse_tolerance="0" /><inkscape:path-effect
       effect="bspline"
       id="path-effect2339"
       is_visible="true"
       lpeversion="1"
       weight="33.333333"
       steps="2"
       helper_size="0"
       apply_no_weight="true"
       apply_with_weight="true"
       only_selected="false" /><inkscape:path-effect
       effect="bspline"
       id="path-effect2357-0"
       is_visible="true"
       lpeversion="1"
       weight="33.333333"
       steps="2"
       helper_size="0"
       apply_no_weight="true"
       apply_with_weight="true"
       only_selected="false" /><inkscape:path-effect
       effect="skeletal"
       id="path-effect2359-4"
       is_visible="true"
       lpeversion="1"
       pattern="M 0,4.9921382 C 0,2.2364779 2.2364779,0 4.9921382,0 c 2.7556604,0 4.9921383,2.2364779 4.9921383,4.9921382 0,2.7556604 -2.2364779,4.9921383 -4.9921383,4.9921383 C 2.2364779,9.9842765 0,7.7477986 0,4.9921382 Z"
       copytype="single_stretched"
       prop_scale="0.43"
       scale_y_rel="false"
       spacing="0"
       normal_offset="0"
       tang_offset="0"
       prop_units="false"
       vertical_pattern="false"
       hide_knot="false"
       fuse_tolerance="0" /><inkscape:path-effect
       effect="bspline"
       id="path-effect2357-1"
       is_visible="true"
       lpeversion="1"
       weight="33.333333"
       steps="2"
       helper_size="0"
       apply_no_weight="true"
       apply_with_weight="true"
       only_selected="false" /><inkscape:path-effect
       effect="skeletal"
       id="path-effect2359-3"
       is_visible="true"
       lpeversion="1"
       pattern="M 0,4.9921382 C 0,2.2364779 2.2364779,0 4.9921382,0 c 2.7556604,0 4.9921383,2.2364779 4.9921383,4.9921382 0,2.7556604 -2.2364779,4.9921383 -4.9921383,4.9921383 C 2.2364779,9.9842765 0,7.7477986 0,4.9921382 Z"
       copytype="single_stretched"
       prop_scale="0.43"
       scale_y_rel="false"
       spacing="0"
       normal_offset="0"
       tang_offset="0"
       prop_units="false"
       vertical_pattern="false"
       hide_knot="false"
       fuse_tolerance="0" /><inkscape:path-effect
       effect="fill_between_many"
       method="bsplinespiro"
       linkedpaths="#path2416,0,1"
       id="path-effect2422" /><inkscape:path-effect
       effect="fill_between_many"
       method="bsplinespiro"
       linkedpaths="#path2426,0,1"
       id="path-effect2432" /><inkscape:path-effect
       effect="fill_between_many"
       method="bsplinespiro"
       linkedpaths="#path2436,0,1"
       id="path-effect2442" /><inkscape:path-effect
       effect="bspline"
       id="path-effect2438-2"
       is_visible="true"
       lpeversion="1"
       weight="33.333333"
       steps="2"
       helper_size="0"
       apply_no_weight="true"
       apply_with_weight="true"
       only_selected="false" /><inkscape:path-effect
       effect="powerstroke"
       id="path-effect2440-9"
       is_visible="true"
       lpeversion="1"
       offset_points="0,4.9921382"
       not_jump="false"
       sort_points="true"
       interpolator_type="CubicBezierJohan"
       interpolator_beta="0.2"
       start_linecap_type="zerowidth"
       linejoin_type="extrp_arc"
       miter_limit="4"
       scale_width="0.5"
       end_linecap_type="zerowidth" /><inkscape:path-effect
       effect="bspline"
       id="path-effect2357-1-3"
       is_visible="true"
       lpeversion="1"
       weight="33.333333"
       steps="2"
       helper_size="0"
       apply_no_weight="true"
       apply_with_weight="true"
       only_selected="false" /><inkscape:path-effect
       effect="skeletal"
       id="path-effect2359-3-3"
       is_visible="true"
       lpeversion="1"
       pattern="M 0,4.9921382 C 0,2.2364779 2.2364779,0 4.9921382,0 c 2.7556604,0 4.9921383,2.2364779 4.9921383,4.9921382 0,2.7556604 -2.2364779,4.9921383 -4.9921383,4.9921383 C 2.2364779,9.9842765 0,7.7477986 0,4.9921382 Z"
       copytype="single_stretched"
       prop_scale="0.43"
       scale_y_rel="false"
       spacing="0"
       normal_offset="0"
       tang_offset="0"
       prop_units="false"
       vertical_pattern="false"
       hide_knot="false"
       fuse_tolerance="0" /></defs><g
     inkscape:groupmode="layer"
     id="layer2"
     inkscape:label="lines"><g
       id="g22726"><path
         style="display:inline;opacity:1;fill:#000000;fill-opacity:1;fill-rule:nonzero;stroke:#000000;stroke-width:0.294;stroke-linecap:butt;stroke-linejoin:miter;stroke-dasharray:none;stroke-opacity:1;paint-order:fill markers stroke"
         d="m 115.85071,168.47038 c 1.01174,-0.50367 2.02359,-1.00739 3.18201,-1.88955 1.15841,-0.88215 2.46354,-2.14278 3.58031,-3.39045 1.11677,-1.24767 2.04514,-2.48235 2.96047,-3.86145 0.91533,-1.3791 1.81757,-2.90258 2.84525,-4.80486 1.02768,-1.90229 2.18075,-4.18329 2.97279,-6.19787 0.79204,-2.01459 1.22301,-3.76273 1.30515,-5.02122 0.0821,-1.2585 -0.18472,-2.02742 -0.75265,-2.66887 -0.56792,-0.64146 -1.43709,-1.15529 -2.27051,-1.36701 -0.83342,-0.21172 -1.63094,-0.12112 -2.75006,0.34027 -1.11911,0.46139 -2.55958,1.29355 -4.41101,2.70826 -1.85143,1.41472 -4.11364,3.41187 -6.41548,5.68762 -2.30185,2.27575 -4.64318,4.82993 -7.19648,7.74927 -2.5533,2.91934 -5.3184,6.20364 -7.9979,9.49154 -2.679502,3.2879 -5.273239,6.57919 -8.162254,10.3447 -2.889015,3.76551 -6.073125,8.00501 -9.334797,12.45754 -3.261673,4.45254 -6.600709,9.11783 -9.098021,12.6753 -2.497312,3.55746 -4.152762,6.0069 -5.878585,8.70923 -1.725822,2.70233 -3.521904,5.65738 -4.582933,7.64151 -1.061028,1.98413 -1.386898,2.99699 -1.712827,4.01004 0.964694,-0.66939 1.92944,-1.33882 3.52297,-2.86578 1.59353,-1.52695 3.815863,-3.91142 5.913366,-6.25089 2.097504,-2.33947 4.070057,-4.63383 6.400074,-7.39978 2.330016,-2.76595 5.090652,-6.09164 8.168224,-9.85367 3.077571,-3.76203 6.508538,-8.00433 10.908695,-13.44284 4.400158,-5.43852 9.769218,-12.07289 13.807398,-16.93232 4.03817,-4.85942 6.55573,-7.72773 8.51075,-9.94181 1.95502,-2.21409 3.25266,-3.66589 4.34415,-4.91794 1.09148,-1.25206 1.97678,-2.30434 2.86207,-3.35661 0.0843,0.17431 0.16867,0.34895 -0.26425,1.45959 -0.43292,1.11064 -1.38278,3.15773 -2.30461,5.19504 -0.92183,2.03732 -1.8156,4.06474 -2.46916,5.45579 -0.65357,1.39106 -1.06692,2.14573 -1.65826,3.13783 -0.59135,0.99211 -1.36066,2.22162 -2.061,3.44447 -0.70033,1.22284 -1.33158,2.43882 -1.96289,3.65492 z m 10.89923,-77.86845 c -1.07391,0.424062 -2.14769,0.848069 -3.73239,1.821382 -1.5847,0.973314 -3.67995,2.495751 -6.36319,4.874445 -2.68325,2.378695 -5.95423,5.613433 -8.64769,8.743613 -2.69346,3.13019 -4.8092,6.15558 -6.30064,8.60644 -1.49144,2.45086 -2.358468,4.32698 -3.175979,6.67512 -0.817512,2.34813 -1.585456,5.16807 -2.087972,7.92218 -0.502516,2.75411 -0.739604,5.44217 -0.788345,8.22249 -0.04874,2.78031 0.09083,5.65267 0.253521,7.66956 0.162689,2.01688 0.348446,3.17816 0.630355,4.80084 0.281909,1.62267 0.659942,3.70661 1.08371,5.93577 0.423768,2.22917 0.893242,4.60343 1.939245,8.16866 1.046005,3.56523 2.668415,8.32118 3.870355,11.52205 1.20195,3.20087 1.98332,4.84649 2.9345,6.57993 0.95117,1.73343 2.07205,3.55456 3.34195,5.17979 1.2699,1.62523 2.68867,3.0545 4.09341,4.08752 1.40473,1.03302 2.86084,1.69987 4.03354,2.06891 1.1727,0.36904 2.09472,0.45537 3.17608,0.32675 1.08136,-0.12862 2.3221,-0.4721 3.354,-0.88166 1.03189,-0.40956 1.85498,-0.88518 3.19844,-2.21366 1.34346,-1.32849 3.20731,-3.50983 4.77486,-6.04944 1.56755,-2.53961 2.83874,-5.43743 3.66395,-8.0392 0.82522,-2.60176 1.2044,-4.90739 1.27573,-7.34939 0.0713,-2.44201 -0.16525,-5.0203 -0.90989,-7.64949 -0.74464,-2.6292 -1.99741,-5.30916 -3.67269,-7.81411 -1.67529,-2.50495 -3.77307,-4.83468 -6.08914,-6.62196 -2.31608,-1.78729 -4.85036,-3.03191 -7.58226,-4.0494 -2.73189,-1.01749 -5.66123,-1.80772 -8.17847,-2.25882 -2.51725,-0.4511 -4.62221,-0.56299 -7.44773,-0.23402 -2.82553,0.32898 -6.371341,1.09883 -9.227496,2.2635 -2.856154,1.16467 -5.022339,2.72406 -6.642834,4.34112 -1.620494,1.61706 -2.695124,3.2916 -3.523477,5.69428 -0.828354,2.40268 -1.410392,5.5332 -1.391395,8.74964 0.019,3.21643 0.638924,6.51847 1.307651,9.68646 0.668727,3.168 1.386199,6.20176 2.307607,10.23241 0.921408,4.03065 2.046695,9.05793 2.948134,13.24672 0.901439,4.18879 1.578986,7.53885 2.030976,10.34051 0.45199,2.80165 0.678432,5.05476 0.703834,6.82428 0.0254,1.76952 -0.150172,3.05542 -0.435779,4.1725 -0.285607,1.11708 -0.681203,2.06537 -1.820582,3.97027 -1.13938,1.90491 -3.022466,4.76635 -4.950818,7.71439 -1.928352,2.94803 -3.901803,5.9824 -5.875335,9.0169 2.039925,-1.67057 4.079879,-3.34116 6.347723,-5.56543 2.267844,-2.22427 4.763549,-5.00217 6.5668,-7.34761 1.803251,-2.34544 2.913995,-4.25837 3.653493,-6.04769 0.739497,-1.78932 1.107709,-3.45504 1.311658,-4.71848 0.203948,-1.26344 0.243593,-2.12459 -0.02329,-5.01266 -0.266885,-2.88806 -0.840324,-7.80287 -1.370317,-11.70467 -0.529994,-3.9018 -1.016527,-6.79038 -1.707816,-10.5563 -0.69129,-3.76592 -1.587299,-8.40893 -2.330297,-12.22198 -0.742998,-3.81304 -1.332948,-6.79592 -1.628491,-9.17426 -0.295543,-2.37834 -0.296609,-4.15198 -0.168301,-5.48344 0.128307,-1.33146 0.386027,-2.22057 0.884607,-3.35344 0.49858,-1.13288 0.672984,-1.45755 1.34787,-2.32944 0.674885,-0.87188 1.567651,-1.76492 2.392375,-2.41973 0.824724,-0.6548 1.581269,-1.07129 2.515587,-1.44227 0.934318,-0.37097 2.046269,-0.69641 3.591315,-0.97069 1.54505,-0.27427 3.52304,-0.49739 5.43261,-0.49735 1.90957,3e-5 3.75057,0.22315 5.52562,0.62722 1.77504,0.40407 3.48401,0.989 5.30167,1.82803 1.81766,0.83902 3.7439,1.93202 5.57275,3.39954 1.82885,1.46752 3.5191,3.26557 4.67972,4.92994 1.16063,1.66436 1.7711,3.17299 2.15575,4.92065 0.38465,1.74765 0.54356,3.73424 0.37732,5.83361 -0.16623,2.09936 -0.65754,4.31145 -1.4412,6.46539 -0.78366,2.15395 -1.8596,4.2497 -2.83533,5.78669 -0.97574,1.537 -1.85126,2.51523 -2.60562,3.15298 -0.75437,0.63776 -1.38767,0.93506 -1.95633,0.99371 -0.56866,0.0586 -1.42345,-0.24684 -2.42373,-1.12547 -1.00028,-0.87863 -2.32122,-2.39317 -3.52248,-4.14562 -1.20126,-1.75245 -2.2827,-3.74274 -3.09656,-5.3631 -0.81387,-1.62036 -1.36008,-2.87072 -2.3683,-5.68671 -1.00823,-2.81599 -2.47835,-7.19742 -3.49965,-10.60895 -1.0213,-3.41154 -1.59368,-5.85299 -2.10479,-9.04433 -0.5111,-3.19134 -0.96085,-7.13236 -1.21637,-10.10027 -0.25553,-2.9679 -0.31678,-4.96251 -0.15151,-7.28275 0.16527,-2.32024 0.5571,-4.96591 1.21097,-7.55281 0.65388,-2.58691 1.56979,-5.11481 2.88044,-7.80104 1.31065,-2.68623 3.01596,-5.53059 4.82067,-8.14814 1.80471,-2.61755 3.7087,-5.00812 5.69477,-7.32165 1.98606,-2.313522 4.07274,-4.570055 5.77125,-6.425341 1.6985,-1.855286 3.01809,-3.319344 4.33769,-4.783419 0,0 -2e-5,0 -2e-5,0 z"
         id="path21914"
         inkscape:path-effect="#path-effect21916"
         inkscape:original-d="m 115.85071,168.47038 c 0,0 2.02375,-1.00708 3.03523,-1.51101 1.30545,-1.26042 2.61058,-2.52105 3.91547,-3.78197 0.92868,-1.23447 1.85706,-2.46915 2.78519,-3.70412 0.90254,-1.52327 1.80478,-3.04674 2.70677,-4.57051 1.15337,-2.28083 2.30644,-4.56183 3.45927,-6.84313 0.43125,-1.74795 0.86222,-3.49609 1.29294,-5.24454 -0.2666,-0.76867 -0.53346,-1.53759 -0.80058,-2.30678 -0.86893,-0.51359 -1.7381,-1.02742 -2.60754,-1.54153 -0.79731,0.0909 -1.59484,0.18148 -2.39266,0.27183 -1.44026,0.83245 -2.88073,1.66461 -4.32149,2.49652 -2.26203,1.99749 -4.52424,3.99464 -6.78675,5.99156 -2.34116,2.55455 -4.68248,5.10873 -7.02412,7.6627 -2.76495,3.2847 -5.53005,6.56901 -8.29548,9.85311 -2.593568,3.29168 -5.187303,6.58297 -7.781354,9.87405 -3.183975,4.23994 -6.36809,8.47943 -9.55253,12.71875 -3.338902,4.66574 -6.677935,9.33104 -10.0173,13.99616 -1.655254,2.4498 -3.310707,4.89923 -4.966456,7.34845 -1.795889,2.95543 -3.59197,5.91048 -5.388351,8.86532 -0.32567,1.01333 -0.977786,3.03914 -0.977786,3.03914 0,0 1.929651,-1.33852 2.894081,-2.00818 2.222691,-2.3843 4.445027,-4.76876 6.667143,-7.15354 1.9729,-2.29418 3.945456,-4.58853 5.917784,-6.8832 2.687998,-3.237 5.44834,-6.56293 8.172114,-9.84479 3.431371,-4.24221 6.862339,-8.48451 10.293112,-12.72716 5.369543,-6.63437 10.738603,-13.26875 16.107513,-19.90352 2.6649,-3.1214 5.22499,-5.95237 7.83708,-8.92895 1.29795,-1.45159 2.59559,-2.90339 3.89299,-4.35548 0.88557,-1.05203 2.65588,-3.15682 2.65588,-3.15682 0,0 0.16878,0.3489 0.25277,0.52294 -0.94962,2.04744 -1.89947,4.09453 -2.84961,6.14139 -0.89353,2.02776 -1.78729,4.05518 -2.68134,6.08236 -0.4131,0.75496 -0.82644,1.50963 -1.24006,2.26404 -0.76908,1.22982 -1.5384,2.45933 -2.30799,3.68861 -0.63106,1.21639 -1.89394,3.6483 -1.89394,3.6483 z m 10.89923,-77.86845 c 0,0 -2.14756,0.848388 -3.22174,1.272186 -2.09546,1.522357 -4.19038,3.045247 -6.28597,4.567474 -3.27085,3.23513 -6.54184,6.46986 -9.81316,9.7044 -2.11556,3.02578 -4.2313,6.05117 -6.34735,9.07636 -0.86681,1.87647 -1.73384,3.75259 -2.601156,5.62849 -0.767711,2.82031 -1.535657,5.64024 -2.303882,8.45997 -0.236834,2.68844 -0.473922,5.3765 -0.71128,8.06436 0.139843,2.87273 0.279416,5.74509 0.418727,8.61724 0.186031,1.1616 0.37179,2.32288 0.557288,3.48393 0.378311,2.08429 0.756343,4.16823 1.134118,6.25194 0.469757,2.37462 0.93923,4.74888 1.408449,7.12292 1.622736,4.75641 3.245146,9.51236 4.867326,14.26814 0.78167,1.64596 1.56304,3.29158 2.34417,4.93698 1.12119,1.82147 2.24206,3.64261 3.3627,5.46352 1.41909,1.42959 2.83786,2.85886 4.2564,4.28789 1.38764,0.6442 2.84699,1.30398 4.27009,1.95558 0.92233,0.0866 1.84435,0.17293 2.76612,0.259 1.24106,-0.34323 2.4818,-0.68672 3.72229,-1.03047 0.82339,-0.47537 1.64648,-0.95098 2.46932,-1.42687 1.86419,-2.18116 3.72804,-4.3625 5.59166,-6.54415 1.27151,-2.89767 2.5427,-5.79549 3.81365,-8.69364 0.37946,-2.30547 0.75864,-4.6111 1.13756,-6.91705 -0.23633,-2.57813 -0.47291,-5.15642 -0.70975,-7.73503 -1.25256,-2.67981 -2.50532,-5.35977 -3.75838,-8.04006 -2.09761,-2.32957 -4.19539,-4.6593 -6.29349,-6.98935 -2.53412,-1.24441 -5.0684,-2.48903 -7.603,-3.73393 -2.92919,-0.79 -5.85853,-1.58023 -8.7882,-2.37074 -2.10478,-0.11162 -4.20974,-0.22351 -6.31501,-0.33566 -3.5457,0.77015 -7.091515,1.54001 -10.637667,2.30962 -2.166007,1.55972 -4.332193,3.11911 -6.498687,4.67827 -1.074405,1.67486 -2.149031,3.3494 -3.223944,5.0237 -0.581799,3.13092 -1.163839,6.26144 -1.746155,9.39177 0.620216,3.30244 1.240143,6.60448 1.859817,9.90632 0.717764,3.03414 1.435235,6.0679 2.152455,9.10145 1.125598,5.02776 2.250887,10.05504 3.375934,15.08216 0.677839,3.35046 1.355386,6.70052 2.032683,10.05039 0.226715,2.25346 0.453157,4.50657 0.679339,6.75946 -0.175316,1.28621 -0.350891,2.57211 -0.526733,3.85776 -0.395348,0.9486 -0.790945,1.89689 -1.186814,2.84494 -1.882902,2.86183 -3.765993,5.72327 -5.649386,8.58452 -1.973307,3.03482 -5.920596,9.10349 -5.920596,9.10349 0,0 4.080114,-3.34087 6.119775,-5.0117 2.496067,-2.77775 4.991771,-5.55565 7.48726,-8.33386 1.111052,-1.91274 2.221795,-3.82567 3.332296,-5.7389 0.368491,-1.66552 0.736702,-3.33124 1.104657,-4.99726 0.03991,-0.86092 0.07955,-1.72207 0.118936,-2.58351 -0.573197,-4.91473 -1.146635,-9.82954 -1.72035,-14.74471 -0.486288,-2.88844 -0.972822,-5.77702 -1.45963,-8.66593 -0.89578,-4.64293 -1.791788,-9.28594 -2.688079,-13.92931 -0.589707,-2.98272 -1.179655,-5.9656 -1.76988,-8.94879 -8.08e-4,-1.77345 -0.0019,-3.54709 -0.0032,-5.32103 0.257995,-0.88889 0.515716,-1.778 0.773177,-2.66739 0.882593,-1.29952 0.914104,-1.70095 1.37076,-2.55182 0.893065,-0.89281 1.78583,-1.78585 2.678348,-2.67917 0.756839,-0.41624 1.513384,-0.83273 2.269679,-1.24949 1.11226,-0.32519 2.224211,-0.65063 3.335919,-0.97634 1.978326,-0.22286 3.956316,-0.44598 5.934066,-0.66936 1.84133,0.22339 3.68233,0.4465 5.52309,0.66936 1.70931,0.58522 3.41828,1.17015 5.12703,1.75483 1.92657,1.0933 3.85281,2.18629 5.77881,3.27904 1.72724,1.84645 3.42201,3.64025 5.13262,5.45998 0.61076,1.50896 1.22123,3.01759 1.83145,4.52599 0.15919,1.98694 0.3181,3.97353 0.47676,5.95991 -0.49107,2.21244 -0.98238,4.42453 -1.47396,6.6364 -1.07572,2.09611 -2.15166,4.19186 -3.22789,6.2874 -0.87528,0.97854 -1.7508,1.95677 -2.6266,2.93476 -0.63306,0.29758 -1.26636,0.59489 -1.89993,0.89194 -0.59202,0.0665 -1.35874,-0.48541 -2.03851,-0.72851 -1.32072,-1.51433 -2.64165,-3.02887 -3.96288,-4.54369 -1.08122,-1.99011 -2.16266,-3.9804 -3.24439,-5.97099 -0.54597,-1.25014 -1.09219,-2.50049 -1.63868,-3.75114 -1.46992,-4.38133 -2.94004,-8.76276 -4.41046,-13.14453 -0.57215,-2.44129 -1.14453,-4.88274 -1.71719,-7.3245 -0.44951,-3.94091 -0.89926,-7.88193 -1.34929,-11.82329 -0.061,-1.99443 -0.12224,-3.98904 -0.18376,-5.98396 0.3921,-2.64551 0.78393,-5.29118 1.17549,-7.93717 0.91621,-2.52774 1.83212,-5.05564 2.74778,-7.58385 1.70563,-2.84419 3.41094,-5.68854 5.11601,-8.5332 1.90433,-2.3904 3.80832,-4.78097 5.71209,-7.17185 2.37823,-1.949587 4.15503,-4.492678 6.23214,-6.739415 1.3199,-1.463839 3.95881,-4.392225 3.95881,-4.392225 z" /><path
         style="opacity:1;fill:#000000;fill-opacity:1;fill-rule:nonzero;stroke:#000000;stroke-width:0.294;stroke-linecap:square;stroke-linejoin:miter;stroke-dasharray:none;stroke-opacity:1;paint-order:fill markers stroke"
         d="m 27.683753,206.31982 c 3.450957,-4.62497 6.901881,-9.2499 9.947869,-13.39519 3.045988,-4.1453 5.686904,-7.81076 8.258041,-11.29911 2.571136,-3.48835 5.072333,-6.79936 7.28813,-9.79089 2.215797,-2.99154 4.146074,-5.66342 6.14348,-8.75228 1.997406,-3.08885 4.061836,-6.59451 6.039726,-10.46254 1.97789,-3.86802 3.869129,-8.09821 6.004049,-12.06982 2.13492,-3.97162 4.513372,-7.68436 7.220226,-10.62857 2.706853,-2.94422 5.741846,-5.11965 8.387869,-6.66858 2.646023,-1.54893 4.902846,-2.47127 6.695058,-3.08437 1.792212,-0.6131 3.119655,-0.91693 5.686965,-1.16462 2.567314,-0.2477 6.374264,-0.43927 10.236884,-0.26278 3.86262,0.17649 7.78064,0.72099 11.29053,1.55755 3.50989,0.83657 6.61143,1.96508 8.92696,3.00658 2.31553,1.04149 3.84492,1.99583 5.0099,2.85777 1.16499,0.86193 1.96526,1.63108 2.76583,2.40051 2.2846,-2.30951 4.5692,-4.61901 9.18873,-9.48936 4.61954,-4.87035 11.57375,-12.30127 18.52809,-19.732329 -3.95049,5.584159 -7.90102,11.168379 -11.79919,16.714939 -3.89817,5.54656 -7.74383,11.05524 -11.5896,16.56408 1.59968,2.24497 3.19957,4.49024 4.16624,5.90332 0.96668,1.41309 1.30038,1.99426 1.6843,2.60067 0.38392,0.60642 0.81778,1.23773 1.25187,1.86937 3.06919,-2.43031 6.13841,-4.86065 8.93416,-7.3271 2.79574,-2.46644 5.07077,-4.72367 7.46945,-7.10359 -3.53118,5.16951 -7.06239,10.33907 -9.44277,13.8411 -2.38037,3.50202 -3.60984,5.33643 -4.83938,7.17093 0.62652,3.18392 1.25309,6.36815 1.63864,10.01678 0.38555,3.64864 0.53018,7.76185 0.0309,11.59249 -0.49926,3.83065 -1.64228,7.3786 -3.28007,10.97717 -1.63778,3.59857 -3.8159,7.32578 -6.69795,11.55577 -2.88205,4.22998 -6.4907,9.00159 -10.06146,13.40426 -3.57076,4.40267 -7.10343,8.43614 -10.73056,12.7209 -3.62712,4.28475 -7.34843,8.82047 -11.06984,13.35632 6.31697,-9.8728 12.63389,-19.74554 17.16933,-26.83563 4.53544,-7.09009 7.28923,-11.39731 9.55786,-15.42586 2.26863,-4.02855 4.05199,-7.77825 5.30178,-10.74091 1.24979,-2.96265 1.96596,-5.13815 2.27908,-7.61849 0.31312,-2.48034 0.22313,-5.26547 0.0534,-7.5659 -0.1697,-2.30042 -0.41913,-4.11602 -0.69465,-5.70289 -0.27553,-1.58688 -0.57717,-2.94494 -1.05263,-4.60102 -0.47547,-1.65609 -1.12476,-3.6101 -1.79721,-5.29617 -0.67246,-1.68608 -1.36807,-3.10412 -2.48563,-4.87754 -1.11756,-1.77342 -2.65706,-3.90208 -4.31071,-5.78804 -1.65364,-1.88596 -3.37519,-3.48611 -4.81352,-4.64243 -1.43833,-1.15631 -2.5703,-1.8472 -3.84606,-2.4844 -1.27575,-0.6372 -2.69521,-1.22062 -3.92099,-1.65788 -1.22578,-0.43726 -2.2578,-0.7283 -3.74529,-1.04924 -1.48749,-0.32094 -3.43034,-0.67172 -5.82069,-0.92425 -2.39036,-0.25253 -5.22803,-0.40674 -8.88341,0.0215 -3.65538,0.4282 -8.128152,1.43884 -11.533484,2.71439 -3.405332,1.27555 -5.742915,2.81591 -7.930804,5.06684 -2.187889,2.25092 -4.225854,5.21215 -5.969281,8.08649 -1.743426,2.87434 -3.192203,5.66158 -4.828296,8.65712 -1.636094,2.99554 -3.459406,6.19921 -6.223773,9.93024 -2.764367,3.73102 -6.469635,7.98924 -9.776267,11.6979 -3.306632,3.70867 -6.214437,6.86757 -11.150035,12.13551 -4.935598,5.26794 -11.898651,12.64455 -18.861847,20.02132 z"
         id="path22649"
         inkscape:path-effect="#path-effect22651"
         inkscape:original-d="m 27.683753,206.31982 c 0,0 6.90218,-9.24968 10.352871,-13.87492 2.641285,-3.66535 5.2822,-7.33082 7.922903,-10.99662 2.501564,-3.31089 5.002762,-6.6219 7.503747,-9.93324 1.930614,-2.67173 3.86089,-5.34362 5.790938,-8.01582 2.064777,-3.50554 4.129206,-7.0112 6.193414,-10.51719 1.891581,-4.2301 3.782822,-8.46029 5.673839,-12.69084 2.37881,-3.71262 4.757261,-7.42536 7.135495,-11.13843 3.035379,-2.17526 6.070372,-4.35069 9.105159,-6.52642 2.257179,-0.92211 4.514003,-1.84445 6.770605,-2.76708 1.327759,-0.30358 2.655202,-0.60741 3.982405,-0.91151 3.807361,-0.19132 7.614311,-0.3829 11.421071,-0.57474 3.91844,0.54478 7.83646,1.08927 11.7543,1.63351 3.10192,1.12882 6.20346,2.25733 9.3048,3.3856 1.52972,0.95465 3.05911,1.90899 4.58827,2.86308 0.80085,0.76971 2.4017,2.30828 2.4017,2.30828 0,0 4.56946,-4.61875 6.8538,-6.92852 6.95474,-7.43094 20.86302,-22.293169 20.86302,-22.293169 0,0 -7.90072,11.168589 -11.85148,16.752489 -3.84558,5.50922 -11.53731,16.52653 -11.53731,16.52653 0,0 3.19962,4.4902 4.79903,6.73491 0.33398,0.58145 0.66768,1.16262 1.00112,1.74354 0.43436,0.63192 1.30226,1.89491 1.30226,1.89491 0,0 6.13864,-4.86036 9.20757,-7.29094 2.42235,-2.60337 7.19604,-7.13975 7.19604,-7.13975 0,0 -7.06209,10.33928 -10.59353,15.50852 -1.2293,1.83481 -3.68862,5.50351 -3.68862,5.50351 0,0 1.2533,6.36811 1.87955,9.55177 0.1449,4.11364 0.28953,8.22685 0.43389,12.33988 -1.14281,3.54837 -2.28584,7.09632 -3.42915,10.64409 -2.1551,3.6361 -4.31039,7.37666 -6.46597,11.0646 -3.60853,4.77207 -7.21717,9.54369 -10.82616,14.31514 -3.53255,4.0339 -7.06522,8.06738 -10.59823,12.10067 -3.72123,4.53621 -11.16424,13.60754 -11.16424,13.60754 0,0 12.6342,-19.74534 18.95091,-29.61841 2.75416,-4.30712 5.50796,-8.61433 8.26154,-12.92189 1.78369,-3.74959 3.56705,-7.49929 5.35017,-11.24933 0.71646,-2.17532 1.43262,-4.35082 2.14854,-6.52663 -0.0897,-2.78498 -0.17973,-5.57011 -0.26999,-8.35556 -0.24917,-1.81542 -0.4986,-3.63102 -0.7483,-5.44693 -0.30138,-1.35785 -0.60302,-2.71591 -0.90493,-4.07427 -0.64906,-1.95382 -1.29835,-3.90783 -1.94793,-5.86215 -0.69538,-1.41783 -1.39099,-2.83587 -2.08688,-4.2542 -1.5393,-2.12849 -3.07879,-4.25716 -4.61859,-6.38614 -1.77006,-1.64019 -3.4891,-3.24304 -5.23404,-4.86496 -1.13175,-0.69065 -2.26373,-1.38153 -3.39599,-2.0727 -1.41926,-0.58317 -2.83872,-1.16659 -4.25848,-1.75029 -1.03179,-0.29078 -2.06381,-0.58182 -3.09611,-0.87313 -1.94267,-0.35053 -3.88552,-0.70132 -5.82868,-1.05238 -2.83752,-0.15396 -5.67519,-0.30818 -8.51319,-0.46266 -4.47268,1.01095 -8.945453,2.02159 -13.418575,3.03199 -2.337411,1.54069 -4.674992,3.08106 -7.012884,4.62119 -2.037782,2.96162 -4.075748,5.92285 -6.114018,8.88387 -1.44857,2.78762 -2.897347,5.57486 -4.346419,8.36189 -1.82312,3.20406 -3.646432,6.40773 -5.470044,9.6112 -3.705153,4.25865 -7.410423,8.51686 -11.116032,12.7749 -2.907659,3.1593 -5.815467,6.3182 -8.723598,9.47691 -6.963071,7.37717 -20.889587,22.1303 -20.889587,22.1303 z" /></g></g><g
     inkscape:groupmode="layer"
     id="layer5"
     inkscape:label="Layer 2"><path
       style="display:inline;opacity:1;fill:#000000;fill-opacity:1;fill-rule:nonzero;stroke:#000000;stroke-width:0.294;stroke-linecap:square;stroke-linejoin:miter;stroke-dasharray:none;stroke-opacity:1;paint-order:fill markers stroke"
       d="m 138.0762,212.9886 c 0.22363,-1.58058 0.44723,-3.16094 0.45488,-5.20761 0.008,-2.04667 -0.20071,-4.55939 -0.5704,-7.84865 -0.3697,-3.28926 -0.9007,-7.35485 -1.3631,-10.23157 -0.46239,-2.87671 -0.85619,-4.56441 -1.42482,-6.69127 -0.56863,-2.12686 -1.31207,-4.69275 -2.7414,-6.85473 -1.42932,-2.16198 -3.54462,-3.91984 -5.09749,-4.87377 -1.55288,-0.95394 -2.54326,-1.10372 -3.78032,-0.9547 -1.23706,0.14902 -2.72058,0.59692 -4.28734,1.46426 -1.56676,0.86734 -3.21652,2.15402 -5.85225,4.94146 -2.63572,2.78744 -6.25718,7.07539 -8.94747,10.33902 -2.6903,3.26362 -4.44928,5.50274 -5.442585,6.81939 -0.993302,1.31665 -1.220858,1.71073 -2.70821,3.11709 -1.487353,1.40635 -4.234453,3.82497 -5.75358,5.04472 -1.519126,1.21975 -1.810436,1.24058 -2.190053,1.07765 -0.379617,-0.16292 -0.847558,-0.50983 -1.444602,-1.22039 -0.597044,-0.71056 -1.32305,-1.7848 -2.431447,-4.33015 -1.108396,-2.54536 -2.599024,-6.56167 -3.620398,-9.52662 -1.021374,-2.96496 -1.57342,-4.87842 -2.363534,-7.57067 -0.790115,-2.69225 -1.81825,-6.16312 -2.732442,-8.74058 -0.914192,-2.57747 -1.714599,-4.26171 -2.514869,-5.94567 -0.198454,2.16881 -0.39693,4.33786 -0.288046,7.08636 0.108884,2.7485 0.525032,6.0765 1.010486,9.27336 0.485453,3.19687 1.040164,6.26241 1.532682,8.62582 0.492519,2.36341 0.922793,4.02456 1.949581,6.58036 1.026787,2.5558 2.649949,6.00609 4.150696,8.25974 1.500746,2.25364 2.878845,3.31062 4.121431,3.93675 1.242586,0.62613 2.349579,0.82154 3.267443,0.86429 0.917864,0.0427 1.646633,-0.0671 3.575572,-1.24889 1.928939,-1.18178 5.058086,-3.43541 7.986725,-6.20074 2.92864,-2.76534 5.65668,-6.04227 7.91711,-8.8389 2.26043,-2.79664 4.05313,-5.11282 5.89157,-7.36065 1.83844,-2.24783 3.72249,-4.42714 4.89474,-5.7315 1.17225,-1.30436 1.63262,-1.73367 2.25662,-2.21537 0.624,-0.4817 1.41153,-1.01573 2.11758,-1.16574 0.70605,-0.15002 1.33032,0.0838 1.96695,0.68528 0.63663,0.60144 1.28568,1.57026 2.23138,3.78816 0.94569,2.21789 2.18804,5.68468 3.1109,8.53839 0.92286,2.85371 1.52621,5.09418 2.25997,7.79949 0.73376,2.70532 1.59787,5.8753 2.42933,8.37228 0.83145,2.49697 1.63,4.32047 2.42871,6.14433 0,0 0,-3e-5 0,-3e-5 z"
       id="path22659"
       inkscape:path-effect="#path-effect22661"
       inkscape:original-d="m 138.0762,212.9886 c 0,0 0.44752,-3.1609 0.67089,-4.74174 -0.20812,-2.51256 -0.41649,-5.02528 -0.62512,-7.53832 -0.53076,-4.06549 -1.06176,-8.13108 -1.59304,-12.19702 -0.39355,-1.68751 -0.78735,-3.3752 -1.18142,-5.0632 -0.74321,-2.56573 -1.48665,-5.13162 -2.23037,-7.69783 -2.11512,-1.75767 -4.23042,-3.51553 -6.34602,-5.27369 -0.99016,-0.14952 -1.98054,-0.2993 -2.97121,-0.44935 -1.48332,0.44819 -2.96684,0.89609 -4.45066,1.34374 -1.64957,1.287 -3.29933,2.57368 -4.9494,3.86013 -3.62133,4.28838 -7.24278,8.57634 -10.86458,12.86411 -1.75879,2.23946 -3.51777,4.47858 -5.277054,6.71747 -0.227301,0.39436 -0.454858,0.78844 -0.682683,1.18227 -2.746944,2.41898 -5.494044,4.8376 -8.241461,7.256 -0.291063,0.0211 -0.582375,0.0419 -0.873959,0.0625 -0.467701,-0.34666 -0.935646,-0.69356 -1.403866,-1.04075 -0.725773,-1.07402 -1.451779,-2.14826 -2.178066,-3.22279 -1.490421,-4.01619 -2.981044,-8.0325 -4.471963,-12.04914 -0.551805,-1.91327 -1.10385,-3.82673 -1.65617,-5.74049 -1.027912,-3.47074 -2.056048,-6.94161 -3.084468,-10.41282 -0.800023,-1.68372 -2.40081,-5.05187 -2.40081,-5.05187 0,0 -0.396645,4.33789 -0.595363,6.50644 0.416428,3.32839 0.832578,6.65639 1.248468,9.98418 0.554998,3.06593 1.109708,6.13147 1.664166,9.19681 0.430554,1.66147 0.860827,3.32262 1.290844,4.98353 1.623491,3.45069 3.246654,6.90098 4.869584,10.35108 1.378419,1.05728 2.756517,2.11426 4.13438,3.171 1.107299,0.19569 2.214292,0.39111 3.321042,0.58626 0.729062,-0.10958 1.45783,-0.21943 2.186347,-0.32954 3.129531,-2.25345 6.258676,-4.50708 9.387622,-6.76101 2.72841,-3.2768 5.45644,-6.55373 8.18427,-9.83099 1.79304,-2.31602 3.58574,-4.63221 5.37822,-6.94871 1.88439,-2.17914 3.76844,-4.35845 5.65226,-6.53807 0.46065,-0.42907 0.92102,-0.85838 1.38114,-1.28796 0.78783,-0.53379 1.57536,-1.06782 2.36265,-1.60212 0.62456,0.23411 1.24883,0.46796 1.87285,0.70155 0.64935,0.96912 1.29841,1.93794 1.94721,2.90652 1.24267,3.4672 2.48502,6.93399 3.72713,10.40059 0.60364,2.24082 1.20699,4.48129 1.81009,6.72154 0.86441,3.17038 1.72853,6.34036 2.5924,9.51015 0.79898,1.82416 2.39612,5.47157 2.39612,5.47157 z" /></g><g
     inkscape:groupmode="layer"
     id="layer6"
     inkscape:label="Layer 3"><path
       style="opacity:1;fill:#000000;fill-opacity:1;fill-rule:nonzero;stroke:#000000;stroke-width:0.294;stroke-linecap:square;stroke-linejoin:miter;stroke-dasharray:none;stroke-opacity:1;paint-order:fill markers stroke"
       d="m 145.67336,94.085195 c -6.14456,6.793105 -12.28913,13.586235 -18.35396,20.483415 -6.06484,6.89717 -12.04971,13.89814 -17.75046,20.61748 -5.70076,6.71935 -11.117064,13.15668 -15.977272,18.9669 -4.860208,5.81022 -9.164026,10.99298 -13.153873,15.83269 -3.989847,4.8397 -7.665488,9.33607 -11.301254,13.93126 -3.635765,4.59519 -7.231399,9.28887 -10.827138,13.98269 4.123784,-4.46791 8.24756,-8.9358 11.879189,-12.98113 3.631629,-4.04532 6.770982,-7.66792 10.567981,-12.08819 3.796999,-4.42026 8.251406,-9.63791 13.494417,-15.83011 5.243011,-6.1922 11.27429,-13.35855 17.06625,-20.29454 5.79195,-6.93599 11.34424,-13.64121 15.95304,-19.25731 4.6088,-5.61611 8.27385,-10.1428 11.18378,-13.85514 2.90992,-3.712332 5.06461,-6.610167 7.2193,-9.508015 z"
       id="path22664"
       inkscape:path-effect="#path-effect22666"
       inkscape:original-d="m 145.67336,94.085195 c 0,0 -12.28885,13.586485 -18.43367,20.379325 -5.98484,7.00151 -11.96971,14.00247 -17.95496,21.0033 -5.41626,6.43786 -10.832572,12.87519 -16.249257,19.3124 -4.303725,5.18323 -8.607541,10.36599 -12.911711,15.54858 -3.675523,4.49682 -7.351165,8.99319 -11.027143,13.48938 -3.595547,4.69418 -10.787216,14.08145 -10.787216,14.08145 0,0 8.247835,-8.93555 12.371353,-13.40372 3.139745,-3.62249 6.2791,-7.24509 9.418251,-10.86803 4.454851,-5.21759 8.909257,-10.43524 13.363488,-15.65326 6.031791,-7.16638 12.063075,-14.33273 18.094215,-21.4995 5.55277,-6.70521 11.10506,-13.41043 16.65719,-20.11604 3.66546,-4.52661 7.33052,-9.0533 10.99538,-13.58034 2.155,-2.897641 6.46408,-8.693545 6.46408,-8.693545 z" /></g></svg>
