<svg xmlns:inkscape="http://www.inkscape.org/namespaces/inkscape" xmlns:sodipodi="http://sodipodi.sourceforge.net/DTD/sodipodi-0.dtd" xmlns="http://www.w3.org/2000/svg" xmlns:svg="http://www.w3.org/2000/svg" width="841mm" height="1189mm" viewBox="0 0 841 1189" id="svg18221" inkscape:version="1.2.1 (9c6d41e410, 2022-07-14)" sodipodi:docname="hollyMolly.svg"><defs id="defs18218"><filter style="color-interpolation-filters:sRGB" inkscape:label="Deep Chrome" id="filter22152" x="-0.76050199" y="-0.80217332" width="2.6355876" height="2.6889941" inkscape:menu-tooltip="Dark chrome effect" inkscape:menu="Non-Realistic 3D Shaders"><feGaussianBlur stdDeviation="18.6916" id="feGaussianBlur22146"></feGaussianBlur><feGaussianBlur id="feGaussianBlur26315" stdDeviation="5"></feGaussianBlur></filter><filter style="color-interpolation-filters:sRGB;" inkscape:label="Drop Shadow" id="filter23688" x="-0.50521797" y="-0.53290114" width="2.1482684" height="2.1676246"><feGaussianBlur stdDeviation="13.0841" id="feGaussianBlur23682"></feGaussianBlur></filter><filter style="color-interpolation-filters:sRGB" inkscape:label="Deep Chrome" inkscape:menu-tooltip="Dark chrome effect" inkscape:menu="Non-Realistic 3D Shaders" height="2.0036767" y="-0.50183835" width="2.0036767" x="-0.50183835" id="filter26311"><feGaussianBlur stdDeviation="5" id="feGaussianBlur26293"></feGaussianBlur></filter></defs><g inkscape:label="Layer 1" inkscape:groupmode="layer" id="layer1"><g id="g27529"><g id="g27144" inkscape:transform-center-x="102.88846" inkscape:transform-center-y="-167.79763" transform="rotate(-70.780732,297.3239,803.69983)"><path style="opacity:0.572368;fill:#1e7920;fill-opacity:1;stroke:none;stroke-width:1;stop-color:#000000" d="m 263.19258,833.17663 c 26.16161,-40.41322 52.32328,-80.82653 62.00515,-119.24196 9.68188,-38.41543 2.88411,-74.83208 -3.91374,-111.24917 16.50432,10.78748 33.00894,21.57516 51.13735,23.69504 18.12842,2.11987 37.88027,-4.42735 51.82897,-18.37618 13.94869,-13.94883 22.0937,-35.29847 23.50131,-54.81016 1.40762,-19.51169 -4.07975,-37.70666 -9.48844,-55.64072 17.08006,10.81737 34.16043,21.63493 55.73435,19.67645 21.57392,-1.95847 47.88476,-16.82982 64.8225,-29.49759 16.93774,-12.66777 24.62365,-23.20031 32.30967,-33.73301 -6.83202,27.04343 -13.66409,54.08704 -13.66394,75.741 1.6e-4,21.65397 6.83205,37.91769 14.51825,49.16207 7.68619,11.24438 16.22575,17.46874 24.76578,23.69344 -12.52538,-1.42334 -25.05046,-2.84664 -41.56149,1.99278 -16.51102,4.83941 -37.00668,15.94123 -50.95554,37.57641 -13.94886,21.63519 -21.35007,53.80199 -21.63456,76.29092 -0.28449,22.48894 6.54723,35.29841 13.37925,48.10846 -18.21873,-3.98535 -36.43716,-7.97063 -55.22544,-9.394 -18.78829,-1.42337 -38.14531,-0.28472 -67.4665,5.55106 -29.32119,5.83577 -68.60454,16.36826 -91.94747,28.89386 -23.34294,12.5256 -30.74416,27.04336 -38.14546,41.5613" id="path27134" inkscape:path-effect="#path-effect27148" inkscape:original-d="M 263.19258,833.17663 C 289.3545,792.76361 315.51616,752.3503 341.67754,711.93677 334.87982,675.5192 321.28399,602.6855 321.28399,602.6855 c 0,0 33.0089,21.57523 49.51296,32.36245 19.75291,-6.54722 39.50477,-13.09444 59.25676,-19.64206 8.1456,-21.35024 16.29062,-42.69988 24.43553,-64.05022 -5.40853,-17.64948 -16.22606,-53.80219 -16.22606,-53.80219 0,0 34.16038,21.63501 51.24018,32.45211 26.19021,-14.51807 52.37911,-29.60517 78.56827,-44.40815 7.68644,-10.53265 23.05807,-31.59811 23.05807,-31.59811 0,0 -13.66378,54.08712 -20.49607,81.13028 6.83243,16.26463 13.66432,32.52835 20.49607,48.79213 8.54047,6.22509 25.62009,18.6741 25.62009,18.6741 0,0 -25.05049,-2.84641 -37.57613,-4.27001 -20.49621,11.10252 -40.99187,22.20434 -61.48821,33.30611 -7.40124,32.16835 -14.80245,64.33515 -22.20407,96.50233 6.83242,12.81057 20.49607,38.43014 20.49607,38.43014 0,0 -36.4372,-7.97043 -54.65619,-11.95605 -19.35752,1.13896 -38.71454,2.27761 -58.0722,3.41602 -39.28466,10.53317 -78.568,21.06567 -117.8524,31.5981 -7.40125,14.51861 -14.80246,29.03637 -22.20408,43.55415" sodipodi:nodetypes="ccccccccccccccccccccc"></path><path style="opacity:0.572368;fill:#156f47;fill-opacity:1;stroke:none;stroke-width:1.11153;stop-color:#000000" d="m 273.023,826.38589 c 22.07262,-24.24592 44.14482,-48.49139 52.1885,-85.77538 8.04367,-37.28398 2.05812,-87.60415 -3.92751,-137.92501 9.00348,17.86368 18.00712,35.72769 33.48671,41.02046 15.47959,5.29277 37.43442,-1.98467 52.93884,-17.48925 15.50442,-15.50457 24.55786,-39.23539 28.58247,-61.89126 4.0246,-22.65587 2.99047,-44.87317 1.97117,-66.77197 13.99241,13.98836 27.98511,27.97701 49.46893,26.78232 21.48382,-1.1947 50.72917,-17.72468 69.55601,-31.80531 18.82685,-14.08063 27.36998,-25.78789 35.91324,-37.49533 -7.59401,30.05964 -15.18808,60.11949 -15.1879,84.18857 1.7e-4,24.06907 7.59404,42.14672 15.31595,51.7102 7.72191,9.56348 15.5709,10.61266 23.42038,11.66191 -12.27932,4.28762 -24.55845,8.57518 -42.08939,16.88926 -17.53095,8.31407 -40.31254,20.6541 -55.81714,44.7023 -15.50461,24.0482 -23.73129,59.80264 -22.99571,78.81674 0.73557,19.0141 10.43247,21.28712 20.1299,23.56027 -18.40848,-3.13133 -36.81631,-6.26256 -57.26538,-6.90309 -20.44907,-0.64054 -42.93704,1.20974 -67.70284,7.00627 -24.76581,5.79653 -51.80641,15.53864 -72.49321,28.71979 -20.68679,13.18116 -35.01736,29.80001 -49.34818,46.41914" id="path27140" inkscape:path-effect="#path-effect27152" inkscape:original-d="m 273.023,826.38589 c 22.07289,-24.24567 44.1451,-48.49114 66.21789,-72.73781 -5.98549,-50.32158 -17.9569,-150.96258 -17.9569,-150.96258 0,0 18.00723,35.72764 27.01043,53.59103 21.95599,-7.27744 43.91082,-14.55489 65.86579,-21.83278 9.0541,-23.73148 18.10755,-47.46229 27.16088,-71.19388 -1.00423,-21.5803 -3.05791,-65.69639 -3.05791,-65.69639 0,0 27.98511,27.97701 41.97723,41.96509 29.11126,-16.13731 58.22107,-32.9071 87.33116,-49.36109 8.54373,-11.70738 25.62979,-35.12232 25.62979,-35.12232 0,0 -15.18773,60.11958 -22.78204,90.17892 7.59446,18.07866 15.18833,36.15631 22.78204,54.23402 7.84993,1.04954 23.54843,3.14774 23.54843,3.14774 0,0 -24.55834,8.5755 -36.83795,12.86287 -22.7822,12.34081 -45.56379,24.68084 -68.34613,37.02082 -8.22671,35.75615 -16.4534,71.51059 -24.68054,107.26544 9.69791,2.27346 29.09228,6.81944 29.09228,6.81944 0,0 -36.81635,-6.26234 -55.22544,-9.394 -22.48899,1.85065 -44.97696,3.70093 -67.4665,5.55106 -27.04197,9.74297 -54.08258,19.48508 -81.12512,29.22753 -14.33088,16.61978 -28.66145,33.23863 -42.99255,49.85752" sodipodi:nodetypes="ccccccccccccccccccccc"></path><path style="opacity:1;fill:#000000;fill-opacity:0.685832;stroke:#000000;stroke-width:0.6;stroke-dasharray:none;stop-color:#000000" d="m 306.74672,786.76812 c -0.47282,-0.50105 12.00831,-13.10175 32.49417,-33.12004 20.48587,-20.01829 48.9886,-47.43481 80.01947,-78.1217 -0.008,0.008 4.01682,-3.97705 4.00897,-3.96927 0,0 10e-6,-10e-6 10e-6,-10e-6 27.74563,-27.50374 58.99119,-59.41615 76.08184,-76.68117 19.38618,-19.58398 31.51034,-31.4675 31.99832,-31.00257 0.48799,0.46493 -10.7476,13.19013 -29.49247,33.4035 -18.23179,19.66011 -45.52266,48.46249 -75.07342,77.82144 0,0 -1e-5,10e-6 -1e-5,10e-6 -1.33052,1.32185 -2.66817,2.64769 -4.01305,3.97764 -30.50122,30.16254 -60.59038,58.31816 -81.10299,77.13514 -21.11314,19.36787 -34.44802,31.05808 -34.92084,30.55703 z" id="path27142"></path></g><g id="g27132"><path style="opacity:0.572368;fill:#1e7920;fill-opacity:1;stroke:none;stroke-width:1;stop-color:#000000" d="m 263.19258,833.17663 c 26.16161,-40.41322 52.32328,-80.82653 62.00515,-119.24196 9.68188,-38.41543 2.88411,-74.83208 -3.91374,-111.24917 16.50432,10.78748 33.00894,21.57516 51.13735,23.69504 18.12842,2.11987 37.88027,-4.42735 51.82897,-18.37618 13.94869,-13.94883 22.0937,-35.29847 23.50131,-54.81016 1.40762,-19.51169 -4.07975,-37.70666 -9.48844,-55.64072 17.08006,10.81737 34.16043,21.63493 55.73435,19.67645 21.57392,-1.95847 47.88476,-16.82982 64.8225,-29.49759 16.93774,-12.66777 24.62365,-23.20031 32.30967,-33.73301 -6.83202,27.04343 -13.66409,54.08704 -13.66394,75.741 1.6e-4,21.65397 6.83205,37.91769 14.51825,49.16207 7.68619,11.24438 16.22575,17.46874 24.76578,23.69344 -12.52538,-1.42334 -25.05046,-2.84664 -41.56149,1.99278 -16.51102,4.83941 -37.00668,15.94123 -50.95554,37.57641 -13.94886,21.63519 -21.35007,53.80199 -21.63456,76.29092 -0.28449,22.48894 6.54723,35.29841 13.37925,48.10846 -18.21873,-3.98535 -36.43716,-7.97063 -55.22544,-9.394 -18.78829,-1.42337 -38.14531,-0.28472 -67.4665,5.55106 -29.32119,5.83577 -68.60454,16.36826 -91.94747,28.89386 -23.34294,12.5256 -30.74416,27.04336 -38.14546,41.5613" id="path20361" inkscape:path-effect="#path-effect20363" inkscape:original-d="M 263.19258,833.17663 C 289.3545,792.76361 315.51616,752.3503 341.67754,711.93677 334.87982,675.5192 321.28399,602.6855 321.28399,602.6855 c 0,0 33.0089,21.57523 49.51296,32.36245 19.75291,-6.54722 39.50477,-13.09444 59.25676,-19.64206 8.1456,-21.35024 16.29062,-42.69988 24.43553,-64.05022 -5.40853,-17.64948 -16.22606,-53.80219 -16.22606,-53.80219 0,0 34.16038,21.63501 51.24018,32.45211 26.19021,-14.51807 52.37911,-29.60517 78.56827,-44.40815 7.68644,-10.53265 23.05807,-31.59811 23.05807,-31.59811 0,0 -13.66378,54.08712 -20.49607,81.13028 6.83243,16.26463 13.66432,32.52835 20.49607,48.79213 8.54047,6.22509 25.62009,18.6741 25.62009,18.6741 0,0 -25.05049,-2.84641 -37.57613,-4.27001 -20.49621,11.10252 -40.99187,22.20434 -61.48821,33.30611 -7.40124,32.16835 -14.80245,64.33515 -22.20407,96.50233 6.83242,12.81057 20.49607,38.43014 20.49607,38.43014 0,0 -36.4372,-7.97043 -54.65619,-11.95605 -19.35752,1.13896 -38.71454,2.27761 -58.0722,3.41602 -39.28466,10.53317 -78.568,21.06567 -117.8524,31.5981 -7.40125,14.51861 -14.80246,29.03637 -22.20408,43.55415" sodipodi:nodetypes="ccccccccccccccccccccc"></path><path style="opacity:0.572368;fill:#156f47;fill-opacity:1;stroke:none;stroke-width:1.11153;stop-color:#000000" d="m 273.023,826.38589 c 22.07262,-24.24592 44.14482,-48.49139 52.1885,-85.77538 8.04367,-37.28398 2.05812,-87.60415 -3.92751,-137.92501 9.00348,17.86368 18.00712,35.72769 33.48671,41.02046 15.47959,5.29277 37.43442,-1.98467 52.93884,-17.48925 15.50442,-15.50457 24.55786,-39.23539 28.58247,-61.89126 4.0246,-22.65587 2.99047,-44.87317 1.97117,-66.77197 13.99241,13.98836 27.98511,27.97701 49.46893,26.78232 21.48382,-1.1947 50.72917,-17.72468 69.55601,-31.80531 18.82685,-14.08063 27.36998,-25.78789 35.91324,-37.49533 -7.59401,30.05964 -15.18808,60.11949 -15.1879,84.18857 1.7e-4,24.06907 7.59404,42.14672 15.31595,51.7102 7.72191,9.56348 15.5709,10.61266 23.42038,11.66191 -12.27932,4.28762 -24.55845,8.57518 -42.08939,16.88926 -17.53095,8.31407 -40.31254,20.6541 -55.81714,44.7023 -15.50461,24.0482 -23.73129,59.80264 -22.99571,78.81674 0.73557,19.0141 10.43247,21.28712 20.1299,23.56027 -18.40848,-3.13133 -36.81631,-6.26256 -57.26538,-6.90309 -20.44907,-0.64054 -42.93704,1.20974 -67.70284,7.00627 -24.76581,5.79653 -51.80641,15.53864 -72.49321,28.71979 -20.68679,13.18116 -35.01736,29.80001 -49.34818,46.41914" id="path26241" inkscape:path-effect="#path-effect26245" inkscape:original-d="m 273.023,826.38589 c 22.07289,-24.24567 44.1451,-48.49114 66.21789,-72.73781 -5.98549,-50.32158 -17.9569,-150.96258 -17.9569,-150.96258 0,0 18.00723,35.72764 27.01043,53.59103 21.95599,-7.27744 43.91082,-14.55489 65.86579,-21.83278 9.0541,-23.73148 18.10755,-47.46229 27.16088,-71.19388 -1.00423,-21.5803 -3.05791,-65.69639 -3.05791,-65.69639 0,0 27.98511,27.97701 41.97723,41.96509 29.11126,-16.13731 58.22107,-32.9071 87.33116,-49.36109 8.54373,-11.70738 25.62979,-35.12232 25.62979,-35.12232 0,0 -15.18773,60.11958 -22.78204,90.17892 7.59446,18.07866 15.18833,36.15631 22.78204,54.23402 7.84993,1.04954 23.54843,3.14774 23.54843,3.14774 0,0 -24.55834,8.5755 -36.83795,12.86287 -22.7822,12.34081 -45.56379,24.68084 -68.34613,37.02082 -8.22671,35.75615 -16.4534,71.51059 -24.68054,107.26544 9.69791,2.27346 29.09228,6.81944 29.09228,6.81944 0,0 -36.81635,-6.26234 -55.22544,-9.394 -22.48899,1.85065 -44.97696,3.70093 -67.4665,5.55106 -27.04197,9.74297 -54.08258,19.48508 -81.12512,29.22753 -14.33088,16.61978 -28.66145,33.23863 -42.99255,49.85752" sodipodi:nodetypes="ccccccccccccccccccccc"></path><path style="opacity:1;fill:#000000;fill-opacity:0.685832;stroke:#000000;stroke-width:0.6;stroke-dasharray:none;stop-color:#000000" d="m 306.74672,786.76812 c -0.47282,-0.50105 12.00831,-13.10175 32.49417,-33.12004 20.48587,-20.01829 48.9886,-47.43481 80.01947,-78.1217 -0.008,0.008 4.01682,-3.97705 4.00897,-3.96927 0,0 10e-6,-10e-6 10e-6,-10e-6 27.74563,-27.50374 58.99119,-59.41615 76.08184,-76.68117 19.38618,-19.58398 31.51034,-31.4675 31.99832,-31.00257 0.48799,0.46493 -10.7476,13.19013 -29.49247,33.4035 -18.23179,19.66011 -45.52266,48.46249 -75.07342,77.82144 0,0 -1e-5,10e-6 -1e-5,10e-6 -1.33052,1.32185 -2.66817,2.64769 -4.01305,3.97764 -30.50122,30.16254 -60.59038,58.31816 -81.10299,77.13514 -21.11314,19.36787 -34.44802,31.05808 -34.92084,30.55703 z" id="path20475"></path></g><g id="g27125"><ellipse style="opacity:1;fill:#d55454;fill-opacity:1;stroke:none;stroke-width:0.646754;stroke-dasharray:none;stop-color:#000000" id="path20533" cx="313.84607" cy="812.5838" rx="35.44112" ry="33.600025"></ellipse><ellipse style="display:inline;fill:#d55454;fill-opacity:1;stroke:none;stroke-width:0.567124;stroke-dasharray:none;filter:url(#filter23688);stop-color:#000000" id="ellipse21731-6" cx="265.59491" cy="848.0249" rx="31.077517" ry="29.4631"></ellipse><circle style="display:inline;fill:#e3f4d7;fill-opacity:1;stroke:none;stroke-width:0.385715;stroke-dasharray:none;stop-color:#000000" id="path26046-8" cx="262.17889" cy="840.33887" r="7.6860266"></circle><circle style="display:inline;fill:#e3f4d7;fill-opacity:1;stroke:none;stroke-width:0.471429;stroke-dasharray:none;stop-color:#000000" id="path26046-2" cx="315.12708" cy="807.88678" r="9.3940325"></circle><ellipse style="display:inline;fill:#d55454;fill-opacity:1;stroke:none;stroke-width:0.567124;stroke-dasharray:none;filter:url(#filter23688);stop-color:#000000" id="ellipse27114" cx="265.58142" cy="795.49274" rx="31.077517" ry="29.4631" transform="matrix(1.0477202,0,0,1.0477202,-12.878019,-38.104268)"></ellipse><circle style="display:inline;fill:#e3f4d7;fill-opacity:1;stroke:none;stroke-width:0.404122;stroke-dasharray:none;stop-color:#000000" id="circle27116" cx="261.798" cy="787.29675" r="8.0528059"></circle></g></g></g></svg>