<svg xmlns:inkscape="http://www.inkscape.org/namespaces/inkscape" xmlns:sodipodi="http://sodipodi.sourceforge.net/DTD/sodipodi-0.dtd" xmlns="http://www.w3.org/2000/svg" xmlns:svg="http://www.w3.org/2000/svg" width="210mm" height="297mm" viewBox="0 0 210 297" id="svg8917" sodipodi:docname="logo_here.svg" inkscape:version="1.2.1 (9c6d41e410, 2022-07-14)"><defs id="defs8914"></defs><g inkscape:label="Layer 15(150)" inkscape:groupmode="layer" id="layer1" style="display:none"><path style="fill:none;stroke:#000000;stroke-width:1;stroke-dasharray:none;paint-order:markers stroke fill" d="m 34.367673,118.81156 c 1.0877,-12.88811 5.58196,-25.513674 12.63624,-35.498574 3.5942,-5.08736 10.88828,-12.54429 16.03797,-16.39603 8.22006,-6.14824 20.06271,-11.23343 30.478,-13.08715 5.96585,-1.0618 18.391667,-0.93254 24.428797,0.25413 25.86363,5.0838 46.23593,22.79806 54.43414,47.331914 2.07334,6.20464 3.72518,14.78739 3.72907,19.37571 l 0.002,2.68715 h -71.0703 -71.070187 z" id="path1033"></path><path style="fill:none;stroke:#000000;stroke-width:1;stroke-dasharray:none;paint-order:markers stroke fill" d="m 34.367673,132.54603 c 1.0877,12.88811 5.58196,25.51367 12.63624,35.49857 3.5942,5.08736 10.88828,12.54429 16.03797,16.39603 8.22006,6.14824 20.06271,11.23343 30.478,13.08715 5.96585,1.0618 18.391667,0.93254 24.428797,-0.25413 25.86363,-5.0838 46.23593,-22.79806 54.43414,-47.33191 2.07334,-6.20464 3.72518,-14.78739 3.72907,-19.37571 l 0.002,-2.68715 h -71.0703 -71.070187 z" id="path1033-8"></path></g><g inkscape:label="Layer 1(150)" inkscape:groupmode="layer" id="g14055" style="display:none"><path id="path14051" style="fill:none;stroke:#000000;stroke-width:1;stroke-dasharray:none;paint-order:markers stroke fill" d="m 103.98332,53.108903 c -4.007065,0.01978 -7.85339,0.256349 -10.463447,0.720886 -10.41528,1.853718 -22.258191,6.938823 -30.478243,13.087057 -5.149685,3.851736 -12.443584,11.308543 -16.037781,16.395898 -7.054273,9.98489 -11.548222,22.610516 -12.635921,35.498606 l -0.394291,4.66742 h 28.726929 v -0.54674 h 4.673616 v 0.54674 h 17.183447 c 1.621822,-0.53578 3.636553,-0.79479 6.049244,-0.79479 2.40529,0 4.417168,0.25901 6.038907,0.79479 h 8.39794 3.93257 c 1.10758,-0.35577 2.34296,-0.54674 3.66645,-0.54674 h 10.81484 l -0.42116,0.54674 h 7.17372 c 1.62182,-0.53578 3.63604,-0.79479 6.04873,-0.79479 2.40529,0 4.41768,0.25901 6.03942,0.79479 h 33.81551 l -0.002,-2.68718 c -0.004,-4.58831 -1.65563,-13.17092 -3.72897,-19.37556 -8.1982,-24.533828 -28.57028,-42.248198 -54.43389,-47.331993 -3.39588,-0.667501 -8.81362,-1.000561 -13.96555,-0.975134 z"></path><path id="path14053" style="fill:none;stroke:#000000;stroke-width:1;stroke-dasharray:none;paint-order:markers stroke fill" d="m 33.973637,127.87902 0.394291,4.66689 c 1.087699,12.8881 5.581648,25.51372 12.635921,35.49861 3.594197,5.08736 10.888096,12.54417 16.037781,16.3959 8.220052,6.14824 20.062963,11.23386 30.478243,13.08757 5.965844,1.0618 18.391877,0.93243 24.428997,-0.25424 25.86361,-5.0838 46.23569,-22.79817 54.43389,-47.332 2.07334,-6.20463 3.72508,-14.78724 3.72897,-19.37556 l 0.002,-2.68717 h -16.94315 c -0.48185,0.54005 -1.17203,0.78599 -1.90325,0.78599 -0.57841,0 -1.13541,-0.13416 -1.84278,-0.78599 h -9.2878 v 0.53795 h -4.24471 v -0.53795 h -2.61896 v 0.53795 h -10.36319 c -1.24942,0 -2.41934,-0.19093 -3.47834,-0.53795 h -8.05894 v 0.53795 h -4.67362 v -0.53795 h -5.04568 c -0.93768,0.35165 -2.1212,0.53795 -3.57911,0.53795 H 90.008459 l 0.415996,-0.53795 h -3.725354 l -0.415996,0.53795 H 71.742908 v -0.53795 h -7.991244 c -1.059076,0.34708 -2.228802,0.53795 -3.47834,0.53795 H 50.158695 v -0.53795 z"></path></g><g inkscape:label="Layer 2(150)" inkscape:groupmode="layer" id="g14047" style="display:none"><path id="path14043" style="fill:none;stroke:#000000;stroke-width:1;stroke-dasharray:none;paint-order:markers stroke fill" d="m 103.98332,53.108903 c -4.007065,0.01978 -7.85339,0.256349 -10.463447,0.720886 -10.41528,1.853718 -22.258191,6.938823 -30.478243,13.087057 -5.149685,3.851736 -12.443584,11.308543 -16.037781,16.395898 -7.054273,9.98489 -11.548222,22.610516 -12.635921,35.498606 l -0.394291,4.66742 h 28.726929 v -1.29966 h 4.673616 v 1.29966 h 15.469857 c 1.825413,-1.04999 4.411316,-1.54823 7.762834,-1.54823 3.341102,0 5.925564,0.49833 7.753015,1.54823 h 6.683832 2.19521 c 1.48551,-0.83393 3.33667,-1.29966 5.40381,-1.29966 h 10.81484 l -1.00097,1.29966 h 6.03942 c 1.82542,-1.04999 4.41132,-1.54823 7.76284,-1.54823 3.3411,0 5.92608,0.49833 7.75353,1.54823 h 32.1014 l -0.002,-2.68718 c -0.004,-4.58831 -1.65563,-13.17092 -3.72897,-19.37556 -8.1982,-24.533828 -28.57028,-42.248198 -54.43389,-47.331993 -3.39588,-0.667501 -8.81362,-1.000561 -13.96555,-0.975134 z"></path><path id="path14045" style="fill:none;stroke:#000000;stroke-width:1;stroke-dasharray:none;paint-order:markers stroke fill" d="m 33.973637,127.87902 0.394291,4.66689 c 1.087699,12.8881 5.581648,25.51372 12.635921,35.49861 3.594197,5.08736 10.888096,12.54417 16.037781,16.3959 8.220052,6.14824 20.062963,11.23386 30.478243,13.08757 5.965844,1.0618 18.391877,0.93243 24.428997,-0.25424 25.86361,-5.0838 46.23569,-22.79817 54.43389,-47.332 2.07334,-6.20463 3.72508,-14.78724 3.72897,-19.37556 l 0.002,-2.68717 h -16.46721 c -0.39602,1.11806 -1.34775,1.60403 -2.37919,1.60403 -0.58702,0 -1.1513,-0.13553 -1.87378,-0.81287 l -0.8816,-0.79116 h -8.3752 v 1.35599 h -4.24471 v -1.35599 h -2.61896 v 1.35599 h -10.36319 c -2.02247,0 -3.8383,-0.49636 -5.30717,-1.35599 h -6.23011 v 1.35599 h -4.67362 v -1.35599 h -3.60753 c -1.04216,0.87655 -2.67619,1.35599 -5.01726,1.35599 H 90.008459 l 1.048515,-1.35599 H 87.33162 l -1.048515,1.35599 H 71.742908 v -1.35599 h -6.162415 c -1.468867,0.85963 -3.284694,1.35599 -5.307169,1.35599 H 50.158695 v -1.35599 z"></path></g><g inkscape:label="layer 3(150)" inkscape:groupmode="layer" id="g14039" style="display:none"><path id="path14035" style="fill:none;stroke:#000000;stroke-width:1;stroke-dasharray:none;paint-order:markers stroke fill" d="m 103.98332,53.108903 c -4.007065,0.01978 -7.85339,0.256349 -10.463447,0.720886 -10.41528,1.853718 -22.258191,6.938823 -30.478243,13.087057 -5.149685,3.851736 -12.443584,11.308543 -16.037781,16.395898 -7.054273,9.98489 -11.548222,22.610516 -12.635921,35.498606 l -0.394291,4.66742 h 28.726929 v -2.50424 h 4.673616 v 2.50424 h 13.928349 c 1.760938,-1.87858 4.860893,-2.75281 9.304342,-2.75281 4.429954,0 7.532332,0.87411 9.297623,2.75281 h 5.139224 0.5643 c 1.63393,-1.5805 4.12059,-2.50424 7.03472,-2.50424 h 10.81484 l -1.92856,2.50424 h 5.42602 c 1.76094,-1.87858 4.86038,-2.75281 9.30383,-2.75281 4.42995,0 7.53285,0.87411 9.29814,2.75281 h 30.55679 l -0.002,-2.68718 c -0.004,-4.58831 -1.65563,-13.17092 -3.72897,-19.37556 -8.1982,-24.533828 -28.57028,-42.248198 -54.43389,-47.331993 -3.39588,-0.667501 -8.81362,-1.000561 -13.96555,-0.975134 z"></path><path id="path14037" style="fill:none;stroke:#000000;stroke-width:1;stroke-dasharray:none;paint-order:markers stroke fill" d="m 33.973637,127.87902 0.394291,4.66689 c 1.087699,12.8881 5.581648,25.51372 12.635921,35.49861 3.594197,5.08736 10.888096,12.54417 16.037781,16.3959 8.220052,6.14824 20.062963,11.23386 30.478243,13.08757 5.965844,1.0618 18.391877,0.93243 24.428997,-0.25424 25.86361,-5.0838 46.23569,-22.79817 54.43389,-47.332 2.07334,-6.20463 3.72508,-14.78724 3.72897,-19.37556 l 0.002,-2.68717 h -16.27239 c -2.2e-4,2.00903 -1.21946,2.84427 -2.57401,2.84427 -0.58702,0 -1.1513,-0.13554 -1.87378,-0.81287 l -2.26343,-2.0314 h -6.99337 v 2.59622 h -4.24471 v -2.59622 h -2.61896 v 2.59622 h -10.36319 c -2.85636,0 -5.30146,-0.98848 -6.93601,-2.59622 h -4.60127 v 2.59622 h -4.67362 v -2.59622 h -2.63291 c -0.8193,1.65683 -2.71275,2.59622 -5.99188,2.59622 H 90.008459 l 2.00763,-2.59622 h -3.725354 l -2.00763,2.59622 H 71.742908 v -2.59622 h -4.533574 c -1.634554,1.60774 -4.079654,2.59622 -6.93601,2.59622 H 50.158695 v -2.59622 z"></path></g><g inkscape:label="Layer 4(150)" inkscape:groupmode="layer" id="g14031" style="display:none"><path id="path14027" style="fill:none;stroke:#000000;stroke-width:1;stroke-dasharray:none;paint-order:markers stroke fill" d="m 103.98332,53.108903 c -4.007065,0.01978 -7.85339,0.256349 -10.463447,0.720886 -10.41528,1.853718 -22.258191,6.938823 -30.478243,13.087057 -5.149685,3.851736 -12.443584,11.308543 -16.037781,16.395898 -7.054273,9.98489 -11.548222,22.610516 -12.635921,35.498606 l -0.394291,4.66742 h 28.726929 v -3.66283 h 4.673616 v 3.66283 h 13.079822 c 1.494961,-2.6818 4.878871,-3.91087 10.152869,-3.91087 5.257841,0 8.64851,1.22904 10.148737,3.91087 h 3.88762 c 1.5053,-2.27946 4.43234,-3.66283 7.99951,-3.66283 h 10.81484 l -2.8205,3.66283 h 5.46892 c 1.49495,-2.68181 4.87886,-3.91087 10.15287,-3.91087 5.25784,0 8.64902,1.22904 10.14925,3.91087 h 29.70568 l -0.002,-2.68718 c -0.004,-4.58831 -1.65563,-13.17092 -3.72897,-19.37556 -8.1982,-24.533828 -28.57028,-42.248198 -54.43389,-47.331993 -3.39588,-0.667501 -8.81362,-1.000561 -13.96555,-0.975134 z"></path><path id="path14029" style="fill:none;stroke:#000000;stroke-width:1;stroke-dasharray:none;paint-order:markers stroke fill" d="m 33.973637,127.87902 0.394291,4.66689 c 1.087699,12.8881 5.581648,25.51372 12.635921,35.49861 3.594197,5.08736 10.888096,12.54417 16.037781,16.3959 8.220052,6.14824 20.062963,11.23386 30.478243,13.08757 5.965844,1.0618 18.391877,0.93243 24.428997,-0.25424 25.86361,-5.0838 46.23569,-22.79817 54.43389,-47.332 2.07334,-6.20463 3.72508,-14.78724 3.72897,-19.37556 l 0.002,-2.68717 h -16.27239 v 0.9126 c 0,2.00942 -1.21934,2.84479 -2.57401,2.84479 -0.58702,0 -1.1513,-0.13554 -1.87378,-0.81287 l -3.28042,-2.94452 h -5.97638 v 3.50883 h -4.24471 v -3.50883 h -2.61896 v 3.50883 h -10.36319 c -3.3635,0 -6.157,-1.36964 -7.72718,-3.50883 h -3.8101 v 3.50883 h -4.67362 v -3.50883 h -2.30528 c -0.53909,2.22095 -2.47906,3.50883 -6.31951,3.50883 H 90.008459 l 2.71353,-3.50883 h -3.725354 l -2.71353,3.50883 H 71.742908 v -3.50883 H 68.0005 c -1.570175,2.13919 -4.363678,3.50883 -7.727176,3.50883 H 50.158695 v -3.50883 z"></path></g><g inkscape:label="Layer 5(150)" inkscape:groupmode="layer" id="g14023" style="display:none"><path id="path14019" style="fill:none;stroke:#000000;stroke-width:1;stroke-dasharray:none;paint-order:markers stroke fill" d="m 103.98332,53.108903 c -4.007065,0.01978 -7.85339,0.256349 -10.463447,0.720886 -10.41528,1.853718 -22.258191,6.938823 -30.478243,13.087057 -5.149685,3.851736 -12.443584,11.308543 -16.037781,16.395898 -7.054273,9.98489 -11.548222,22.610516 -12.635921,35.498606 l -0.394291,4.66742 h 28.726929 v -4.62091 h 4.673616 v 4.62091 h 12.650391 c 1.191573,-3.34756 4.717332,-4.86947 10.5823,-4.86947 5.847024,0 9.383088,1.52185 10.579717,4.86947 h 2.93315 c 1.2602,-2.84461 4.48035,-4.62091 8.523,-4.62091 h 10.81484 l -3.02565,3.92844 h -7.78919 c -1.02025,0 -1.93797,0.25343 -2.67374,0.69247 h 15.70808 c 1.19158,-3.34756 4.71682,-4.86947 10.58179,-4.86947 5.84702,0 9.3836,1.52185 10.58023,4.86947 h 29.2747 l -0.002,-2.68718 c -0.004,-4.58831 -1.65563,-13.17092 -3.72897,-19.37556 -8.1982,-24.533828 -28.57028,-42.248198 -54.43389,-47.331993 -3.39588,-0.667501 -8.81362,-1.000561 -13.96555,-0.975134 z M 90.606873,122.53826 c -2.642127,0 -4.333868,0.19272 -5.308204,0.94051 h 10.61589 c -0.974336,-0.74779 -2.66556,-0.94051 -5.307686,-0.94051 z m 45.651997,0 c -2.64213,0 -4.33335,0.19272 -5.30769,0.94051 h 10.61589 c -0.97434,-0.74779 -2.66608,-0.94051 -5.3082,-0.94051 z"></path><path id="path14021" style="fill:none;stroke:#000000;stroke-width:1;stroke-dasharray:none;paint-order:markers stroke fill" d="m 33.973637,127.87902 0.394291,4.66689 c 1.087699,12.8881 5.581648,25.51372 12.635921,35.49861 3.594197,5.08736 10.888096,12.54417 16.037781,16.3959 8.220052,6.14824 20.062963,11.23386 30.478243,13.08757 5.965844,1.0618 18.391877,0.93243 24.428997,-0.25424 25.86361,-5.0838 46.23569,-22.79817 54.43389,-47.332 2.07334,-6.20463 3.72508,-14.78724 3.72897,-19.37556 l 0.002,-2.68717 h -16.28428 v 2.14922 c 0,2.00942 -1.21934,2.84479 -2.574,2.84479 -0.58702,0 -1.1513,-0.13554 -1.87379,-0.81287 l -4.65863,-4.18114 h -4.59869 v 4.74544 h -4.24418 v -4.74544 h -2.61948 v 4.74544 h -10.36319 c -3.97368,0 -7.15267,-1.91106 -8.45685,-4.74544 h -3.08043 v 4.74544 h -4.67362 v -4.74544 h -2.15232 c -0.081,2.97141 -1.9674,4.74544 -6.47196,4.74544 H 89.996057 l 3.002918,-3.88348 H 104.4236 c 0.98339,0 1.48246,-0.25147 1.58182,-0.86196 h -0.9617 -28.61686 v 0.86196 h 12.846761 l -3.002918,3.88348 H 71.731022 v -4.74544 h -3.012736 c -1.304179,2.83438 -4.483174,4.74544 -8.456848,4.74544 H 50.146293 v -4.74544 z m 20.86901,0 v 0.86196 h 5.418791 c 1.203336,0 2.247828,-0.31315 3.026172,-0.86196 z m 71.028743,0 c 0.77417,0.55047 1.81743,0.86196 3.02617,0.86196 h 5.71231 v -0.86196 z"></path></g><g inkscape:label="Layer 6(150)" inkscape:groupmode="layer" id="g14015" style="display:none"><path id="path14011" style="fill:none;stroke:#000000;stroke-width:1;stroke-dasharray:none;paint-order:markers stroke fill" d="m 103.98332,53.108903 c -4.007065,0.01978 -7.85339,0.256349 -10.463447,0.720886 -10.41528,1.853718 -22.258191,6.938823 -30.478243,13.087057 -5.149685,3.851736 -12.443584,11.308543 -16.037781,16.395898 -7.054273,9.98489 -11.548222,22.610516 -12.635921,35.498606 l -0.394291,4.66742 h 28.726929 v -5.67924 h 4.673616 v 5.67924 h 12.361003 c 0.796415,-4.0883 4.419902,-5.92729 10.871688,-5.92729 6.431992,0 10.070257,1.83899 10.870657,5.92729 h 2.27789 c 0.87015,-3.4559 4.36424,-5.67924 8.88732,-5.67924 h 10.81484 l -3.02565,3.92844 h -7.78919 c -1.67301,0 -3.07532,0.67482 -3.83543,1.7508 h 4.52479 l 0.0103,-0.0124 h 9.66349 v 0.0124 h 2.38125 c 0.79641,-4.0883 4.4199,-5.92729 10.87169,-5.92729 6.43199,0 10.07025,1.83899 10.87065,5.92729 h 28.98428 l -0.002,-2.68718 c -0.004,-4.58831 -1.65563,-13.17092 -3.72897,-19.37556 -8.1982,-24.533828 -28.57028,-42.248198 -54.43389,-47.331993 -3.39588,-0.667501 -8.81362,-1.000561 -13.96555,-0.975134 z M 90.606873,121.47992 c -3.605387,0 -5.439664,0.36076 -6.097819,1.99885 h 12.195121 c -0.658156,-1.63809 -2.491916,-1.99885 -6.097302,-1.99885 z m 45.651997,0 c -3.60539,0 -5.43915,0.36076 -6.09731,1.99885 h 12.19513 c -0.65816,-1.63809 -2.49244,-1.99885 -6.09782,-1.99885 z"></path><path id="path14013" style="fill:none;stroke:#000000;stroke-width:1;stroke-dasharray:none;paint-order:markers stroke fill" d="m 33.973637,127.87902 0.394291,4.66689 c 1.087699,12.8881 5.581648,25.51372 12.635921,35.49861 3.594197,5.08736 10.888096,12.54417 16.037781,16.3959 8.220052,6.14824 20.062963,11.23386 30.478243,13.08757 5.965844,1.0618 18.391877,0.93243 24.428997,-0.25424 25.86361,-5.0838 46.23569,-22.79817 54.43389,-47.332 2.07334,-6.20463 3.72508,-14.78724 3.72897,-19.37556 l 0.002,-2.68717 h -16.27239 v 3.31194 c 0,2.00942 -1.21934,2.84479 -2.57401,2.84479 -0.58702,0 -1.1513,-0.13554 -1.87378,-0.81287 l -5.95365,-5.34386 h -3.30315 v 5.90868 h -4.24471 v -5.90868 h -2.61896 v 5.90868 h -10.36319 c -4.49588,0 -7.97504,-2.4462 -8.87129,-5.90868 h -2.66599 v 5.90868 h -4.67362 v -5.90868 h -2.23707 c 0.0609,0.29999 0.092,0.62115 0.092,0.96376 0,3.09316 -1.87385,4.94492 -6.47971,4.94492 H 90.008459 l 3.002918,-3.88348 h 11.424113 c 1.10631,0 1.603,-0.31617 1.603,-1.1064 0,-0.45737 -0.17795,-0.75338 -0.55449,-0.9188 h -0.44028 -28.604458 v 2.0252 h 12.846761 l -3.002918,3.88348 H 71.742908 v -5.90868 h -2.598291 c -0.896249,3.46248 -4.375417,5.90868 -8.871293,5.90868 H 50.158695 v -5.90868 z m 20.880896,0 v 2.0252 h 5.418791 c 1.892182,0 3.39661,-0.77001 4.07572,-2.0252 z m 69.992627,0 c 0.66999,1.26347 2.16557,2.0252 4.0628,2.0252 h 5.71231 v -2.0252 z"></path></g><g inkscape:label="Layer 7(150)" inkscape:groupmode="layer" id="g14007" style="display:none"><path id="path14003" style="fill:none;stroke:#000000;stroke-width:1;stroke-dasharray:none;paint-order:markers stroke fill" d="m 103.98332,53.108903 c -4.007065,0.01978 -7.85339,0.256349 -10.463447,0.720886 -10.41528,1.853718 -22.258191,6.938823 -30.478243,13.087057 -5.149685,3.851736 -12.443584,11.308543 -16.037781,16.395898 -7.054273,9.98489 -11.548222,22.610516 -12.635921,35.498606 l -0.394291,4.66742 h 28.949654 v -6.71846 h 4.673617 v 6.71846 h 12.225093 c 0.365905,-4.81601 4.033406,-6.9665 11.007597,-6.9665 6.952798,0 10.639622,2.15049 11.007592,6.9665 h 1.96371 c 0.3794,-4.04324 4.10292,-6.71846 9.06456,-6.71846 h 10.81485 l -3.02566,3.92896 h -7.78919 c -2.16183,0 -3.87384,1.12368 -4.32635,2.7895 h 4.15117 l 0.87488,-1.0511 h 9.66349 v 1.0511 h 2.24534 c 0.3659,-4.81602 4.03392,-6.9665 11.00812,-6.9665 6.9528,0 10.63911,2.15049 11.00708,6.9665 h 28.62461 l -0.002,-2.68718 c -0.004,-4.58831 -1.65563,-13.17092 -3.72897,-19.37556 -8.1982,-24.533828 -28.57028,-42.248198 -54.43389,-47.331993 -3.39588,-0.667501 -8.81362,-1.000561 -13.96555,-0.975134 z M 90.829598,120.44071 c -4.265254,0 -6.048437,0.50996 -6.340698,3.03806 h 12.680879 c -0.292271,-2.52808 -2.074943,-3.03806 -6.340181,-3.03806 z m 45.652512,0 c -4.26526,0 -6.04844,0.50996 -6.3407,3.03806 h 12.68088 c -0.29226,-2.5281 -2.07493,-3.03806 -6.34018,-3.03806 z"></path><path id="path14005" style="fill:none;stroke:#000000;stroke-width:1;stroke-dasharray:none;paint-order:markers stroke fill" d="m 33.973637,127.87902 0.394291,4.66689 c 1.087699,12.8881 5.581648,25.51372 12.635921,35.49861 3.594197,5.08736 10.888096,12.54417 16.037781,16.3959 8.220052,6.14824 20.062963,11.23386 30.478243,13.08757 5.965844,1.0618 18.391877,0.93243 24.428997,-0.25424 25.86361,-5.0838 46.23569,-22.79817 54.43389,-47.332 2.07334,-6.20463 3.72508,-14.78724 3.72897,-19.37556 l 0.002,-2.68717 h -16.28428 v 4.10879 c 0,2.00942 -1.21934,2.84479 -2.574,2.84479 -0.58702,0 -1.1513,-0.13554 -1.87379,-0.81287 l -6.84196,-6.14071 h -2.41536 v 6.70501 h -4.24418 v -6.70501 h -2.61948 v 6.70501 h -10.36319 c -4.83356,0 -8.49184,-2.82681 -9.02839,-6.70501 h -2.50889 v 6.70501 h -4.67362 v -6.70501 h -2.49235 c 0.22966,0.5061 0.34778,1.09241 0.34778,1.76061 0,3.09316 -1.87384,4.9444 -6.47971,4.9444 H 89.996057 l 3.002918,-3.88296 H 104.4236 c 1.10631,0 1.603,-0.31617 1.603,-1.1064 0,-0.76764 -0.49669,-1.08365 -1.603,-1.08365 h -8.21862 c -1.390665,0 -2.507315,-0.22655 -3.373954,-0.632 h -6.523633 l -0.600997,0.76739 H 76.42686 v 2.05466 h 12.846761 l -3.002918,3.88296 H 71.731022 v -6.70501 h -2.441195 c -0.536555,3.8782 -4.194829,6.70501 -9.028389,6.70501 H 50.146293 v -6.70501 z m 20.86901,0 v 2.82205 h 5.418791 c 2.266091,0 3.981211,-1.10103 4.381128,-2.82205 z m 69.693933,0 c 0.39283,1.73537 2.09211,2.82205 4.36098,2.82205 h 5.71231 v -2.19005 h -7.81192 l 0.52606,-0.632 z m 30.49737,0 0.52813,0.47387 v -0.47387 z"></path></g><g inkscape:label="Layer 8(150)" inkscape:groupmode="layer" id="g13999" style="display:none"><path id="path13995" style="fill:none;stroke:#000000;stroke-width:1;stroke-dasharray:none;paint-order:markers stroke fill" d="m 103.98332,53.108903 c -4.007065,0.01978 -7.85339,0.256349 -10.463447,0.720886 -10.41528,1.853718 -22.258191,6.938823 -30.478243,13.087057 -5.149685,3.851736 -12.443584,11.308543 -16.037781,16.395898 -7.054273,9.98489 -11.548222,22.610516 -12.635921,35.498606 l -0.394291,4.66742 h 28.726929 v -7.96902 h 4.673616 v 7.96902 h 12.201323 c -0.0053,-0.14084 -0.0093,-0.28274 -0.0093,-0.42788 0,-5.39609 3.680314,-7.78971 11.04067,-7.78971 7.337777,0 11.040155,2.39362 11.040155,7.78971 0,0.14514 -0.004,0.28704 -0.009,0.42788 h 1.93012 c -0.0144,-0.18596 -0.0243,-0.37313 -0.0243,-0.56328 0,-4.42524 3.86114,-7.40574 9.09919,-7.40574 h 10.81484 l -3.02565,3.92844 h -7.78919 c -2.52871,0 -4.44779,1.5355 -4.44779,3.68039 0,0.12279 0.008,0.24234 0.0191,0.36019 h 3.2122 l 1.91617,-2.30219 h 9.66349 v 2.30219 h 2.22157 c -0.005,-0.14084 -0.009,-0.28274 -0.009,-0.42788 0,-5.39609 3.68031,-7.78971 11.04067,-7.78971 7.33777,0 11.04067,2.39362 11.04067,7.78971 0,0.14514 -0.004,0.28704 -0.009,0.42788 h 28.82357 l -0.002,-2.68718 c -0.004,-4.58831 -1.65563,-13.17092 -3.72897,-19.37556 -8.1982,-24.533828 -28.57028,-42.248198 -54.43389,-47.331993 -3.39588,-0.667501 -8.81362,-1.000561 -13.96555,-0.975134 z M 90.606873,119.19014 c -4.696178,0 -6.389791,0.60955 -6.389791,3.86075 0,0.15009 0.0076,0.28876 0.01499,0.42788 H 96.98116 c 0.0073,-0.13912 0.01499,-0.27779 0.01499,-0.42788 0,-3.2512 -1.693097,-3.86075 -6.389274,-3.86075 z m 45.651997,0 c -4.69618,0 -6.38928,0.60955 -6.38928,3.86075 0,0.15009 0.008,0.28876 0.015,0.42788 h 12.74909 c 0.007,-0.13912 0.015,-0.27779 0.015,-0.42788 0,-3.2512 -1.69362,-3.86075 -6.38979,-3.86075 z"></path><path id="path13997" style="fill:none;stroke:#000000;stroke-width:1;stroke-dasharray:none;paint-order:markers stroke fill" d="m 33.973637,127.87902 0.394291,4.66689 c 1.087699,12.8881 5.581648,25.51372 12.635921,35.49861 3.594197,5.08736 10.888096,12.54417 16.037781,16.3959 8.220052,6.14824 20.062963,11.23386 30.478243,13.08757 5.965844,1.0618 18.391877,0.93243 24.428997,-0.25424 25.86361,-5.0838 46.23569,-22.79817 54.43389,-47.332 2.07334,-6.20463 3.72508,-14.78724 3.72897,-19.37556 l 0.002,-2.68717 h -16.27239 v 5.22862 c 0,2.00942 -1.21934,2.84479 -2.57401,2.84479 -0.58702,0 -1.1513,-0.13554 -1.87378,-0.81288 l -8.08943,-7.26053 h -1.16737 v 7.82484 h -4.24471 v -7.82484 h -2.61896 v 7.82484 h -10.36319 c -5.23804,0 -9.09919,-3.31866 -9.09919,-7.69875 0,-0.0425 0.003,-0.0839 0.004,-0.12609 h -2.44171 v 7.82484 h -4.67362 v -7.82484 h -3.33003 c 0.77873,0.6818 1.18495,1.64027 1.18495,2.88044 0,3.09316 -1.87385,4.9444 -6.47971,4.9444 H 90.008459 l 3.002918,-3.88348 h 11.424113 c 1.10631,0 1.603,-0.31566 1.603,-1.10588 0,-0.76764 -0.49669,-1.08417 -1.603,-1.08417 h -8.218107 c -2.374864,0 -3.960826,-0.65235 -4.837431,-1.75131 h -4.183724 l -1.477429,1.88722 h -9.279537 v 2.05414 h 12.846761 l -3.002918,3.88348 H 71.742908 v -7.82484 h -2.374532 c 7.21e-4,0.0422 0.0036,0.0837 0.0036,0.12609 0,4.38009 -3.860625,7.69875 -9.098669,7.69875 H 50.158695 v -7.82484 z m 20.880896,0 v 3.94136 h 5.418791 c 2.596444,0 4.470528,-1.44472 4.470528,-3.61219 0,-0.11161 -0.0086,-0.22082 -0.01912,-0.32917 z m 69.626237,0 c -0.0102,0.10833 -0.0186,0.2174 -0.0186,0.32917 0,2.19005 1.85135,3.61219 4.44779,3.61219 h 5.71231 v -2.19005 h -7.81192 l 1.45727,-1.75131 z m 29.31811,0 1.7756,1.5937 v -1.5937 z"></path></g><g inkscape:label="Layer 9(150)" inkscape:groupmode="layer" id="g13991" style="display:none"><path id="path13987" style="fill:none;stroke:#000000;stroke-width:1;stroke-dasharray:none;paint-order:markers stroke fill" d="m 103.98332,53.108903 c -4.007065,0.01978 -7.85339,0.256349 -10.463447,0.720886 -10.41528,1.853718 -22.258191,6.938823 -30.478243,13.087057 -5.149685,3.851736 -12.443584,11.308543 -16.037781,16.395898 -7.054273,9.98489 -11.548222,22.610516 -12.635921,35.498606 l -0.394291,4.66742 h 28.726929 v -8.85424 h 4.673616 v 8.85424 h 12.274186 c -0.05343,-0.41685 -0.08217,-0.85333 -0.08217,-1.3131 0,-5.39609 3.680314,-7.78919 11.04067,-7.78919 7.337777,0 11.040162,2.3931 11.040162,7.78919 0,0.45978 -0.029,0.89624 -0.0827,1.3131 h 2.12804 c -0.0962,-0.4673 -0.14883,-0.95044 -0.14883,-1.44849 0,-4.42525 3.86114,-7.40575 9.09919,-7.40575 h 10.81484 l -3.02565,3.92844 h -7.78919 c -2.52871,0 -4.44779,1.53551 -4.44779,3.6804 0,0.45015 0.0816,0.8658 0.22841,1.2454 h 2.26652 l 2.65256,-3.18689 h 9.66349 v 3.18689 h 2.29495 c -0.0534,-0.41686 -0.0827,-0.85332 -0.0827,-1.3131 0,-5.39609 3.6803,-7.78919 11.04066,-7.78919 7.33777,0 11.04067,2.3931 11.04067,7.78919 0,0.45977 -0.029,0.89625 -0.0827,1.3131 h 28.89695 l -0.002,-2.68718 c -0.004,-4.58831 -1.65563,-13.17092 -3.72898,-19.37556 -8.19819,-24.533828 -28.57027,-42.248198 -54.43388,-47.331993 -3.39588,-0.667501 -8.81362,-1.000561 -13.96555,-0.975134 z M 90.606873,118.30492 c -4.696178,0 -6.389791,0.60955 -6.389791,3.86075 0,0.49681 0.04027,0.93151 0.124023,1.3131 h 12.531018 c 0.08375,-0.38159 0.124024,-0.81629 0.124024,-1.3131 0,-3.2512 -1.693097,-3.86075 -6.389274,-3.86075 z m 45.651997,0 c -4.69618,0 -6.38928,0.60955 -6.38928,3.86075 0,0.49681 0.0398,0.93151 0.12351,1.3131 h 12.53153 c 0.0838,-0.38159 0.12403,-0.81629 0.12403,-1.3131 0,-3.2512 -1.69362,-3.86075 -6.38979,-3.86075 z"></path><path id="path13989" style="fill:none;stroke:#000000;stroke-width:1;stroke-dasharray:none;paint-order:markers stroke fill" d="m 33.973637,127.87902 0.394291,4.66689 c 1.087699,12.8881 5.581648,25.51372 12.635921,35.49861 3.594197,5.08736 10.888096,12.54417 16.037781,16.3959 8.220052,6.14824 20.062963,11.23386 30.478243,13.08757 5.965844,1.0618 18.391877,0.93243 24.428997,-0.25424 25.86361,-5.0838 46.23569,-22.79817 54.43389,-47.332 2.07334,-6.20463 3.72508,-14.78724 3.72897,-19.37556 l 0.002,-2.68717 h -16.27239 v 6.53293 c 0,2.00942 -1.21934,2.84479 -2.57401,2.84479 -0.58702,0 -1.1513,-0.13502 -1.87378,-0.81236 l -9.2568,-8.30905 v 8.87336 h -4.24471 v -9.12967 h -2.61896 v 9.12967 h -10.36319 c -5.23804,0 -9.09919,-3.31918 -9.09919,-7.69927 0,-0.49613 0.0511,-0.97277 0.1447,-1.4304 h -2.58279 v 9.12967 h -4.67362 v -9.12967 h -7.65534 -9.048029 c 0.19392,0.0353 0.41621,0.0532 0.672827,0.0532 h 8.218622 c 3.68018,0 5.66684,1.37756 5.66684,4.13205 0,3.09316 -1.87385,4.9444 -6.47971,4.9444 H 90.008459 l 3.002918,-3.88348 h 11.424113 c 1.10631,0 1.603,-0.31617 1.603,-1.10639 0,-0.76765 -0.49669,-1.08366 -1.603,-1.08366 h -8.218107 c -3.203063,0 -4.974395,-1.18479 -5.497856,-3.05614 h -2.502173 l -2.498555,3.19153 h -9.279537 v 2.05466 h 12.846761 l -3.002918,3.88348 H 71.742908 V 127.879 h -2.517159 c 0.09498,0.45852 0.146244,0.93556 0.146244,1.4304 0,4.38009 -3.860625,7.69927 -9.098669,7.69927 H 50.158695 V 127.879 Z m 20.880896,0 v 5.24619 h 5.418791 c 2.596444,0 4.470528,-1.44524 4.470528,-3.6127 0,-0.59752 -0.158564,-1.14763 -0.436149,-1.63349 z m 70.033447,0 c -0.2716,0.48428 -0.42581,1.03357 -0.42581,1.63349 0,2.19004 1.85135,3.6127 4.44779,3.6127 h 5.71231 v -2.19005 h -7.81192 l 2.54299,-3.05614 z m 27.45776,0 3.22874,2.89801 v -2.89801 z"></path></g><g inkscape:label="Layer 10(150)" inkscape:groupmode="layer" id="g13983" style="display:none"><path id="path13979" style="fill:none;stroke:#000000;stroke-width:1;stroke-dasharray:none;paint-order:markers stroke fill" d="m 103.98332,53.108903 c -4.007065,0.01978 -7.85339,0.256349 -10.463447,0.720886 -10.41528,1.853718 -22.258191,6.938823 -30.478243,13.087057 -5.149685,3.851736 -12.443584,11.308543 -16.037781,16.395898 -7.054273,9.98489 -11.548222,22.610516 -12.635921,35.498606 l -0.394291,4.66742 h 28.726929 v -10.049 h 4.673616 v 10.049 h 12.517582 c -0.215353,-0.75144 -0.325561,-1.58537 -0.325561,-2.50838 0,-5.39609 3.680314,-7.78918 11.04067,-7.78918 7.337777,0 11.040157,2.39309 11.040157,7.78918 0,0.92298 -0.11079,1.75696 -0.32712,2.50838 h 2.73162 c -0.32933,-0.81807 -0.50798,-1.70636 -0.50798,-2.64377 0,-4.42524 3.86114,-7.40523 9.09919,-7.40523 h 10.81484 l -3.02565,3.92844 h -7.78919 c -2.52871,0 -4.44779,1.53551 -4.44779,3.6804 0,0.99203 0.3828,1.824 1.03973,2.44016 h 9.11985 v -1.01803 h -7.81192 l 2.79983,-3.36413 h 9.66349 v 4.38216 h 2.53834 c -0.21535,-0.75144 -0.32607,-1.58537 -0.32607,-2.50838 0,-5.39609 3.68031,-7.78918 11.04067,-7.78918 7.33777,0 11.04067,2.39309 11.04067,7.78918 0,0.92298 -0.11079,1.75696 -0.32712,2.50838 h 29.14138 l -0.002,-2.68718 c -0.004,-4.58831 -1.65563,-13.17092 -3.72897,-19.37556 -8.1982,-24.533828 -28.57028,-42.248198 -54.43389,-47.331993 -3.39588,-0.667501 -8.81362,-1.000561 -13.96555,-0.975134 z M 90.606873,117.10965 c -4.696178,0 -6.389791,0.60954 -6.389791,3.86074 0,1.11965 0.201156,1.9288 0.65629,2.50838 h 11.467001 c 0.455131,-0.57958 0.655774,-1.38873 0.655774,-2.50838 0,-3.2512 -1.693097,-3.86074 -6.389274,-3.86074 z m 45.651997,0 c -4.69618,0 -6.38928,0.60954 -6.38928,3.86074 0,1.11965 0.20064,1.9288 0.65578,2.50838 h 11.467 c 0.45513,-0.57958 0.65629,-1.38873 0.65629,-2.50838 0,-3.2512 -1.69362,-3.86074 -6.38979,-3.86074 z"></path><path id="path13981" style="fill:none;stroke:#000000;stroke-width:1;stroke-dasharray:none;paint-order:markers stroke fill" d="m 33.973637,127.87902 0.394291,4.66689 c 1.087699,12.8881 5.581648,25.51372 12.635921,35.49861 3.594197,5.08736 10.888096,12.54417 16.037781,16.3959 8.220052,6.14824 20.062963,11.23386 30.478243,13.08757 5.965844,1.0618 18.391877,0.93243 24.428997,-0.25424 25.86361,-5.0838 46.23569,-22.79817 54.43389,-47.332 2.07334,-6.20463 3.72508,-14.78724 3.72897,-19.37556 l 0.002,-2.68717 h -16.28428 v 7.28379 c 0,2.00942 -1.21934,2.84479 -2.574,2.84479 -0.58702,0 -1.1513,-0.13554 -1.87379,-0.81287 l -9.25732,-8.30854 v 8.87284 h -4.24418 v -9.88001 h -16.44034 c -0.62326,0.62714 -0.99012,1.44739 -0.99012,2.38435 0,2.19004 1.85134,3.61218 4.44779,3.61218 h 5.71231 v -2.19005 h -7.81192 l 2.79982,-3.36362 h 9.66298 v 9.43715 h -10.36319 c -5.23805,0 -9.09867,-3.31866 -9.09867,-7.69875 0,-0.77441 0.12049,-1.50359 0.34365,-2.18126 h -2.78226 v 9.88001 h -4.67362 v -9.88001 h -7.64294 -9.966836 c 0.110935,0.57642 0.626999,0.80408 1.579748,0.80408 h 8.218618 c 3.68018,0 5.66684,1.37704 5.66684,4.13153 0,3.09316 -1.87384,4.9444 -6.47971,4.9444 H 89.996057 l 3.002918,-3.88348 H 104.4236 c 1.10631,0 1.603,-0.31565 1.603,-1.10588 0,-0.76764 -0.49669,-1.08417 -1.603,-1.08417 h -8.21862 c -3.613115,0 -5.406521,-1.50581 -5.638932,-3.80648 H 76.42686 v 0.51056 h 11.966194 l -2.686658,3.43183 H 76.42686 v 2.05414 h 12.846761 l -3.002918,3.88348 H 71.731022 v -9.88001 h -2.719214 c 0.226278,0.67987 0.348299,1.4096 0.348299,2.18126 0,4.38009 -3.860624,7.69875 -9.098669,7.69875 H 50.146293 v -9.41493 h 4.696354 v 5.53145 h 5.418791 c 2.596444,0 4.470011,-1.44472 4.470011,-3.61218 0,-0.93167 -0.374446,-1.75428 -1.008207,-2.38435 z m 117.523573,0 4.06487,3.64887 v -3.64887 z"></path></g><g inkscape:label="Layer 11(150)" inkscape:groupmode="layer" id="g13975" style="display:none"><path id="path13971" style="fill:none;stroke:#000000;stroke-width:1;stroke-dasharray:none;paint-order:markers stroke fill" d="m 103.98332,53.108903 c -4.007065,0.01978 -7.85339,0.256349 -10.463447,0.720886 -10.41528,1.853718 -22.258191,6.938823 -30.478243,13.087057 -5.149685,3.851736 -12.443584,11.308543 -16.037781,16.395898 -7.054273,9.98489 -11.548222,22.610516 -12.635921,35.498606 l -0.394291,4.66742 h 28.726929 v -10.87841 h 4.673616 v 10.87841 H 80.18787 c -0.412709,-0.95105 -0.621667,-2.06002 -0.621667,-3.33778 0,-5.39609 3.680314,-7.78919 11.04067,-7.78919 7.337777,0 11.040157,2.3931 11.040157,7.78919 0,1.27772 -0.20995,2.38676 -0.62426,3.33778 h 3.42822 c -0.58386,-1.03334 -0.90744,-2.2086 -0.90744,-3.47318 0,-4.42524 3.86114,-7.40523 9.09919,-7.40523 h 10.81484 l -3.02565,3.92844 h -7.78919 c -2.52871,0 -4.44779,1.53551 -4.44779,3.6804 0,1.55856 0.94037,2.72455 2.4169,3.26957 h 7.74268 v -1.84743 h -7.81192 l 2.79983,-3.36414 h 9.66349 v 5.21157 h 2.83445 c -0.41271,-0.95105 -0.62218,-2.06002 -0.62218,-3.33778 0,-5.39609 3.68031,-7.78919 11.04067,-7.78919 7.33777,0 11.04067,2.3931 11.04067,7.78919 0,1.27772 -0.20994,2.38676 -0.62426,3.33778 h 29.43852 l -0.002,-2.68718 c -0.004,-4.58831 -1.65563,-13.17092 -3.72897,-19.37556 -8.1982,-24.533828 -28.57028,-42.248198 -54.43389,-47.331993 -3.39588,-0.667501 -8.81362,-1.000561 -13.96555,-0.975134 z M 90.606873,116.28024 c -4.696178,0 -6.389791,0.60955 -6.389791,3.86075 0,1.8106 0.526463,2.80854 1.80299,3.33778 h 9.173601 c 1.27647,-0.52925 1.802474,-1.52721 1.802474,-3.33778 0,-3.2512 -1.693097,-3.86075 -6.389274,-3.86075 z m 45.651997,0 c -4.69618,0 -6.38928,0.60955 -6.38928,3.86075 0,1.81057 0.52601,2.80853 1.80248,3.33778 h 9.1736 c 1.27647,-0.52925 1.80299,-1.52721 1.80299,-3.33778 0,-3.2512 -1.69362,-3.86075 -6.38979,-3.86075 z"></path><path id="path13973" style="fill:none;stroke:#000000;stroke-width:1;stroke-dasharray:none;paint-order:markers stroke fill" d="m 33.973637,127.87902 0.394291,4.66689 c 1.087699,12.8881 5.581648,25.51372 12.635921,35.49861 3.594197,5.08736 10.888096,12.54417 16.037781,16.3959 8.220052,6.14824 20.062963,11.23386 30.478243,13.08757 5.965844,1.0618 18.391877,0.93243 24.428997,-0.25424 25.86361,-5.0838 46.23569,-22.79817 54.43389,-47.332 2.07334,-6.20463 3.72508,-14.78724 3.72897,-19.37556 l 0.002,-2.68717 h -16.27239 v 8.33024 c 0,2.00942 -1.21934,2.84478 -2.57401,2.84478 -0.58702,0 -1.1513,-0.13553 -1.87378,-0.81287 l -9.2568,-8.30853 v 8.87336 h -4.24471 v -10.92698 h -14.65905 c -1.65232,0.51576 -2.77089,1.79454 -2.77089,3.43079 0,2.19005 1.85135,3.6127 4.44779,3.6127 h 5.71231 v -2.19004 h -7.81192 l 2.79931,-3.36414 h 9.66349 v 9.43767 h -10.36319 c -5.23804,0 -9.09919,-3.31918 -9.09919,-7.69927 0,-1.19092 0.28189,-2.27603 0.79272,-3.22771 h -3.23081 V 138.806 h -4.67362 v -10.92698 h -7.65534 -9.607685 c -0.247699,0.16444 -0.37052,0.4186 -0.37052,0.78961 0,0.76765 0.51927,1.06092 1.603003,1.06092 h 8.218622 c 3.68018,0 5.66684,1.37704 5.66684,4.13153 0,3.09316 -1.87385,4.94492 -6.47971,4.94492 H 90.008459 l 3.002918,-3.88349 h 11.424113 c 1.10631,0 1.603,-0.31617 1.603,-1.10639 0,-0.76764 -0.49669,-1.08365 -1.603,-1.08365 h -8.218107 c -3.883378,0 -5.667355,-1.73869 -5.667355,-4.33514 0,-0.17674 0.0079,-0.34944 0.02274,-0.51831 H 76.439262 v 1.55701 h 11.966195 l -2.686658,3.43183 h -9.279537 v 2.05465 H 89.286023 L 86.283105,138.806 H 71.742908 v -10.92698 h -3.1719 c 0.517,0.95625 0.800985,2.04287 0.800985,3.22771 0,4.38009 -3.860625,7.69927 -9.098669,7.69927 H 50.158695 v -9.41493 h 4.695838 v 5.53144 h 5.418791 c 2.596444,0 4.470528,-1.44523 4.470528,-3.6127 0,-1.62224 -1.136396,-2.91179 -2.800346,-3.43079 z m 116.369123,0 5.23172,4.69532 v -4.69532 z"></path></g><g inkscape:label="Layer 12(150)" inkscape:groupmode="layer" id="g13967" style="display:none"><path id="path13963" style="display:inline;fill:none;stroke:#000000;stroke-width:1;stroke-dasharray:none;paint-order:markers stroke fill" d="m 103.98332,53.108903 c -4.007065,0.01978 -7.85339,0.256349 -10.463447,0.720886 -10.41528,1.853718 -22.258191,6.938823 -30.478243,13.087057 -5.149685,3.851736 -12.443584,11.308543 -16.037781,16.395898 -7.054273,9.98489 -11.548222,22.610516 -12.635921,35.498606 l -0.394291,4.66742 h 28.726929 v -11.82822 h 4.673616 v 11.22154 h 11.69541 l -0.472839,0.60668 h 2.105298 c -0.756113,-1.13578 -1.135848,-2.55757 -1.135848,-4.28708 0,-5.39609 3.680314,-7.78919 11.04067,-7.78919 7.337777,0 11.040157,2.3931 11.040157,7.78919 0,1.7296 -0.38242,3.15127 -1.14102,4.28708 h 4.53771 0.0486 c -0.98545,-1.23659 -1.54874,-2.75189 -1.54874,-4.42247 0,-4.42525 3.86114,-7.40575 9.09919,-7.40575 h 10.81484 l -3.02565,3.92844 h -7.78919 c -2.52871,0 -4.44779,1.53551 -4.44779,3.6804 0,2.19004 1.85134,3.6127 4.44779,3.6127 h 5.71179 v -2.19005 h -7.81192 l 2.79983,-3.36414 h 9.66349 v 6.16087 h 3.34863 c -0.75611,-1.13578 -1.13636,-2.55757 -1.13636,-4.28708 0,-5.39609 3.68031,-7.78919 11.04067,-7.78919 7.33777,0 11.04067,2.3931 11.04067,7.78919 0,1.72957 -0.38245,3.15128 -1.14102,4.28708 h 29.95528 l -0.002,-2.68718 c -0.004,-4.58831 -1.65563,-13.17092 -3.72897,-19.37556 -8.1982,-24.533828 -28.57028,-42.248198 -54.43389,-47.331993 -3.39588,-0.667501 -8.81362,-1.000561 -13.96555,-0.975134 z M 90.606873,115.33094 c -4.696178,0 -6.389791,0.60955 -6.389791,3.86075 0,3.2512 1.693613,3.88348 6.389791,3.88348 4.696177,0 6.389274,-0.63228 6.389274,-3.88348 0,-3.2512 -1.693097,-3.86075 -6.389274,-3.86075 z m 45.651997,0 c -4.69618,0 -6.38928,0.60955 -6.38928,3.86075 0,3.2512 1.6931,3.88348 6.38928,3.88348 4.69617,0 6.38979,-0.63228 6.38979,-3.88348 0,-3.2512 -1.69362,-3.86075 -6.38979,-3.86075 z"></path><path id="path13965" style="display:inline;fill:none;stroke:#000000;stroke-width:1;stroke-dasharray:none;paint-order:markers stroke fill" d="m 33.973637,127.87902 0.394291,4.66689 c 1.087699,12.8881 5.581648,25.51372 12.635921,35.49861 3.594197,5.08736 10.888096,12.54417 16.037781,16.3959 8.220052,6.14824 20.062963,11.23386 30.478243,13.08757 5.965844,1.0618 18.391877,0.93243 24.428997,-0.25424 25.86361,-5.0838 46.23569,-22.79817 54.43389,-47.332 2.07334,-6.20463 3.72508,-14.78724 3.72897,-19.37556 l 0.002,-2.68717 h -16.27239 v 9.63507 c 0,2.00942 -1.21934,2.84478 -2.57401,2.84478 -0.58702,0 -1.1513,-0.13553 -1.87378,-0.81287 l -9.2568,-8.30853 v 8.87284 h -4.24471 v -12.23129 h -4.38009 l -0.81287,1.05523 h -7.78919 c -2.52871,0 -4.44779,1.53551 -4.44779,3.68039 0,2.19005 1.85135,3.61219 4.44779,3.61219 h 5.71231 v -2.19005 h -7.81192 l 2.79931,-3.36362 h 9.66349 v 9.43715 h -10.36319 c -5.23804,0 -9.09919,-3.31867 -9.09919,-7.69875 0,-1.77728 0.62382,-3.32088 1.70843,-4.53254 h -4.14652 v 12.23129 h -4.67362 v -12.23129 h -4.74751 l -0.80667,1.05523 H 96.668518 c -1.083733,0 -1.603003,0.27105 -1.603003,1.0387 0,0.76764 0.51927,1.06143 1.603003,1.06143 h 8.218622 c 3.68018,0 5.66684,1.37704 5.66684,4.13153 0,3.09316 -1.87385,4.9444 -6.47971,4.9444 H 90.008459 l 3.002918,-3.88348 h 11.424113 c 1.10631,0 1.603,-0.31566 1.603,-1.10588 0,-0.76764 -0.49669,-1.08417 -1.603,-1.08417 h -8.218107 c -3.883378,0 -5.667355,-1.73817 -5.667355,-4.33462 0,-0.6661 0.105398,-1.27699 0.323495,-1.82314 h -3.84576 l -0.812354,1.05523 h -9.776147 v 1.80661 h 11.966195 l -2.686658,3.43183 h -9.279537 v 2.05414 h 12.846761 l -3.002918,3.88348 H 71.742908 v -12.23129 h -4.091223 c 1.09472,1.21944 1.720308,2.76863 1.720308,4.53254 0,4.38008 -3.860625,7.69875 -9.098669,7.69875 H 50.158695 v -9.41493 h 4.695838 v 5.53145 h 5.418791 c 2.596444,0 4.470528,-1.44472 4.470528,-3.61219 0,-2.12231 -1.941817,-3.68039 -4.470528,-3.68039 H 50.158695 l 0.800468,-1.05523 z m 114.915983,0 6.68486,6.00015 v -6.00015 z"></path></g><g inkscape:label="Layer 13(900)" inkscape:groupmode="layer" id="g13959" style="display:inline"><path id="path13955" style="display:inline;fill:none;stroke:#000000;stroke-width:1;stroke-dasharray:none;paint-order:markers stroke fill" d="m 103.98332,53.108903 c -4.007065,0.01978 -7.85339,0.256349 -10.463447,0.720886 -10.41528,1.853718 -22.258191,6.938823 -30.478243,13.087057 -5.149685,3.851736 -12.443584,11.308543 -16.037781,16.395898 -7.054273,9.98489 -11.548222,22.610516 -12.635921,35.498606 l -0.394291,4.66742 h 28.726929 v -13.16974 h 4.673616 v 11.22102 h 11.69541 l -1.518253,1.94872 h 4.378027 c -1.574426,-1.27654 -2.363163,-3.13342 -2.363163,-5.62912 0,-5.39608 3.680314,-7.78918 11.04067,-7.78918 7.337777,0 11.040157,2.3931 11.040157,7.78918 0,2.49573 -0.79349,4.35258 -2.370919,5.62912 h 5.767609 1.42472 c -1.82347,-1.38997 -2.92489,-3.4257 -2.92489,-5.76451 0,-4.42524 3.86114,-7.40523 9.09919,-7.40523 h 10.81484 l -3.02565,3.92844 h -7.78919 c -2.52871,0 -4.44779,1.53499 -4.44779,3.67988 0,2.19004 1.85134,3.6127 4.44779,3.6127 h 5.71179 V 119.34 h -7.81192 l 2.79983,-3.36413 h 9.66349 v 7.5029 h 4.57595 c -1.57443,-1.27654 -2.36368,-3.13342 -2.36368,-5.62912 0,-5.39608 3.68031,-7.78918 11.04067,-7.78918 7.33777,0 11.04067,2.3931 11.04067,7.78918 0,2.49576 -0.79397,4.35258 -2.37144,5.62912 h 31.1857 l -0.002,-2.68718 c -0.004,-4.58831 -1.65563,-13.17092 -3.72897,-19.37556 -8.1982,-24.533828 -28.57028,-42.248198 -54.43389,-47.331993 -3.39588,-0.667501 -8.81362,-1.000561 -13.96555,-0.975134 z M 90.606873,113.98891 c -4.696178,0 -6.389791,0.60954 -6.389791,3.86074 0,3.2512 1.693613,3.88349 6.389791,3.88349 4.696177,0 6.389274,-0.63229 6.389274,-3.88349 0,-3.2512 -1.693097,-3.86074 -6.389274,-3.86074 z m 45.651997,0 c -4.69618,0 -6.38928,0.60954 -6.38928,3.86074 0,3.2512 1.6931,3.88349 6.38928,3.88349 4.69617,0 6.38979,-0.63229 6.38979,-3.88349 0,-3.2512 -1.69362,-3.86074 -6.38979,-3.86074 z"></path><path id="path13957" style="display:inline;fill:none;stroke:#000000;stroke-width:1;stroke-dasharray:none;paint-order:markers stroke fill" d="m 33.973637,127.87902 0.394291,4.66689 c 1.087699,12.8881 5.581648,25.51372 12.635921,35.49861 3.594197,5.08736 10.888096,12.54417 16.037781,16.3959 8.220052,6.14824 20.062963,11.23386 30.478243,13.08757 5.965844,1.0618 18.391877,0.93243 24.428997,-0.25424 25.86361,-5.0838 46.23569,-22.79817 54.43389,-47.332 2.07334,-6.20463 3.72508,-14.78724 3.72897,-19.37556 l 0.002,-2.68717 h -16.27239 v 10.32443 c 0,2.00942 -1.21934,2.84479 -2.57401,2.84479 -0.58702,0 -1.1513,-0.13554 -1.87378,-0.81287 l -9.2568,-8.30854 v 8.87336 h -4.24471 v -12.53102 c 0,-0.13583 0.006,-0.26514 0.0171,-0.39015 h -3.86592 l -1.3441,1.74511 h -7.78919 c -2.52871,0 -4.44779,1.53499 -4.44779,3.67988 0,2.19004 1.85135,3.6127 4.44779,3.6127 h 5.71231 v -2.19005 h -7.81192 l 2.79931,-3.36414 h 9.66349 v 9.43767 h -10.36319 c -5.23804,0 -9.09919,-3.31918 -9.09919,-7.69927 0,-2.1351 0.90094,-3.93199 2.4195,-5.2219 h -4.85759 v 12.92117 h -4.67362 v -12.92117 h -4.22041 l -1.33377,1.74511 H 96.668518 c -1.083733,0 -1.603003,0.27053 -1.603003,1.03818 0,0.76764 0.51927,1.06143 1.603003,1.06143 h 8.218622 c 3.68018,0 5.66684,1.37704 5.66684,4.13153 0,3.09316 -1.87385,4.94492 -6.47971,4.94492 H 90.008459 l 3.002918,-3.88348 h 11.424113 c 1.10631,0 1.603,-0.31617 1.603,-1.1064 0,-0.76764 -0.49669,-1.08365 -1.603,-1.08365 h -8.218107 c -3.883378,0 -5.667355,-1.73869 -5.667355,-4.33514 0,-0.96247 0.217869,-1.81068 0.682646,-2.5125 h -3.673677 l -1.343588,1.74511 h -9.776147 v 1.80609 h 11.966195 l -2.686658,3.43183 h -9.279537 v 2.05466 h 12.846761 l -3.002918,3.88348 H 71.742908 V 127.87902 H 66.93855 c 1.531427,1.29943 2.433443,3.10529 2.433443,5.2219 0,4.38009 -3.860625,7.69927 -9.098669,7.69927 H 50.158695 v -9.41493 h 4.695838 v 5.53145 h 5.418791 c 2.596444,0 4.470528,-1.44524 4.470528,-3.6127 0,-2.12231 -1.941817,-3.67988 -4.470528,-3.67988 H 50.158695 l 1.323951,-1.74511 z m 114.147553,0 7.45329,6.68951 v -6.68951 z"></path></g></svg>